<ttFont>
    <TTGlyph name=".notdef" xMin="82" yMin="0" xMax="508" yMax="1024">
      <contour>
        <pt x="508" y="233" on="1"/>
        <pt x="508" y="189" on="0"/>
        <pt x="487" y="106" on="0"/>
        <pt x="438" y="40" on="0"/>
        <pt x="355" y="0" on="0"/>
        <pt x="293" y="0" on="1"/>
        <pt x="82" y="0" on="1"/>
        <pt x="82" y="791" on="1"/>
        <pt x="82" y="834" on="0"/>
        <pt x="102" y="918" on="0"/>
        <pt x="152" y="984" on="0"/>
        <pt x="235" y="1024" on="0"/>
        <pt x="297" y="1024" on="1"/>
        <pt x="508" y="1024" on="1"/>
      </contour>
      <contour>
        <pt x="293" y="41" on="1"/>
        <pt x="344" y="41" on="0"/>
        <pt x="411" y="75" on="0"/>
        <pt x="451" y="129" on="0"/>
        <pt x="467" y="198" on="0"/>
        <pt x="467" y="233" on="1"/>
        <pt x="467" y="983" on="1"/>
        <pt x="297" y="983" on="1"/>
        <pt x="246" y="983" on="0"/>
        <pt x="179" y="949" on="0"/>
        <pt x="139" y="895" on="0"/>
        <pt x="123" y="826" on="0"/>
        <pt x="123" y="791" on="1"/>
        <pt x="123" y="41" on="1"/>
      </contour>
    </TTGlyph>
    <TTGlyph name="A" xMin="80" yMin="-20" xMax="518" yMax="1434">
      <contour>
        <pt x="512" y="23" on="1"/>
        <pt x="518" y="15" on="0"/>
        <pt x="518" y="6" on="1"/>
        <pt x="518" y="-5" on="0"/>
        <pt x="503" y="-20" on="0"/>
        <pt x="492" y="-20" on="1"/>
        <pt x="481" y="-20" on="0"/>
        <pt x="465" y="-5" on="0"/>
        <pt x="465" y="6" on="1"/>
        <pt x="465" y="15" on="0"/>
        <pt x="471" y="23" on="1"/>
        <pt x="471" y="983" on="1"/>
        <pt x="127" y="983" on="1"/>
        <pt x="127" y="23" on="1"/>
        <pt x="133" y="15" on="0"/>
        <pt x="133" y="6" on="1"/>
        <pt x="133" y="-5" on="0"/>
        <pt x="117" y="-20" on="0"/>
        <pt x="106" y="-20" on="1"/>
        <pt x="95" y="-20" on="0"/>
        <pt x="80" y="-5" on="0"/>
        <pt x="80" y="6" on="1"/>
        <pt x="80" y="15" on="0"/>
        <pt x="86" y="23" on="1"/>
        <pt x="86" y="1200" on="1"/>
        <pt x="86" y="1244" on="0"/>
        <pt x="106" y="1328" on="0"/>
        <pt x="156" y="1394" on="0"/>
        <pt x="239" y="1434" on="0"/>
        <pt x="301" y="1434" on="1"/>
        <pt x="512" y="1434" on="1"/>
      </contour>
      <contour>
        <pt x="471" y="1024" on="1"/>
        <pt x="471" y="1393" on="1"/>
        <pt x="301" y="1393" on="1"/>
        <pt x="250" y="1393" on="0"/>
        <pt x="183" y="1359" on="0"/>
        <pt x="143" y="1304" on="0"/>
        <pt x="127" y="1235" on="0"/>
        <pt x="127" y="1200" on="1"/>
        <pt x="127" y="1024" on="1"/>
      </contour>
    </TTGlyph>
    <TTGlyph name="AE" xMin="80" yMin="-20" xMax="897" yMax="1440">
      <contour>
        <pt x="852" y="41" on="1"/>
        <pt x="861" y="47" on="0"/>
        <pt x="870" y="47" on="1"/>
        <pt x="881" y="47" on="0"/>
        <pt x="897" y="31" on="0"/>
        <pt x="897" y="20" on="1"/>
        <pt x="897" y="9" on="0"/>
        <pt x="881" y="-6" on="0"/>
        <pt x="870" y="-6" on="1"/>
        <pt x="861" y="-6" on="0"/>
        <pt x="852" y="0" on="1"/>
        <pt x="471" y="0" on="1"/>
        <pt x="471" y="983" on="1"/>
        <pt x="127" y="983" on="1"/>
        <pt x="127" y="23" on="1"/>
        <pt x="133" y="15" on="0"/>
        <pt x="133" y="6" on="1"/>
        <pt x="133" y="-5" on="0"/>
        <pt x="117" y="-20" on="0"/>
        <pt x="106" y="-20" on="1"/>
        <pt x="95" y="-20" on="0"/>
        <pt x="80" y="-5" on="0"/>
        <pt x="80" y="6" on="1"/>
        <pt x="80" y="15" on="0"/>
        <pt x="86" y="23" on="1"/>
        <pt x="86" y="1200" on="1"/>
        <pt x="86" y="1244" on="0"/>
        <pt x="106" y="1328" on="0"/>
        <pt x="156" y="1394" on="0"/>
        <pt x="239" y="1434" on="0"/>
        <pt x="301" y="1434" on="1"/>
        <pt x="852" y="1434" on="1"/>
        <pt x="861" y="1440" on="0"/>
        <pt x="870" y="1440" on="1"/>
        <pt x="881" y="1440" on="0"/>
        <pt x="897" y="1424" on="0"/>
        <pt x="897" y="1413" on="1"/>
        <pt x="897" y="1402" on="0"/>
        <pt x="881" y="1386" on="0"/>
        <pt x="870" y="1386" on="1"/>
        <pt x="862" y="1386" on="0"/>
        <pt x="852" y="1393" on="1"/>
        <pt x="512" y="1393" on="1"/>
        <pt x="512" y="1024" on="1"/>
        <pt x="793" y="1024" on="1"/>
        <pt x="802" y="1030" on="0"/>
        <pt x="811" y="1030" on="1"/>
        <pt x="822" y="1030" on="0"/>
        <pt x="838" y="1015" on="0"/>
        <pt x="838" y="1004" on="1"/>
        <pt x="838" y="993" on="0"/>
        <pt x="822" y="977" on="0"/>
        <pt x="811" y="977" on="1"/>
        <pt x="802" y="977" on="0"/>
        <pt x="793" y="983" on="1"/>
        <pt x="512" y="983" on="1"/>
        <pt x="512" y="41" on="1"/>
      </contour>
      <contour>
        <pt x="471" y="1024" on="1"/>
        <pt x="471" y="1393" on="1"/>
        <pt x="301" y="1393" on="1"/>
        <pt x="250" y="1393" on="0"/>
        <pt x="183" y="1359" on="0"/>
        <pt x="143" y="1304" on="0"/>
        <pt x="127" y="1235" on="0"/>
        <pt x="127" y="1200" on="1"/>
        <pt x="127" y="1024" on="1"/>
      </contour>
    </TTGlyph>
    <TTGlyph name="Aacute" xMin="80" yMin="-20" xMax="518" yMax="1821">
      <component glyphName="A" x="0" y="0" flags="0x204"/>
      <component glyphName="acute" x="137" y="367" flags="0x4"/>
    </TTGlyph>
    <TTGlyph name="Acircumflex" xMin="58" yMin="-20" xMax="579" yMax="1819">
      <component glyphName="A" x="-3" y="0" flags="0x204"/>
      <component glyphName="circumflex" x="-3" y="365" flags="0x4"/>
    </TTGlyph>
    <TTGlyph name="Adieresis" xMin="80" yMin="-20" xMax="518" yMax="1748">
      <component glyphName="A" x="0" y="0" flags="0x204"/>
      <component glyphName="dieresis" x="44" y="374" flags="0x4"/>
    </TTGlyph>
    <TTGlyph name="Agrave" xMin="80" yMin="-20" xMax="518" yMax="1816">
      <component glyphName="A" x="0" y="0" flags="0x204"/>
      <component glyphName="grave" x="55" y="362" flags="0x4"/>
    </TTGlyph>
    <TTGlyph name="Aring" xMin="80" yMin="-20" xMax="518" yMax="1819">
      <component glyphName="A" x="0" y="0" flags="0x204"/>
      <component glyphName="ring" x="76" y="365" flags="0x4"/>
    </TTGlyph>
    <TTGlyph name="Atilde" xMin="80" yMin="-20" xMax="520" yMax="1761">
      <component glyphName="A" x="0" y="0" flags="0x204"/>
      <component glyphName="tilde" x="0" y="362" flags="0x4"/>
    </TTGlyph>
    <TTGlyph name="B" xMin="88" yMin="0" xMax="514" yMax="1434">
      <contour>
        <pt x="514" y="221" on="1"/>
        <pt x="514" y="116" on="0"/>
        <pt x="405" y="0" on="0"/>
        <pt x="299" y="0" on="1"/>
        <pt x="88" y="0" on="1"/>
        <pt x="88" y="1434" on="1"/>
        <pt x="295" y="1434" on="1"/>
        <pt x="353" y="1434" on="0"/>
        <pt x="430" y="1400" on="0"/>
        <pt x="476" y="1342" on="0"/>
        <pt x="496" y="1264" on="0"/>
        <pt x="496" y="1221" on="1"/>
        <pt x="496" y="1188" on="0"/>
        <pt x="486" y="1122" on="0"/>
        <pt x="463" y="1064" on="0"/>
        <pt x="424" y="1017" on="0"/>
        <pt x="395" y="1004" on="1"/>
        <pt x="428" y="989" on="0"/>
        <pt x="473" y="945" on="0"/>
        <pt x="502" y="890" on="0"/>
        <pt x="514" y="825" on="0"/>
        <pt x="514" y="791" on="1"/>
      </contour>
      <contour>
        <pt x="299" y="41" on="1"/>
        <pt x="386" y="41" on="0"/>
        <pt x="473" y="138" on="0"/>
        <pt x="473" y="223" on="1"/>
        <pt x="473" y="791" on="1"/>
        <pt x="473" y="827" on="0"/>
        <pt x="456" y="896" on="0"/>
        <pt x="415" y="950" on="0"/>
        <pt x="346" y="983" on="0"/>
        <pt x="295" y="983" on="1"/>
        <pt x="129" y="983" on="1"/>
        <pt x="129" y="41" on="1"/>
      </contour>
      <contour>
        <pt x="295" y="1024" on="1"/>
        <pt x="344" y="1024" on="0"/>
        <pt x="406" y="1058" on="0"/>
        <pt x="442" y="1114" on="0"/>
        <pt x="455" y="1185" on="0"/>
        <pt x="455" y="1221" on="1"/>
        <pt x="455" y="1256" on="0"/>
        <pt x="439" y="1319" on="0"/>
        <pt x="402" y="1366" on="0"/>
        <pt x="340" y="1393" on="0"/>
        <pt x="295" y="1393" on="1"/>
        <pt x="129" y="1393" on="1"/>
        <pt x="129" y="1024" on="1"/>
      </contour>
    </TTGlyph>
    <TTGlyph name="C" xMin="82" yMin="-20" xMax="514" yMax="1454">
      <contour>
        <pt x="123" y="207" on="1"/>
        <pt x="123" y="171" on="0"/>
        <pt x="140" y="104" on="0"/>
        <pt x="180" y="51" on="0"/>
        <pt x="246" y="20" on="0"/>
        <pt x="295" y="20" on="1"/>
        <pt x="341" y="20" on="0"/>
        <pt x="405" y="47" on="0"/>
        <pt x="446" y="93" on="0"/>
        <pt x="465" y="154" on="0"/>
        <pt x="467" y="188" on="1"/>
        <pt x="464" y="192" on="0"/>
        <pt x="461" y="202" on="0"/>
        <pt x="461" y="207" on="1"/>
        <pt x="461" y="218" on="0"/>
        <pt x="476" y="233" on="0"/>
        <pt x="487" y="233" on="1"/>
        <pt x="498" y="233" on="0"/>
        <pt x="514" y="218" on="0"/>
        <pt x="514" y="207" on="1"/>
        <pt x="514" y="202" on="0"/>
        <pt x="511" y="192" on="0"/>
        <pt x="508" y="188" on="1"/>
        <pt x="506" y="147" on="0"/>
        <pt x="481" y="71" on="0"/>
        <pt x="431" y="14" on="0"/>
        <pt x="352" y="-20" on="0"/>
        <pt x="295" y="-20" on="1"/>
        <pt x="234" y="-20" on="0"/>
        <pt x="152" y="18" on="0"/>
        <pt x="103" y="81" on="0"/>
        <pt x="82" y="163" on="0"/>
        <pt x="82" y="207" on="1"/>
        <pt x="82" y="1221" on="1"/>
        <pt x="82" y="1264" on="0"/>
        <pt x="103" y="1348" on="0"/>
        <pt x="152" y="1414" on="0"/>
        <pt x="234" y="1454" on="0"/>
        <pt x="295" y="1454" on="1"/>
        <pt x="352" y="1454" on="0"/>
        <pt x="431" y="1418" on="0"/>
        <pt x="481" y="1358" on="0"/>
        <pt x="506" y="1281" on="0"/>
        <pt x="508" y="1239" on="1"/>
        <pt x="511" y="1236" on="0"/>
        <pt x="514" y="1226" on="0"/>
        <pt x="514" y="1221" on="1"/>
        <pt x="514" y="1210" on="0"/>
        <pt x="498" y="1194" on="0"/>
        <pt x="487" y="1194" on="1"/>
        <pt x="476" y="1194" on="0"/>
        <pt x="461" y="1210" on="0"/>
        <pt x="461" y="1221" on="1"/>
        <pt x="461" y="1231" on="0"/>
        <pt x="467" y="1237" on="1"/>
        <pt x="465" y="1270" on="0"/>
        <pt x="446" y="1333" on="0"/>
        <pt x="405" y="1383" on="0"/>
        <pt x="341" y="1413" on="0"/>
        <pt x="295" y="1413" on="1"/>
        <pt x="246" y="1413" on="0"/>
        <pt x="180" y="1379" on="0"/>
        <pt x="140" y="1325" on="0"/>
        <pt x="123" y="1256" on="0"/>
        <pt x="123" y="1221" on="1"/>
      </contour>
    </TTGlyph>
    <TTGlyph name="Ccedilla" xMin="82" yMin="-391" xMax="514" yMax="1454">
      <contour>
        <pt x="477" y="-254" on="1"/>
        <pt x="477" y="-291" on="0"/>
        <pt x="452" y="-341" on="0"/>
        <pt x="411" y="-372" on="0"/>
        <pt x="360" y="-385" on="0"/>
        <pt x="334" y="-385" on="1"/>
        <pt x="215" y="-385" on="1"/>
        <pt x="209" y="-391" on="0"/>
        <pt x="199" y="-391" on="1"/>
        <pt x="188" y="-391" on="0"/>
        <pt x="172" y="-376" on="0"/>
        <pt x="172" y="-365" on="1"/>
        <pt x="172" y="-354" on="0"/>
        <pt x="188" y="-338" on="0"/>
        <pt x="199" y="-338" on="1"/>
        <pt x="209" y="-338" on="0"/>
        <pt x="215" y="-344" on="1"/>
        <pt x="334" y="-344" on="1"/>
        <pt x="352" y="-344" on="0"/>
        <pt x="389" y="-336" on="0"/>
        <pt x="418" y="-315" on="0"/>
        <pt x="436" y="-280" on="0"/>
        <pt x="436" y="-254" on="1"/>
        <pt x="436" y="-221" on="1"/>
        <pt x="436" y="-195" on="0"/>
        <pt x="418" y="-161" on="0"/>
        <pt x="389" y="-140" on="0"/>
        <pt x="352" y="-131" on="0"/>
        <pt x="334" y="-131" on="1"/>
        <pt x="276" y="-131" on="1"/>
        <pt x="276" y="-19" on="1"/>
        <pt x="227" y="-17" on="0"/>
        <pt x="193" y="-1" on="1"/>
        <pt x="152" y="18" on="0"/>
        <pt x="103" y="81" on="0"/>
        <pt x="82" y="163" on="0"/>
        <pt x="82" y="207" on="1"/>
        <pt x="82" y="1221" on="1"/>
        <pt x="82" y="1264" on="0"/>
        <pt x="103" y="1348" on="0"/>
        <pt x="152" y="1414" on="0"/>
        <pt x="234" y="1454" on="0"/>
        <pt x="295" y="1454" on="1"/>
        <pt x="352" y="1454" on="0"/>
        <pt x="431" y="1418" on="0"/>
        <pt x="481" y="1358" on="0"/>
        <pt x="506" y="1281" on="0"/>
        <pt x="508" y="1239" on="1"/>
        <pt x="511" y="1236" on="0"/>
        <pt x="514" y="1226" on="0"/>
        <pt x="514" y="1221" on="1"/>
        <pt x="514" y="1210" on="0"/>
        <pt x="498" y="1194" on="0"/>
        <pt x="487" y="1194" on="1"/>
        <pt x="476" y="1194" on="0"/>
        <pt x="461" y="1210" on="0"/>
        <pt x="461" y="1221" on="1"/>
        <pt x="461" y="1231" on="0"/>
        <pt x="467" y="1237" on="1"/>
        <pt x="465" y="1270" on="0"/>
        <pt x="446" y="1333" on="0"/>
        <pt x="405" y="1383" on="0"/>
        <pt x="341" y="1413" on="0"/>
        <pt x="295" y="1413" on="1"/>
        <pt x="246" y="1413" on="0"/>
        <pt x="180" y="1379" on="0"/>
        <pt x="140" y="1325" on="0"/>
        <pt x="123" y="1256" on="0"/>
        <pt x="123" y="1221" on="1"/>
        <pt x="123" y="207" on="1"/>
        <pt x="123" y="171" on="0"/>
        <pt x="140" y="104" on="0"/>
        <pt x="180" y="51" on="0"/>
        <pt x="246" y="20" on="0"/>
        <pt x="295" y="20" on="1"/>
        <pt x="341" y="20" on="0"/>
        <pt x="405" y="47" on="0"/>
        <pt x="446" y="93" on="0"/>
        <pt x="465" y="154" on="0"/>
        <pt x="467" y="188" on="1"/>
        <pt x="464" y="192" on="0"/>
        <pt x="461" y="202" on="0"/>
        <pt x="461" y="207" on="1"/>
        <pt x="461" y="218" on="0"/>
        <pt x="476" y="233" on="0"/>
        <pt x="487" y="233" on="1"/>
        <pt x="498" y="233" on="0"/>
        <pt x="514" y="218" on="0"/>
        <pt x="514" y="207" on="1"/>
        <pt x="514" y="202" on="0"/>
        <pt x="511" y="192" on="0"/>
        <pt x="508" y="188" on="1"/>
        <pt x="506" y="147" on="0"/>
        <pt x="481" y="71" on="0"/>
        <pt x="431" y="14" on="0"/>
        <pt x="391" y="-3" on="1"/>
        <pt x="360" y="-16" on="0"/>
        <pt x="317" y="-19" on="1"/>
        <pt x="317" y="-90" on="1"/>
        <pt x="334" y="-90" on="1"/>
        <pt x="360" y="-90" on="0"/>
        <pt x="411" y="-103" on="0"/>
        <pt x="452" y="-134" on="0"/>
        <pt x="477" y="-184" on="0"/>
        <pt x="477" y="-221" on="1"/>
      </contour>
    </TTGlyph>
    <TTGlyph name="D" xMin="88" yMin="0" xMax="514" yMax="1434">
      <contour>
        <pt x="514" y="233" on="1"/>
        <pt x="514" y="189" on="0"/>
        <pt x="493" y="106" on="0"/>
        <pt x="444" y="40" on="0"/>
        <pt x="361" y="0" on="0"/>
        <pt x="299" y="0" on="1"/>
        <pt x="88" y="0" on="1"/>
        <pt x="88" y="1434" on="1"/>
        <pt x="299" y="1434" on="1"/>
        <pt x="361" y="1434" on="0"/>
        <pt x="444" y="1394" on="0"/>
        <pt x="493" y="1328" on="0"/>
        <pt x="514" y="1244" on="0"/>
        <pt x="514" y="1200" on="1"/>
      </contour>
      <contour>
        <pt x="299" y="41" on="1"/>
        <pt x="350" y="41" on="0"/>
        <pt x="417" y="75" on="0"/>
        <pt x="457" y="129" on="0"/>
        <pt x="473" y="198" on="0"/>
        <pt x="473" y="233" on="1"/>
        <pt x="473" y="1200" on="1"/>
        <pt x="473" y="1235" on="0"/>
        <pt x="457" y="1304" on="0"/>
        <pt x="417" y="1359" on="0"/>
        <pt x="350" y="1393" on="0"/>
        <pt x="299" y="1393" on="1"/>
        <pt x="129" y="1393" on="1"/>
        <pt x="129" y="41" on="1"/>
      </contour>
    </TTGlyph>
    <TTGlyph name="E" xMin="86" yMin="-6" xMax="512" yMax="1440">
      <contour>
        <pt x="467" y="41" on="1"/>
        <pt x="476" y="47" on="0"/>
        <pt x="485" y="47" on="1"/>
        <pt x="496" y="47" on="0"/>
        <pt x="512" y="31" on="0"/>
        <pt x="512" y="20" on="1"/>
        <pt x="512" y="9" on="0"/>
        <pt x="496" y="-6" on="0"/>
        <pt x="485" y="-6" on="1"/>
        <pt x="476" y="-6" on="0"/>
        <pt x="467" y="0" on="1"/>
        <pt x="86" y="0" on="1"/>
        <pt x="86" y="1202" on="1"/>
        <pt x="86" y="1246" on="0"/>
        <pt x="106" y="1329" on="0"/>
        <pt x="156" y="1394" on="0"/>
        <pt x="239" y="1434" on="0"/>
        <pt x="301" y="1434" on="1"/>
        <pt x="467" y="1434" on="1"/>
        <pt x="476" y="1440" on="0"/>
        <pt x="485" y="1440" on="1"/>
        <pt x="496" y="1440" on="0"/>
        <pt x="512" y="1424" on="0"/>
        <pt x="512" y="1413" on="1"/>
        <pt x="512" y="1402" on="0"/>
        <pt x="496" y="1386" on="0"/>
        <pt x="485" y="1386" on="1"/>
        <pt x="477" y="1386" on="0"/>
        <pt x="467" y="1393" on="1"/>
        <pt x="301" y="1393" on="1"/>
        <pt x="250" y="1393" on="0"/>
        <pt x="183" y="1360" on="0"/>
        <pt x="143" y="1306" on="0"/>
        <pt x="127" y="1237" on="0"/>
        <pt x="127" y="1202" on="1"/>
        <pt x="127" y="1024" on="1"/>
        <pt x="408" y="1024" on="1"/>
        <pt x="417" y="1030" on="0"/>
        <pt x="426" y="1030" on="1"/>
        <pt x="437" y="1030" on="0"/>
        <pt x="453" y="1015" on="0"/>
        <pt x="453" y="1004" on="1"/>
        <pt x="453" y="993" on="0"/>
        <pt x="437" y="977" on="0"/>
        <pt x="426" y="977" on="1"/>
        <pt x="417" y="977" on="0"/>
        <pt x="408" y="983" on="1"/>
        <pt x="127" y="983" on="1"/>
        <pt x="127" y="41" on="1"/>
      </contour>
    </TTGlyph>
    <TTGlyph name="Eacute" xMin="86" yMin="-6" xMax="512" yMax="1819">
      <component glyphName="E" x="0" y="0" flags="0x204"/>
      <component glyphName="acute" x="135" y="365" flags="0x4"/>
    </TTGlyph>
    <TTGlyph name="Ecircumflex" xMin="58" yMin="-6" xMax="579" yMax="1819">
      <component glyphName="E" x="0" y="0" flags="0x204"/>
      <component glyphName="circumflex" x="-3" y="365" flags="0x4"/>
    </TTGlyph>
    <TTGlyph name="Edieresis" xMin="86" yMin="-6" xMax="512" yMax="1747">
      <component glyphName="E" x="0" y="0" flags="0x204"/>
      <component glyphName="dieresis" x="45" y="373" flags="0x4"/>
    </TTGlyph>
    <TTGlyph name="Egrave" xMin="86" yMin="-6" xMax="512" yMax="1819">
      <component glyphName="E" x="0" y="0" flags="0x204"/>
      <component glyphName="grave" x="74" y="365" flags="0x4"/>
    </TTGlyph>
    <TTGlyph name="Eth" xMin="-37" yMin="0" xMax="528" yMax="1434">
      <contour>
        <pt x="528" y="233" on="1"/>
        <pt x="528" y="189" on="0"/>
        <pt x="507" y="106" on="0"/>
        <pt x="458" y="40" on="0"/>
        <pt x="375" y="0" on="0"/>
        <pt x="313" y="0" on="1"/>
        <pt x="102" y="0" on="1"/>
        <pt x="102" y="983" on="1"/>
        <pt x="6" y="983" on="1"/>
        <pt x="0" y="977" on="0"/>
        <pt x="-10" y="977" on="1"/>
        <pt x="-21" y="977" on="0"/>
        <pt x="-37" y="993" on="0"/>
        <pt x="-37" y="1004" on="1"/>
        <pt x="-37" y="1015" on="0"/>
        <pt x="-21" y="1030" on="0"/>
        <pt x="-10" y="1030" on="1"/>
        <pt x="0" y="1030" on="0"/>
        <pt x="6" y="1024" on="1"/>
        <pt x="102" y="1024" on="1"/>
        <pt x="102" y="1434" on="1"/>
        <pt x="313" y="1434" on="1"/>
        <pt x="375" y="1434" on="0"/>
        <pt x="458" y="1394" on="0"/>
        <pt x="507" y="1328" on="0"/>
        <pt x="528" y="1244" on="0"/>
        <pt x="528" y="1200" on="1"/>
      </contour>
      <contour>
        <pt x="313" y="41" on="1"/>
        <pt x="364" y="41" on="0"/>
        <pt x="431" y="75" on="0"/>
        <pt x="471" y="129" on="0"/>
        <pt x="487" y="198" on="0"/>
        <pt x="487" y="233" on="1"/>
        <pt x="487" y="1200" on="1"/>
        <pt x="487" y="1235" on="0"/>
        <pt x="471" y="1304" on="0"/>
        <pt x="431" y="1359" on="0"/>
        <pt x="364" y="1393" on="0"/>
        <pt x="313" y="1393" on="1"/>
        <pt x="143" y="1393" on="1"/>
        <pt x="143" y="1024" on="1"/>
        <pt x="295" y="1024" on="1"/>
        <pt x="304" y="1030" on="0"/>
        <pt x="313" y="1030" on="1"/>
        <pt x="324" y="1030" on="0"/>
        <pt x="340" y="1015" on="0"/>
        <pt x="340" y="1004" on="1"/>
        <pt x="340" y="993" on="0"/>
        <pt x="324" y="977" on="0"/>
        <pt x="313" y="977" on="1"/>
        <pt x="304" y="977" on="0"/>
        <pt x="295" y="983" on="1"/>
        <pt x="143" y="983" on="1"/>
        <pt x="143" y="41" on="1"/>
      </contour>
    </TTGlyph>
    <TTGlyph name="Euro" xMin="57" yMin="-20" xMax="629" yMax="1454">
      <contour>
        <pt x="500" y="840" on="1"/>
        <pt x="509" y="846" on="0"/>
        <pt x="518" y="846" on="1"/>
        <pt x="529" y="846" on="0"/>
        <pt x="545" y="830" on="0"/>
        <pt x="545" y="819" on="1"/>
        <pt x="545" y="808" on="0"/>
        <pt x="529" y="793" on="0"/>
        <pt x="518" y="793" on="1"/>
        <pt x="509" y="793" on="0"/>
        <pt x="500" y="799" on="1"/>
        <pt x="238" y="799" on="1"/>
        <pt x="238" y="207" on="1"/>
        <pt x="238" y="171" on="0"/>
        <pt x="255" y="104" on="0"/>
        <pt x="295" y="51" on="0"/>
        <pt x="361" y="20" on="0"/>
        <pt x="410" y="20" on="1"/>
        <pt x="456" y="20" on="0"/>
        <pt x="520" y="47" on="0"/>
        <pt x="561" y="93" on="0"/>
        <pt x="580" y="154" on="0"/>
        <pt x="582" y="188" on="1"/>
        <pt x="579" y="192" on="0"/>
        <pt x="576" y="202" on="0"/>
        <pt x="576" y="207" on="1"/>
        <pt x="576" y="218" on="0"/>
        <pt x="591" y="233" on="0"/>
        <pt x="602" y="233" on="1"/>
        <pt x="613" y="233" on="0"/>
        <pt x="629" y="218" on="0"/>
        <pt x="629" y="207" on="1"/>
        <pt x="629" y="202" on="0"/>
        <pt x="626" y="192" on="0"/>
        <pt x="623" y="188" on="1"/>
        <pt x="621" y="147" on="0"/>
        <pt x="596" y="71" on="0"/>
        <pt x="546" y="14" on="0"/>
        <pt x="467" y="-20" on="0"/>
        <pt x="410" y="-20" on="1"/>
        <pt x="349" y="-20" on="0"/>
        <pt x="267" y="18" on="0"/>
        <pt x="218" y="81" on="0"/>
        <pt x="197" y="163" on="0"/>
        <pt x="197" y="207" on="1"/>
        <pt x="197" y="799" on="1"/>
        <pt x="100" y="799" on="1"/>
        <pt x="94" y="793" on="0"/>
        <pt x="84" y="793" on="1"/>
        <pt x="73" y="793" on="0"/>
        <pt x="57" y="808" on="0"/>
        <pt x="57" y="819" on="1"/>
        <pt x="57" y="830" on="0"/>
        <pt x="73" y="846" on="0"/>
        <pt x="84" y="846" on="1"/>
        <pt x="94" y="846" on="0"/>
        <pt x="100" y="840" on="1"/>
        <pt x="197" y="840" on="1"/>
        <pt x="197" y="983" on="1"/>
        <pt x="100" y="983" on="1"/>
        <pt x="94" y="977" on="0"/>
        <pt x="84" y="977" on="1"/>
        <pt x="73" y="977" on="0"/>
        <pt x="57" y="993" on="0"/>
        <pt x="57" y="1004" on="1"/>
        <pt x="57" y="1015" on="0"/>
        <pt x="73" y="1030" on="0"/>
        <pt x="84" y="1030" on="1"/>
        <pt x="94" y="1030" on="0"/>
        <pt x="100" y="1024" on="1"/>
        <pt x="197" y="1024" on="1"/>
        <pt x="197" y="1221" on="1"/>
        <pt x="197" y="1264" on="0"/>
        <pt x="218" y="1348" on="0"/>
        <pt x="267" y="1414" on="0"/>
        <pt x="349" y="1454" on="0"/>
        <pt x="410" y="1454" on="1"/>
        <pt x="467" y="1454" on="0"/>
        <pt x="546" y="1418" on="0"/>
        <pt x="596" y="1358" on="0"/>
        <pt x="621" y="1281" on="0"/>
        <pt x="623" y="1239" on="1"/>
        <pt x="626" y="1236" on="0"/>
        <pt x="629" y="1226" on="0"/>
        <pt x="629" y="1221" on="1"/>
        <pt x="629" y="1210" on="0"/>
        <pt x="613" y="1194" on="0"/>
        <pt x="602" y="1194" on="1"/>
        <pt x="591" y="1194" on="0"/>
        <pt x="576" y="1210" on="0"/>
        <pt x="576" y="1221" on="1"/>
        <pt x="576" y="1231" on="0"/>
        <pt x="582" y="1237" on="1"/>
        <pt x="580" y="1270" on="0"/>
        <pt x="561" y="1333" on="0"/>
        <pt x="520" y="1383" on="0"/>
        <pt x="456" y="1413" on="0"/>
        <pt x="410" y="1413" on="1"/>
        <pt x="361" y="1413" on="0"/>
        <pt x="295" y="1379" on="0"/>
        <pt x="255" y="1325" on="0"/>
        <pt x="238" y="1256" on="0"/>
        <pt x="238" y="1221" on="1"/>
        <pt x="238" y="1024" on="1"/>
        <pt x="500" y="1024" on="1"/>
        <pt x="509" y="1030" on="0"/>
        <pt x="518" y="1030" on="1"/>
        <pt x="529" y="1030" on="0"/>
        <pt x="545" y="1015" on="0"/>
        <pt x="545" y="1004" on="1"/>
        <pt x="545" y="993" on="0"/>
        <pt x="529" y="977" on="0"/>
        <pt x="518" y="977" on="1"/>
        <pt x="509" y="977" on="0"/>
        <pt x="500" y="983" on="1"/>
        <pt x="238" y="983" on="1"/>
        <pt x="238" y="840" on="1"/>
      </contour>
    </TTGlyph>
    <TTGlyph name="F" xMin="80" yMin="-20" xMax="512" yMax="1440">
      <contour>
        <pt x="127" y="23" on="1"/>
        <pt x="133" y="15" on="0"/>
        <pt x="133" y="6" on="1"/>
        <pt x="133" y="-5" on="0"/>
        <pt x="117" y="-20" on="0"/>
        <pt x="106" y="-20" on="1"/>
        <pt x="95" y="-20" on="0"/>
        <pt x="80" y="-5" on="0"/>
        <pt x="80" y="6" on="1"/>
        <pt x="80" y="15" on="0"/>
        <pt x="86" y="23" on="1"/>
        <pt x="86" y="1202" on="1"/>
        <pt x="86" y="1246" on="0"/>
        <pt x="106" y="1329" on="0"/>
        <pt x="156" y="1394" on="0"/>
        <pt x="239" y="1434" on="0"/>
        <pt x="301" y="1434" on="1"/>
        <pt x="467" y="1434" on="1"/>
        <pt x="476" y="1440" on="0"/>
        <pt x="485" y="1440" on="1"/>
        <pt x="496" y="1440" on="0"/>
        <pt x="512" y="1424" on="0"/>
        <pt x="512" y="1413" on="1"/>
        <pt x="512" y="1402" on="0"/>
        <pt x="496" y="1386" on="0"/>
        <pt x="485" y="1386" on="1"/>
        <pt x="477" y="1386" on="0"/>
        <pt x="467" y="1393" on="1"/>
        <pt x="301" y="1393" on="1"/>
        <pt x="250" y="1393" on="0"/>
        <pt x="183" y="1360" on="0"/>
        <pt x="143" y="1306" on="0"/>
        <pt x="127" y="1237" on="0"/>
        <pt x="127" y="1202" on="1"/>
        <pt x="127" y="1024" on="1"/>
        <pt x="408" y="1024" on="1"/>
        <pt x="417" y="1030" on="0"/>
        <pt x="426" y="1030" on="1"/>
        <pt x="437" y="1030" on="0"/>
        <pt x="453" y="1015" on="0"/>
        <pt x="453" y="1004" on="1"/>
        <pt x="453" y="993" on="0"/>
        <pt x="437" y="977" on="0"/>
        <pt x="426" y="977" on="1"/>
        <pt x="417" y="977" on="0"/>
        <pt x="408" y="983" on="1"/>
        <pt x="127" y="983" on="1"/>
      </contour>
    </TTGlyph>
    <TTGlyph name="G" xMin="82" yMin="-20" xMax="514" yMax="1454">
      <contour>
        <pt x="508" y="207" on="1"/>
        <pt x="508" y="163" on="0"/>
        <pt x="486" y="81" on="0"/>
        <pt x="436" y="18" on="0"/>
        <pt x="354" y="-20" on="0"/>
        <pt x="295" y="-20" on="1"/>
        <pt x="234" y="-20" on="0"/>
        <pt x="152" y="18" on="0"/>
        <pt x="103" y="81" on="0"/>
        <pt x="82" y="163" on="0"/>
        <pt x="82" y="207" on="1"/>
        <pt x="82" y="1221" on="1"/>
        <pt x="82" y="1264" on="0"/>
        <pt x="103" y="1348" on="0"/>
        <pt x="152" y="1414" on="0"/>
        <pt x="234" y="1454" on="0"/>
        <pt x="295" y="1454" on="1"/>
        <pt x="352" y="1454" on="0"/>
        <pt x="431" y="1418" on="0"/>
        <pt x="481" y="1358" on="0"/>
        <pt x="506" y="1281" on="0"/>
        <pt x="508" y="1239" on="1"/>
        <pt x="511" y="1236" on="0"/>
        <pt x="514" y="1226" on="0"/>
        <pt x="514" y="1221" on="1"/>
        <pt x="514" y="1210" on="0"/>
        <pt x="498" y="1194" on="0"/>
        <pt x="487" y="1194" on="1"/>
        <pt x="476" y="1194" on="0"/>
        <pt x="461" y="1210" on="0"/>
        <pt x="461" y="1221" on="1"/>
        <pt x="461" y="1231" on="0"/>
        <pt x="467" y="1237" on="1"/>
        <pt x="465" y="1270" on="0"/>
        <pt x="446" y="1333" on="0"/>
        <pt x="405" y="1383" on="0"/>
        <pt x="341" y="1413" on="0"/>
        <pt x="295" y="1413" on="1"/>
        <pt x="246" y="1413" on="0"/>
        <pt x="180" y="1379" on="0"/>
        <pt x="140" y="1325" on="0"/>
        <pt x="123" y="1256" on="0"/>
        <pt x="123" y="1221" on="1"/>
        <pt x="123" y="207" on="1"/>
        <pt x="123" y="171" on="0"/>
        <pt x="140" y="104" on="0"/>
        <pt x="180" y="51" on="0"/>
        <pt x="246" y="20" on="0"/>
        <pt x="295" y="20" on="1"/>
        <pt x="344" y="20" on="0"/>
        <pt x="410" y="51" on="0"/>
        <pt x="450" y="104" on="0"/>
        <pt x="467" y="171" on="0"/>
        <pt x="467" y="207" on="1"/>
        <pt x="467" y="571" on="1"/>
        <pt x="311" y="571" on="1"/>
        <pt x="305" y="565" on="0"/>
        <pt x="295" y="565" on="1"/>
        <pt x="284" y="565" on="0"/>
        <pt x="268" y="581" on="0"/>
        <pt x="268" y="592" on="1"/>
        <pt x="268" y="603" on="0"/>
        <pt x="284" y="618" on="0"/>
        <pt x="295" y="618" on="1"/>
        <pt x="305" y="618" on="0"/>
        <pt x="311" y="612" on="1"/>
        <pt x="508" y="612" on="1"/>
      </contour>
    </TTGlyph>
    <TTGlyph name="H" xMin="82" yMin="-20" xMax="520" yMax="1454">
      <contour>
        <pt x="514" y="23" on="1"/>
        <pt x="520" y="15" on="0"/>
        <pt x="520" y="6" on="1"/>
        <pt x="520" y="-5" on="0"/>
        <pt x="505" y="-20" on="0"/>
        <pt x="494" y="-20" on="1"/>
        <pt x="483" y="-20" on="0"/>
        <pt x="467" y="-5" on="0"/>
        <pt x="467" y="6" on="1"/>
        <pt x="467" y="15" on="0"/>
        <pt x="473" y="23" on="1"/>
        <pt x="473" y="983" on="1"/>
        <pt x="129" y="983" on="1"/>
        <pt x="129" y="23" on="1"/>
        <pt x="135" y="15" on="0"/>
        <pt x="135" y="6" on="1"/>
        <pt x="135" y="-5" on="0"/>
        <pt x="120" y="-20" on="0"/>
        <pt x="109" y="-20" on="1"/>
        <pt x="98" y="-20" on="0"/>
        <pt x="82" y="-5" on="0"/>
        <pt x="82" y="6" on="1"/>
        <pt x="82" y="15" on="0"/>
        <pt x="88" y="23" on="1"/>
        <pt x="88" y="1409" on="1"/>
        <pt x="82" y="1418" on="0"/>
        <pt x="82" y="1427" on="1"/>
        <pt x="82" y="1438" on="0"/>
        <pt x="98" y="1454" on="0"/>
        <pt x="109" y="1454" on="1"/>
        <pt x="120" y="1454" on="0"/>
        <pt x="135" y="1438" on="0"/>
        <pt x="135" y="1427" on="1"/>
        <pt x="135" y="1418" on="0"/>
        <pt x="129" y="1409" on="1"/>
        <pt x="129" y="1024" on="1"/>
        <pt x="473" y="1024" on="1"/>
        <pt x="473" y="1409" on="1"/>
        <pt x="467" y="1418" on="0"/>
        <pt x="467" y="1427" on="1"/>
        <pt x="467" y="1438" on="0"/>
        <pt x="483" y="1454" on="0"/>
        <pt x="494" y="1454" on="1"/>
        <pt x="505" y="1454" on="0"/>
        <pt x="520" y="1438" on="0"/>
        <pt x="520" y="1427" on="1"/>
        <pt x="520" y="1418" on="0"/>
        <pt x="514" y="1409" on="1"/>
      </contour>
    </TTGlyph>
    <TTGlyph name="I" xMin="82" yMin="-20" xMax="135" yMax="1454">
      <contour>
        <pt x="129" y="23" on="1"/>
        <pt x="135" y="15" on="0"/>
        <pt x="135" y="6" on="1"/>
        <pt x="135" y="-5" on="0"/>
        <pt x="120" y="-20" on="0"/>
        <pt x="109" y="-20" on="1"/>
        <pt x="98" y="-20" on="0"/>
        <pt x="82" y="-5" on="0"/>
        <pt x="82" y="6" on="1"/>
        <pt x="82" y="15" on="0"/>
        <pt x="88" y="23" on="1"/>
        <pt x="88" y="1409" on="1"/>
        <pt x="82" y="1418" on="0"/>
        <pt x="82" y="1427" on="1"/>
        <pt x="82" y="1438" on="0"/>
        <pt x="98" y="1454" on="0"/>
        <pt x="109" y="1454" on="1"/>
        <pt x="120" y="1454" on="0"/>
        <pt x="135" y="1438" on="0"/>
        <pt x="135" y="1427" on="1"/>
        <pt x="135" y="1418" on="0"/>
        <pt x="129" y="1409" on="1"/>
      </contour>
    </TTGlyph>
    <TTGlyph name="Iacute" xMin="82" yMin="-20" xMax="369" yMax="1819">
      <component glyphName="I" x="0" y="0" flags="0x204"/>
      <component glyphName="acute" x="0" y="365" flags="0x4"/>
    </TTGlyph>
    <TTGlyph name="Icircumflex" xMin="-151" yMin="-20" xMax="370" yMax="1819">
      <component glyphName="I" x="0" y="0" flags="0x204"/>
      <component glyphName="circumflex" x="-212" y="365" flags="0x4"/>
    </TTGlyph>
    <TTGlyph name="Idieresis" xMin="-34" yMin="-20" xMax="250" yMax="1747">
      <component glyphName="I" x="0" y="0" flags="0x204"/>
      <component glyphName="dieresis" x="-147" y="373" flags="0x4"/>
    </TTGlyph>
    <TTGlyph name="Igrave" xMin="-151" yMin="-20" xMax="136" yMax="1819">
      <component glyphName="I" x="0" y="0" flags="0x204"/>
      <component glyphName="grave" x="-233" y="365" flags="0x4"/>
    </TTGlyph>
    <TTGlyph name="J" xMin="4" yMin="-20" xMax="442" yMax="1454">
      <contour>
        <pt x="436" y="207" on="1"/>
        <pt x="436" y="163" on="0"/>
        <pt x="415" y="81" on="0"/>
        <pt x="365" y="18" on="0"/>
        <pt x="284" y="-20" on="0"/>
        <pt x="223" y="-20" on="1"/>
        <pt x="166" y="-20" on="0"/>
        <pt x="87" y="14" on="0"/>
        <pt x="37" y="71" on="0"/>
        <pt x="12" y="147" on="0"/>
        <pt x="10" y="188" on="1"/>
        <pt x="7" y="192" on="0"/>
        <pt x="4" y="202" on="0"/>
        <pt x="4" y="207" on="1"/>
        <pt x="4" y="218" on="0"/>
        <pt x="20" y="233" on="0"/>
        <pt x="31" y="233" on="1"/>
        <pt x="42" y="233" on="0"/>
        <pt x="57" y="218" on="0"/>
        <pt x="57" y="207" on="1"/>
        <pt x="57" y="202" on="0"/>
        <pt x="54" y="192" on="0"/>
        <pt x="51" y="188" on="1"/>
        <pt x="52" y="154" on="0"/>
        <pt x="72" y="93" on="0"/>
        <pt x="113" y="47" on="0"/>
        <pt x="177" y="20" on="0"/>
        <pt x="223" y="20" on="1"/>
        <pt x="272" y="20" on="0"/>
        <pt x="338" y="51" on="0"/>
        <pt x="378" y="104" on="0"/>
        <pt x="395" y="171" on="0"/>
        <pt x="395" y="207" on="1"/>
        <pt x="395" y="1409" on="1"/>
        <pt x="392" y="1412" on="0"/>
        <pt x="389" y="1422" on="0"/>
        <pt x="389" y="1427" on="1"/>
        <pt x="389" y="1438" on="0"/>
        <pt x="406" y="1454" on="0"/>
        <pt x="416" y="1454" on="1"/>
        <pt x="427" y="1454" on="0"/>
        <pt x="442" y="1438" on="0"/>
        <pt x="442" y="1427" on="1"/>
        <pt x="442" y="1422" on="0"/>
        <pt x="439" y="1412" on="0"/>
        <pt x="436" y="1409" on="1"/>
      </contour>
    </TTGlyph>
    <TTGlyph name="K" xMin="82" yMin="-20" xMax="520" yMax="1454">
      <contour>
        <pt x="514" y="23" on="1"/>
        <pt x="520" y="15" on="0"/>
        <pt x="520" y="6" on="1"/>
        <pt x="520" y="-5" on="0"/>
        <pt x="505" y="-20" on="0"/>
        <pt x="494" y="-20" on="1"/>
        <pt x="483" y="-20" on="0"/>
        <pt x="467" y="-5" on="0"/>
        <pt x="467" y="6" on="1"/>
        <pt x="467" y="15" on="0"/>
        <pt x="473" y="23" on="1"/>
        <pt x="473" y="793" on="1"/>
        <pt x="473" y="828" on="0"/>
        <pt x="456" y="897" on="0"/>
        <pt x="416" y="951" on="0"/>
        <pt x="350" y="985" on="0"/>
        <pt x="301" y="985" on="1"/>
        <pt x="129" y="985" on="1"/>
        <pt x="129" y="23" on="1"/>
        <pt x="135" y="15" on="0"/>
        <pt x="135" y="6" on="1"/>
        <pt x="135" y="-5" on="0"/>
        <pt x="120" y="-20" on="0"/>
        <pt x="109" y="-20" on="1"/>
        <pt x="98" y="-20" on="0"/>
        <pt x="82" y="-5" on="0"/>
        <pt x="82" y="6" on="1"/>
        <pt x="82" y="15" on="0"/>
        <pt x="88" y="23" on="1"/>
        <pt x="88" y="1409" on="1"/>
        <pt x="82" y="1418" on="0"/>
        <pt x="82" y="1427" on="1"/>
        <pt x="82" y="1438" on="0"/>
        <pt x="98" y="1454" on="0"/>
        <pt x="109" y="1454" on="1"/>
        <pt x="120" y="1454" on="0"/>
        <pt x="135" y="1438" on="0"/>
        <pt x="135" y="1427" on="1"/>
        <pt x="135" y="1418" on="0"/>
        <pt x="129" y="1409" on="1"/>
        <pt x="129" y="1024" on="1"/>
        <pt x="457" y="1425" on="1"/>
        <pt x="457" y="1427" on="1"/>
        <pt x="457" y="1438" on="0"/>
        <pt x="472" y="1454" on="0"/>
        <pt x="483" y="1454" on="1"/>
        <pt x="494" y="1454" on="0"/>
        <pt x="510" y="1438" on="0"/>
        <pt x="510" y="1427" on="1"/>
        <pt x="510" y="1418" on="0"/>
        <pt x="497" y="1403" on="0"/>
        <pt x="487" y="1401" on="1"/>
        <pt x="180" y="1024" on="1"/>
        <pt x="301" y="1024" on="1"/>
        <pt x="360" y="1024" on="0"/>
        <pt x="442" y="984" on="0"/>
        <pt x="492" y="919" on="0"/>
        <pt x="514" y="835" on="0"/>
        <pt x="514" y="791" on="1"/>
      </contour>
    </TTGlyph>
    <TTGlyph name="L" xMin="82" yMin="-6" xMax="528" yMax="1454">
      <contour>
        <pt x="483" y="41" on="1"/>
        <pt x="492" y="47" on="0"/>
        <pt x="502" y="47" on="1"/>
        <pt x="513" y="47" on="0"/>
        <pt x="528" y="31" on="0"/>
        <pt x="528" y="20" on="1"/>
        <pt x="528" y="9" on="0"/>
        <pt x="513" y="-6" on="0"/>
        <pt x="502" y="-6" on="1"/>
        <pt x="492" y="-6" on="0"/>
        <pt x="483" y="0" on="1"/>
        <pt x="88" y="0" on="1"/>
        <pt x="88" y="1409" on="1"/>
        <pt x="82" y="1418" on="0"/>
        <pt x="82" y="1427" on="1"/>
        <pt x="82" y="1438" on="0"/>
        <pt x="98" y="1454" on="0"/>
        <pt x="109" y="1454" on="1"/>
        <pt x="120" y="1454" on="0"/>
        <pt x="135" y="1438" on="0"/>
        <pt x="135" y="1427" on="1"/>
        <pt x="135" y="1418" on="0"/>
        <pt x="129" y="1409" on="1"/>
        <pt x="129" y="41" on="1"/>
      </contour>
    </TTGlyph>
    <TTGlyph name="M" xMin="82" yMin="-20" xMax="651" yMax="1454">
      <contour>
        <pt x="645" y="23" on="1"/>
        <pt x="651" y="15" on="0"/>
        <pt x="651" y="6" on="1"/>
        <pt x="651" y="-5" on="0"/>
        <pt x="636" y="-20" on="0"/>
        <pt x="625" y="-20" on="1"/>
        <pt x="614" y="-20" on="0"/>
        <pt x="598" y="-5" on="0"/>
        <pt x="598" y="6" on="1"/>
        <pt x="598" y="15" on="0"/>
        <pt x="604" y="23" on="1"/>
        <pt x="604" y="1350" on="1"/>
        <pt x="387" y="983" on="1"/>
        <pt x="344" y="983" on="1"/>
        <pt x="129" y="1348" on="1"/>
        <pt x="129" y="23" on="1"/>
        <pt x="135" y="15" on="0"/>
        <pt x="135" y="6" on="1"/>
        <pt x="135" y="-5" on="0"/>
        <pt x="120" y="-20" on="0"/>
        <pt x="109" y="-20" on="1"/>
        <pt x="98" y="-20" on="0"/>
        <pt x="82" y="-5" on="0"/>
        <pt x="82" y="6" on="1"/>
        <pt x="82" y="15" on="0"/>
        <pt x="88" y="23" on="1"/>
        <pt x="88" y="1409" on="1"/>
        <pt x="82" y="1418" on="0"/>
        <pt x="82" y="1427" on="1"/>
        <pt x="82" y="1438" on="0"/>
        <pt x="98" y="1454" on="0"/>
        <pt x="109" y="1454" on="1"/>
        <pt x="120" y="1454" on="0"/>
        <pt x="135" y="1438" on="0"/>
        <pt x="135" y="1427" on="1"/>
        <pt x="135" y="1421" on="0"/>
        <pt x="133" y="1419" on="1"/>
        <pt x="367" y="1024" on="1"/>
        <pt x="598" y="1419" on="1"/>
        <pt x="598" y="1427" on="1"/>
        <pt x="598" y="1438" on="0"/>
        <pt x="614" y="1454" on="0"/>
        <pt x="625" y="1454" on="1"/>
        <pt x="636" y="1454" on="0"/>
        <pt x="651" y="1438" on="0"/>
        <pt x="651" y="1427" on="1"/>
        <pt x="651" y="1418" on="0"/>
        <pt x="645" y="1409" on="1"/>
      </contour>
    </TTGlyph>
    <TTGlyph name="N" xMin="82" yMin="-20" xMax="520" yMax="1454">
      <contour>
        <pt x="514" y="23" on="1"/>
        <pt x="520" y="15" on="0"/>
        <pt x="520" y="6" on="1"/>
        <pt x="520" y="-5" on="0"/>
        <pt x="505" y="-20" on="0"/>
        <pt x="494" y="-20" on="1"/>
        <pt x="483" y="-20" on="0"/>
        <pt x="467" y="-5" on="0"/>
        <pt x="467" y="6" on="1"/>
        <pt x="467" y="15" on="0"/>
        <pt x="473" y="23" on="1"/>
        <pt x="473" y="1376" on="1"/>
        <pt x="129" y="1010" on="1"/>
        <pt x="129" y="23" on="1"/>
        <pt x="135" y="15" on="0"/>
        <pt x="135" y="6" on="1"/>
        <pt x="135" y="-5" on="0"/>
        <pt x="120" y="-20" on="0"/>
        <pt x="109" y="-20" on="1"/>
        <pt x="98" y="-20" on="0"/>
        <pt x="82" y="-5" on="0"/>
        <pt x="82" y="6" on="1"/>
        <pt x="82" y="15" on="0"/>
        <pt x="88" y="23" on="1"/>
        <pt x="88" y="1409" on="1"/>
        <pt x="82" y="1418" on="0"/>
        <pt x="82" y="1427" on="1"/>
        <pt x="82" y="1438" on="0"/>
        <pt x="98" y="1454" on="0"/>
        <pt x="109" y="1454" on="1"/>
        <pt x="120" y="1454" on="0"/>
        <pt x="135" y="1438" on="0"/>
        <pt x="135" y="1427" on="1"/>
        <pt x="135" y="1418" on="0"/>
        <pt x="129" y="1409" on="1"/>
        <pt x="129" y="1067" on="1"/>
        <pt x="473" y="1434" on="1"/>
        <pt x="514" y="1434" on="1"/>
      </contour>
    </TTGlyph>
    <TTGlyph name="Ntilde" xMin="82" yMin="-20" xMax="520" yMax="1761">
      <component glyphName="N" x="0" y="0" flags="0x204"/>
      <component glyphName="tilde" x="0" y="362" flags="0x4"/>
    </TTGlyph>
    <TTGlyph name="O" xMin="82" yMin="-20" xMax="508" yMax="1454">
      <contour>
        <pt x="123" y="207" on="1"/>
        <pt x="123" y="171" on="0"/>
        <pt x="140" y="104" on="0"/>
        <pt x="180" y="51" on="0"/>
        <pt x="246" y="20" on="0"/>
        <pt x="295" y="20" on="1"/>
        <pt x="344" y="20" on="0"/>
        <pt x="410" y="51" on="0"/>
        <pt x="450" y="104" on="0"/>
        <pt x="467" y="171" on="0"/>
        <pt x="467" y="207" on="1"/>
        <pt x="467" y="1221" on="1"/>
        <pt x="467" y="1256" on="0"/>
        <pt x="450" y="1325" on="0"/>
        <pt x="410" y="1379" on="0"/>
        <pt x="344" y="1413" on="0"/>
        <pt x="295" y="1413" on="1"/>
        <pt x="246" y="1413" on="0"/>
        <pt x="180" y="1379" on="0"/>
        <pt x="140" y="1325" on="0"/>
        <pt x="123" y="1256" on="0"/>
        <pt x="123" y="1221" on="1"/>
      </contour>
      <contour>
        <pt x="508" y="207" on="1"/>
        <pt x="508" y="163" on="0"/>
        <pt x="486" y="81" on="0"/>
        <pt x="436" y="18" on="0"/>
        <pt x="354" y="-20" on="0"/>
        <pt x="295" y="-20" on="1"/>
        <pt x="234" y="-20" on="0"/>
        <pt x="152" y="18" on="0"/>
        <pt x="103" y="81" on="0"/>
        <pt x="82" y="163" on="0"/>
        <pt x="82" y="207" on="1"/>
        <pt x="82" y="1221" on="1"/>
        <pt x="82" y="1264" on="0"/>
        <pt x="103" y="1348" on="0"/>
        <pt x="152" y="1414" on="0"/>
        <pt x="234" y="1454" on="0"/>
        <pt x="295" y="1454" on="1"/>
        <pt x="354" y="1454" on="0"/>
        <pt x="436" y="1414" on="0"/>
        <pt x="486" y="1348" on="0"/>
        <pt x="508" y="1264" on="0"/>
        <pt x="508" y="1221" on="1"/>
      </contour>
    </TTGlyph>
    <TTGlyph name="OE" xMin="82" yMin="-20" xMax="893" yMax="1454">
      <contour>
        <pt x="848" y="41" on="1"/>
        <pt x="857" y="47" on="0"/>
        <pt x="866" y="47" on="1"/>
        <pt x="877" y="47" on="0"/>
        <pt x="893" y="31" on="0"/>
        <pt x="893" y="20" on="1"/>
        <pt x="893" y="9" on="0"/>
        <pt x="877" y="-6" on="0"/>
        <pt x="866" y="-6" on="1"/>
        <pt x="857" y="-6" on="0"/>
        <pt x="848" y="0" on="1"/>
        <pt x="471" y="0" on="1"/>
        <pt x="471" y="63" on="1"/>
        <pt x="466" y="56" on="0"/>
        <pt x="461" y="49" on="1"/>
        <pt x="436" y="18" on="0"/>
        <pt x="354" y="-20" on="0"/>
        <pt x="295" y="-20" on="1"/>
        <pt x="234" y="-20" on="0"/>
        <pt x="152" y="18" on="0"/>
        <pt x="103" y="81" on="0"/>
        <pt x="82" y="163" on="0"/>
        <pt x="82" y="207" on="1"/>
        <pt x="82" y="1221" on="1"/>
        <pt x="82" y="1264" on="0"/>
        <pt x="103" y="1348" on="0"/>
        <pt x="152" y="1414" on="0"/>
        <pt x="234" y="1454" on="0"/>
        <pt x="295" y="1454" on="1"/>
        <pt x="354" y="1454" on="0"/>
        <pt x="436" y="1414" on="0"/>
        <pt x="461" y="1381" on="1"/>
        <pt x="481" y="1354" on="0"/>
        <pt x="490" y="1322" on="1"/>
        <pt x="498" y="1343" on="0"/>
        <pt x="512" y="1361" on="1"/>
        <pt x="537" y="1394" on="0"/>
        <pt x="620" y="1434" on="0"/>
        <pt x="682" y="1434" on="1"/>
        <pt x="848" y="1434" on="1"/>
        <pt x="857" y="1440" on="0"/>
        <pt x="866" y="1440" on="1"/>
        <pt x="877" y="1440" on="0"/>
        <pt x="893" y="1424" on="0"/>
        <pt x="893" y="1413" on="1"/>
        <pt x="893" y="1402" on="0"/>
        <pt x="877" y="1386" on="0"/>
        <pt x="866" y="1386" on="1"/>
        <pt x="858" y="1386" on="0"/>
        <pt x="848" y="1393" on="1"/>
        <pt x="682" y="1393" on="1"/>
        <pt x="631" y="1393" on="0"/>
        <pt x="564" y="1360" on="0"/>
        <pt x="524" y="1306" on="0"/>
        <pt x="508" y="1237" on="0"/>
        <pt x="508" y="1202" on="1"/>
        <pt x="508" y="1024" on="1"/>
        <pt x="789" y="1024" on="1"/>
        <pt x="798" y="1030" on="0"/>
        <pt x="807" y="1030" on="1"/>
        <pt x="818" y="1030" on="0"/>
        <pt x="834" y="1015" on="0"/>
        <pt x="834" y="1004" on="1"/>
        <pt x="834" y="993" on="0"/>
        <pt x="818" y="977" on="0"/>
        <pt x="807" y="977" on="1"/>
        <pt x="798" y="977" on="0"/>
        <pt x="789" y="983" on="1"/>
        <pt x="508" y="983" on="1"/>
        <pt x="508" y="41" on="1"/>
      </contour>
      <contour>
        <pt x="123" y="207" on="1"/>
        <pt x="123" y="171" on="0"/>
        <pt x="140" y="104" on="0"/>
        <pt x="180" y="51" on="0"/>
        <pt x="246" y="20" on="0"/>
        <pt x="295" y="20" on="1"/>
        <pt x="344" y="20" on="0"/>
        <pt x="410" y="51" on="0"/>
        <pt x="450" y="104" on="0"/>
        <pt x="467" y="171" on="0"/>
        <pt x="467" y="207" on="1"/>
        <pt x="467" y="1221" on="1"/>
        <pt x="467" y="1256" on="0"/>
        <pt x="450" y="1325" on="0"/>
        <pt x="410" y="1379" on="0"/>
        <pt x="344" y="1413" on="0"/>
        <pt x="295" y="1413" on="1"/>
        <pt x="246" y="1413" on="0"/>
        <pt x="180" y="1379" on="0"/>
        <pt x="140" y="1325" on="0"/>
        <pt x="123" y="1256" on="0"/>
        <pt x="123" y="1221" on="1"/>
      </contour>
    </TTGlyph>
    <TTGlyph name="Oacute" xMin="82" yMin="-20" xMax="521" yMax="1819">
      <component glyphName="O" x="0" y="0" flags="0x204"/>
      <component glyphName="acute" x="152" y="365" flags="0x4"/>
    </TTGlyph>
    <TTGlyph name="Ocircumflex" xMin="36" yMin="-20" xMax="557" yMax="1819">
      <component glyphName="O" x="0" y="0" flags="0x204"/>
      <component glyphName="circumflex" x="-25" y="365" flags="0x4"/>
    </TTGlyph>
    <TTGlyph name="Odieresis" xMin="82" yMin="-20" xMax="508" yMax="1747">
      <component glyphName="O" x="0" y="0" flags="0x204"/>
      <component glyphName="dieresis" x="41" y="373" flags="0x4"/>
    </TTGlyph>
    <TTGlyph name="Ograve" xMin="82" yMin="-20" xMax="508" yMax="1819">
      <component glyphName="O" x="0" y="0" flags="0x204"/>
      <component glyphName="grave" x="29" y="365" flags="0x4"/>
    </TTGlyph>
    <TTGlyph name="Oslash" xMin="-43" yMin="-115" xMax="639" yMax="1550">
      <contour>
        <pt x="508" y="207" on="1"/>
        <pt x="508" y="163" on="0"/>
        <pt x="486" y="81" on="0"/>
        <pt x="436" y="18" on="0"/>
        <pt x="354" y="-20" on="0"/>
        <pt x="295" y="-20" on="1"/>
        <pt x="234" y="-20" on="0"/>
        <pt x="152" y="18" on="0"/>
        <pt x="103" y="81" on="0"/>
        <pt x="92" y="122" on="1"/>
        <pt x="91" y="128" on="0"/>
        <pt x="89" y="133" on="1"/>
        <pt x="8" y="-76" on="1"/>
        <pt x="10" y="-79" on="0"/>
        <pt x="12" y="-85" on="0"/>
        <pt x="12" y="-90" on="1"/>
        <pt x="10" y="-101" on="0"/>
        <pt x="-7" y="-115" on="0"/>
        <pt x="-18" y="-115" on="1"/>
        <pt x="-29" y="-113" on="0"/>
        <pt x="-43" y="-95" on="0"/>
        <pt x="-41" y="-84" on="1"/>
        <pt x="-38" y="-69" on="0"/>
        <pt x="-25" y="-61" on="1"/>
        <pt x="82" y="214" on="1"/>
        <pt x="82" y="1221" on="1"/>
        <pt x="82" y="1264" on="0"/>
        <pt x="103" y="1348" on="0"/>
        <pt x="152" y="1414" on="0"/>
        <pt x="234" y="1454" on="0"/>
        <pt x="295" y="1454" on="1"/>
        <pt x="354" y="1454" on="0"/>
        <pt x="436" y="1414" on="0"/>
        <pt x="486" y="1348" on="0"/>
        <pt x="497" y="1306" on="1"/>
        <pt x="499" y="1299" on="0"/>
        <pt x="500" y="1292" on="1"/>
        <pt x="586" y="1513" on="1"/>
        <pt x="582" y="1522" on="0"/>
        <pt x="584" y="1526" on="1"/>
        <pt x="586" y="1537" on="0"/>
        <pt x="603" y="1550" on="0"/>
        <pt x="614" y="1548" on="1"/>
        <pt x="625" y="1548" on="0"/>
        <pt x="639" y="1531" on="0"/>
        <pt x="637" y="1520" on="1"/>
        <pt x="634" y="1503" on="0"/>
        <pt x="621" y="1497" on="1"/>
        <pt x="508" y="1207" on="1"/>
      </contour>
      <contour>
        <pt x="467" y="1221" on="1"/>
        <pt x="467" y="1256" on="0"/>
        <pt x="450" y="1325" on="0"/>
        <pt x="410" y="1379" on="0"/>
        <pt x="344" y="1413" on="0"/>
        <pt x="295" y="1413" on="1"/>
        <pt x="246" y="1413" on="0"/>
        <pt x="180" y="1379" on="0"/>
        <pt x="140" y="1325" on="0"/>
        <pt x="123" y="1256" on="0"/>
        <pt x="123" y="1221" on="1"/>
        <pt x="123" y="320" on="1"/>
        <pt x="467" y="1206" on="1"/>
      </contour>
      <contour>
        <pt x="123" y="207" on="1"/>
        <pt x="123" y="171" on="0"/>
        <pt x="140" y="104" on="0"/>
        <pt x="180" y="51" on="0"/>
        <pt x="246" y="20" on="0"/>
        <pt x="295" y="20" on="1"/>
        <pt x="344" y="20" on="0"/>
        <pt x="410" y="51" on="0"/>
        <pt x="450" y="104" on="0"/>
        <pt x="467" y="171" on="0"/>
        <pt x="467" y="207" on="1"/>
        <pt x="467" y="1102" on="1"/>
        <pt x="123" y="219" on="1"/>
      </contour>
    </TTGlyph>
    <TTGlyph name="Otilde" xMin="77" yMin="-20" xMax="515" yMax="1761">
      <component glyphName="O" x="0" y="0" flags="0x204"/>
      <component glyphName="tilde" x="-5" y="362" flags="0x4"/>
    </TTGlyph>
    <TTGlyph name="P" xMin="82" yMin="-20" xMax="520" yMax="1434">
      <contour>
        <pt x="129" y="23" on="1"/>
        <pt x="135" y="15" on="0"/>
        <pt x="135" y="6" on="1"/>
        <pt x="135" y="-5" on="0"/>
        <pt x="120" y="-20" on="0"/>
        <pt x="109" y="-20" on="1"/>
        <pt x="98" y="-20" on="0"/>
        <pt x="82" y="-5" on="0"/>
        <pt x="82" y="6" on="1"/>
        <pt x="82" y="15" on="0"/>
        <pt x="88" y="23" on="1"/>
        <pt x="88" y="1434" on="1"/>
        <pt x="307" y="1434" on="1"/>
        <pt x="368" y="1434" on="0"/>
        <pt x="449" y="1394" on="0"/>
        <pt x="499" y="1328" on="0"/>
        <pt x="520" y="1244" on="0"/>
        <pt x="520" y="1200" on="1"/>
        <pt x="520" y="637" on="1"/>
        <pt x="520" y="593" on="0"/>
        <pt x="499" y="511" on="0"/>
        <pt x="449" y="448" on="0"/>
        <pt x="368" y="410" on="0"/>
        <pt x="307" y="410" on="1"/>
        <pt x="129" y="410" on="1"/>
      </contour>
      <contour>
        <pt x="307" y="451" on="1"/>
        <pt x="356" y="451" on="0"/>
        <pt x="422" y="482" on="0"/>
        <pt x="462" y="534" on="0"/>
        <pt x="479" y="601" on="0"/>
        <pt x="479" y="637" on="1"/>
        <pt x="479" y="1200" on="1"/>
        <pt x="479" y="1235" on="0"/>
        <pt x="462" y="1304" on="0"/>
        <pt x="422" y="1359" on="0"/>
        <pt x="356" y="1393" on="0"/>
        <pt x="307" y="1393" on="1"/>
        <pt x="129" y="1393" on="1"/>
        <pt x="129" y="451" on="1"/>
      </contour>
    </TTGlyph>
    <TTGlyph name="Q" xMin="82" yMin="-20" xMax="530" yMax="1454">
      <contour>
        <pt x="504" y="33" on="1"/>
        <pt x="515" y="33" on="0"/>
        <pt x="530" y="17" on="0"/>
        <pt x="530" y="6" on="1"/>
        <pt x="530" y="-5" on="0"/>
        <pt x="515" y="-20" on="0"/>
        <pt x="504" y="-20" on="1"/>
        <pt x="493" y="-20" on="0"/>
        <pt x="479" y="-7" on="0"/>
        <pt x="477" y="2" on="1"/>
        <pt x="444" y="33" on="1"/>
        <pt x="420" y="8" on="0"/>
        <pt x="346" y="-20" on="0"/>
        <pt x="295" y="-20" on="1"/>
        <pt x="234" y="-20" on="0"/>
        <pt x="152" y="18" on="0"/>
        <pt x="103" y="81" on="0"/>
        <pt x="82" y="163" on="0"/>
        <pt x="82" y="207" on="1"/>
        <pt x="82" y="1221" on="1"/>
        <pt x="82" y="1264" on="0"/>
        <pt x="103" y="1348" on="0"/>
        <pt x="152" y="1414" on="0"/>
        <pt x="234" y="1454" on="0"/>
        <pt x="295" y="1454" on="1"/>
        <pt x="354" y="1454" on="0"/>
        <pt x="436" y="1414" on="0"/>
        <pt x="486" y="1348" on="0"/>
        <pt x="508" y="1264" on="0"/>
        <pt x="508" y="1221" on="1"/>
        <pt x="508" y="207" on="1"/>
        <pt x="508" y="169" on="0"/>
        <pt x="490" y="95" on="0"/>
        <pt x="471" y="66" on="1"/>
      </contour>
      <contour>
        <pt x="440" y="94" on="1"/>
        <pt x="454" y="119" on="0"/>
        <pt x="467" y="176" on="0"/>
        <pt x="467" y="207" on="1"/>
        <pt x="467" y="1221" on="1"/>
        <pt x="467" y="1256" on="0"/>
        <pt x="450" y="1325" on="0"/>
        <pt x="410" y="1379" on="0"/>
        <pt x="344" y="1413" on="0"/>
        <pt x="295" y="1413" on="1"/>
        <pt x="246" y="1413" on="0"/>
        <pt x="180" y="1379" on="0"/>
        <pt x="140" y="1325" on="0"/>
        <pt x="123" y="1256" on="0"/>
        <pt x="123" y="1221" on="1"/>
        <pt x="123" y="207" on="1"/>
        <pt x="123" y="171" on="0"/>
        <pt x="140" y="104" on="0"/>
        <pt x="180" y="51" on="0"/>
        <pt x="246" y="20" on="0"/>
        <pt x="295" y="20" on="1"/>
        <pt x="337" y="20" on="0"/>
        <pt x="396" y="43" on="0"/>
        <pt x="416" y="61" on="1"/>
        <pt x="293" y="186" on="1"/>
        <pt x="282" y="186" on="0"/>
        <pt x="268" y="202" on="0"/>
        <pt x="268" y="213" on="1"/>
        <pt x="268" y="224" on="0"/>
        <pt x="284" y="240" on="0"/>
        <pt x="295" y="240" on="1"/>
        <pt x="304" y="240" on="0"/>
        <pt x="320" y="224" on="0"/>
        <pt x="322" y="215" on="1"/>
      </contour>
    </TTGlyph>
    <TTGlyph name="R" xMin="82" yMin="-23" xMax="520" yMax="1434">
      <contour>
        <pt x="500" y="31" on="1"/>
        <pt x="507" y="29" on="0"/>
        <pt x="514" y="20" on="1"/>
        <pt x="520" y="11" on="0"/>
        <pt x="515" y="-10" on="0"/>
        <pt x="504" y="-16" on="1"/>
        <pt x="496" y="-23" on="0"/>
        <pt x="474" y="-16" on="0"/>
        <pt x="469" y="-8" on="1"/>
        <pt x="466" y="-3" on="0"/>
        <pt x="465" y="5" on="0"/>
        <pt x="465" y="10" on="1"/>
        <pt x="229" y="410" on="1"/>
        <pt x="129" y="410" on="1"/>
        <pt x="129" y="23" on="1"/>
        <pt x="135" y="15" on="0"/>
        <pt x="135" y="6" on="1"/>
        <pt x="135" y="-5" on="0"/>
        <pt x="120" y="-20" on="0"/>
        <pt x="109" y="-20" on="1"/>
        <pt x="98" y="-20" on="0"/>
        <pt x="82" y="-5" on="0"/>
        <pt x="82" y="6" on="1"/>
        <pt x="82" y="15" on="0"/>
        <pt x="88" y="23" on="1"/>
        <pt x="88" y="1434" on="1"/>
        <pt x="307" y="1434" on="1"/>
        <pt x="368" y="1434" on="0"/>
        <pt x="449" y="1394" on="0"/>
        <pt x="499" y="1328" on="0"/>
        <pt x="520" y="1244" on="0"/>
        <pt x="520" y="1200" on="1"/>
        <pt x="520" y="637" on="1"/>
        <pt x="520" y="593" on="0"/>
        <pt x="499" y="511" on="0"/>
        <pt x="449" y="448" on="0"/>
        <pt x="368" y="410" on="0"/>
        <pt x="307" y="410" on="1"/>
        <pt x="276" y="410" on="1"/>
      </contour>
      <contour>
        <pt x="307" y="451" on="1"/>
        <pt x="356" y="451" on="0"/>
        <pt x="422" y="482" on="0"/>
        <pt x="462" y="534" on="0"/>
        <pt x="479" y="601" on="0"/>
        <pt x="479" y="637" on="1"/>
        <pt x="479" y="1200" on="1"/>
        <pt x="479" y="1235" on="0"/>
        <pt x="462" y="1304" on="0"/>
        <pt x="422" y="1359" on="0"/>
        <pt x="356" y="1393" on="0"/>
        <pt x="307" y="1393" on="1"/>
        <pt x="129" y="1393" on="1"/>
        <pt x="129" y="451" on="1"/>
      </contour>
    </TTGlyph>
    <TTGlyph name="S" xMin="51" yMin="-20" xMax="487" yMax="1454">
      <contour>
        <pt x="487" y="207" on="1"/>
        <pt x="487" y="163" on="0"/>
        <pt x="465" y="81" on="0"/>
        <pt x="415" y="18" on="0"/>
        <pt x="333" y="-20" on="0"/>
        <pt x="272" y="-20" on="1"/>
        <pt x="215" y="-20" on="0"/>
        <pt x="137" y="14" on="0"/>
        <pt x="86" y="71" on="0"/>
        <pt x="62" y="147" on="0"/>
        <pt x="59" y="188" on="1"/>
        <pt x="56" y="192" on="0"/>
        <pt x="53" y="202" on="0"/>
        <pt x="53" y="207" on="1"/>
        <pt x="53" y="218" on="0"/>
        <pt x="69" y="233" on="0"/>
        <pt x="80" y="233" on="1"/>
        <pt x="91" y="233" on="0"/>
        <pt x="106" y="218" on="0"/>
        <pt x="106" y="207" on="1"/>
        <pt x="106" y="202" on="0"/>
        <pt x="103" y="192" on="0"/>
        <pt x="100" y="188" on="1"/>
        <pt x="101" y="154" on="0"/>
        <pt x="121" y="93" on="0"/>
        <pt x="162" y="47" on="0"/>
        <pt x="226" y="20" on="0"/>
        <pt x="272" y="20" on="1"/>
        <pt x="321" y="20" on="0"/>
        <pt x="388" y="51" on="0"/>
        <pt x="428" y="104" on="0"/>
        <pt x="446" y="171" on="0"/>
        <pt x="446" y="207" on="1"/>
        <pt x="446" y="463" on="1"/>
        <pt x="446" y="515" on="0"/>
        <pt x="405" y="610" on="0"/>
        <pt x="367" y="645" on="1"/>
        <pt x="127" y="858" on="1"/>
        <pt x="102" y="880" on="0"/>
        <pt x="72" y="927" on="0"/>
        <pt x="56" y="973" on="0"/>
        <pt x="51" y="1020" on="0"/>
        <pt x="51" y="1044" on="1"/>
        <pt x="51" y="1221" on="1"/>
        <pt x="51" y="1264" on="0"/>
        <pt x="73" y="1348" on="0"/>
        <pt x="123" y="1414" on="0"/>
        <pt x="205" y="1454" on="0"/>
        <pt x="266" y="1454" on="1"/>
        <pt x="323" y="1454" on="0"/>
        <pt x="402" y="1418" on="0"/>
        <pt x="452" y="1358" on="0"/>
        <pt x="477" y="1281" on="0"/>
        <pt x="479" y="1239" on="1"/>
        <pt x="482" y="1236" on="0"/>
        <pt x="485" y="1226" on="0"/>
        <pt x="485" y="1221" on="1"/>
        <pt x="485" y="1210" on="0"/>
        <pt x="470" y="1194" on="0"/>
        <pt x="459" y="1194" on="1"/>
        <pt x="448" y="1194" on="0"/>
        <pt x="432" y="1210" on="0"/>
        <pt x="432" y="1221" on="1"/>
        <pt x="432" y="1231" on="0"/>
        <pt x="438" y="1237" on="1"/>
        <pt x="436" y="1270" on="0"/>
        <pt x="417" y="1333" on="0"/>
        <pt x="376" y="1383" on="0"/>
        <pt x="312" y="1413" on="0"/>
        <pt x="266" y="1413" on="1"/>
        <pt x="217" y="1413" on="0"/>
        <pt x="150" y="1379" on="0"/>
        <pt x="110" y="1325" on="0"/>
        <pt x="92" y="1256" on="0"/>
        <pt x="92" y="1221" on="1"/>
        <pt x="92" y="1044" on="1"/>
        <pt x="94" y="993" on="0"/>
        <pt x="121" y="914" on="0"/>
        <pt x="156" y="883" on="1"/>
        <pt x="397" y="670" on="1"/>
        <pt x="451" y="620" on="0"/>
        <pt x="487" y="514" on="0"/>
        <pt x="487" y="463" on="1"/>
      </contour>
    </TTGlyph>
    <TTGlyph name="T" xMin="20" yMin="-20" xMax="459" yMax="1440">
      <contour>
        <pt x="260" y="23" on="1"/>
        <pt x="266" y="15" on="0"/>
        <pt x="266" y="6" on="1"/>
        <pt x="266" y="-5" on="0"/>
        <pt x="251" y="-20" on="0"/>
        <pt x="240" y="-20" on="1"/>
        <pt x="229" y="-20" on="0"/>
        <pt x="213" y="-5" on="0"/>
        <pt x="213" y="6" on="1"/>
        <pt x="213" y="15" on="0"/>
        <pt x="219" y="23" on="1"/>
        <pt x="219" y="1393" on="1"/>
        <pt x="63" y="1393" on="1"/>
        <pt x="56" y="1386" on="0"/>
        <pt x="47" y="1386" on="1"/>
        <pt x="36" y="1386" on="0"/>
        <pt x="20" y="1402" on="0"/>
        <pt x="20" y="1413" on="1"/>
        <pt x="20" y="1424" on="0"/>
        <pt x="36" y="1440" on="0"/>
        <pt x="47" y="1440" on="1"/>
        <pt x="57" y="1440" on="0"/>
        <pt x="63" y="1434" on="1"/>
        <pt x="414" y="1434" on="1"/>
        <pt x="423" y="1440" on="0"/>
        <pt x="432" y="1440" on="1"/>
        <pt x="443" y="1440" on="0"/>
        <pt x="459" y="1424" on="0"/>
        <pt x="459" y="1413" on="1"/>
        <pt x="459" y="1402" on="0"/>
        <pt x="443" y="1386" on="0"/>
        <pt x="432" y="1386" on="1"/>
        <pt x="424" y="1386" on="0"/>
        <pt x="414" y="1393" on="1"/>
        <pt x="260" y="1393" on="1"/>
      </contour>
    </TTGlyph>
    <TTGlyph name="Thorn" xMin="82" yMin="-20" xMax="520" yMax="1454">
      <contour>
        <pt x="129" y="23" on="1"/>
        <pt x="135" y="15" on="0"/>
        <pt x="135" y="6" on="1"/>
        <pt x="135" y="-5" on="0"/>
        <pt x="120" y="-20" on="0"/>
        <pt x="109" y="-20" on="1"/>
        <pt x="98" y="-20" on="0"/>
        <pt x="82" y="-5" on="0"/>
        <pt x="82" y="6" on="1"/>
        <pt x="82" y="15" on="0"/>
        <pt x="88" y="23" on="1"/>
        <pt x="88" y="1409" on="1"/>
        <pt x="82" y="1418" on="0"/>
        <pt x="82" y="1427" on="1"/>
        <pt x="82" y="1438" on="0"/>
        <pt x="98" y="1454" on="0"/>
        <pt x="109" y="1454" on="1"/>
        <pt x="120" y="1454" on="0"/>
        <pt x="135" y="1438" on="0"/>
        <pt x="135" y="1427" on="1"/>
        <pt x="135" y="1418" on="0"/>
        <pt x="129" y="1409" on="1"/>
        <pt x="129" y="1239" on="1"/>
        <pt x="307" y="1239" on="1"/>
        <pt x="368" y="1239" on="0"/>
        <pt x="449" y="1199" on="0"/>
        <pt x="499" y="1133" on="0"/>
        <pt x="520" y="1049" on="0"/>
        <pt x="520" y="1006" on="1"/>
        <pt x="520" y="637" on="1"/>
        <pt x="520" y="593" on="0"/>
        <pt x="499" y="511" on="0"/>
        <pt x="449" y="448" on="0"/>
        <pt x="368" y="410" on="0"/>
        <pt x="307" y="410" on="1"/>
        <pt x="129" y="410" on="1"/>
      </contour>
      <contour>
        <pt x="307" y="451" on="1"/>
        <pt x="356" y="451" on="0"/>
        <pt x="422" y="482" on="0"/>
        <pt x="462" y="534" on="0"/>
        <pt x="479" y="601" on="0"/>
        <pt x="479" y="637" on="1"/>
        <pt x="479" y="1006" on="1"/>
        <pt x="479" y="1041" on="0"/>
        <pt x="462" y="1110" on="0"/>
        <pt x="422" y="1164" on="0"/>
        <pt x="356" y="1198" on="0"/>
        <pt x="307" y="1198" on="1"/>
        <pt x="129" y="1198" on="1"/>
        <pt x="129" y="451" on="1"/>
      </contour>
    </TTGlyph>
    <TTGlyph name="U" xMin="80" yMin="-20" xMax="518" yMax="1454">
      <contour>
        <pt x="512" y="213" on="1"/>
        <pt x="512" y="169" on="0"/>
        <pt x="490" y="85" on="0"/>
        <pt x="440" y="20" on="0"/>
        <pt x="358" y="-20" on="0"/>
        <pt x="299" y="-20" on="1"/>
        <pt x="238" y="-20" on="0"/>
        <pt x="156" y="20" on="0"/>
        <pt x="107" y="85" on="0"/>
        <pt x="86" y="169" on="0"/>
        <pt x="86" y="213" on="1"/>
        <pt x="86" y="1409" on="1"/>
        <pt x="80" y="1418" on="0"/>
        <pt x="80" y="1427" on="1"/>
        <pt x="80" y="1438" on="0"/>
        <pt x="95" y="1454" on="0"/>
        <pt x="106" y="1454" on="1"/>
        <pt x="117" y="1454" on="0"/>
        <pt x="133" y="1438" on="0"/>
        <pt x="133" y="1427" on="1"/>
        <pt x="133" y="1418" on="0"/>
        <pt x="127" y="1409" on="1"/>
        <pt x="127" y="213" on="1"/>
        <pt x="127" y="178" on="0"/>
        <pt x="144" y="109" on="0"/>
        <pt x="184" y="54" on="0"/>
        <pt x="250" y="20" on="0"/>
        <pt x="299" y="20" on="1"/>
        <pt x="348" y="20" on="0"/>
        <pt x="414" y="54" on="0"/>
        <pt x="454" y="109" on="0"/>
        <pt x="471" y="178" on="0"/>
        <pt x="471" y="213" on="1"/>
        <pt x="471" y="1409" on="1"/>
        <pt x="465" y="1418" on="0"/>
        <pt x="465" y="1427" on="1"/>
        <pt x="465" y="1438" on="0"/>
        <pt x="481" y="1454" on="0"/>
        <pt x="492" y="1454" on="1"/>
        <pt x="503" y="1454" on="0"/>
        <pt x="518" y="1438" on="0"/>
        <pt x="518" y="1427" on="1"/>
        <pt x="518" y="1418" on="0"/>
        <pt x="512" y="1409" on="1"/>
      </contour>
    </TTGlyph>
    <TTGlyph name="Uacute" xMin="80" yMin="-20" xMax="518" yMax="1821">
      <component glyphName="U" x="0" y="0" flags="0x204"/>
      <component glyphName="acute" x="135" y="367" flags="0x4"/>
    </TTGlyph>
    <TTGlyph name="Ucircumflex" xMin="40" yMin="-20" xMax="561" yMax="1819">
      <component glyphName="U" x="0" y="0" flags="0x204"/>
      <component glyphName="circumflex" x="-21" y="365" flags="0x4"/>
    </TTGlyph>
    <TTGlyph name="Udieresis" xMin="80" yMin="-20" xMax="518" yMax="1747">
      <component glyphName="U" x="0" y="0" flags="0x204"/>
      <component glyphName="dieresis" x="45" y="373" flags="0x4"/>
    </TTGlyph>
    <TTGlyph name="Ugrave" xMin="80" yMin="-20" xMax="518" yMax="1819">
      <component glyphName="U" x="0" y="0" flags="0x204"/>
      <component glyphName="grave" x="53" y="365" flags="0x4"/>
    </TTGlyph>
    <TTGlyph name="V" xMin="25" yMin="-20" xMax="512" yMax="1454">
      <contour>
        <pt x="291" y="20" on="1"/>
        <pt x="295" y="12" on="0"/>
        <pt x="295" y="6" on="1"/>
        <pt x="295" y="-5" on="0"/>
        <pt x="279" y="-20" on="0"/>
        <pt x="268" y="-20" on="1"/>
        <pt x="257" y="-20" on="0"/>
        <pt x="242" y="-5" on="0"/>
        <pt x="242" y="6" on="1"/>
        <pt x="242" y="9" on="0"/>
        <pt x="243" y="17" on="0"/>
        <pt x="246" y="20" on="1"/>
        <pt x="33" y="1407" on="1"/>
        <pt x="25" y="1415" on="0"/>
        <pt x="25" y="1427" on="1"/>
        <pt x="25" y="1438" on="0"/>
        <pt x="40" y="1454" on="0"/>
        <pt x="51" y="1454" on="1"/>
        <pt x="62" y="1454" on="0"/>
        <pt x="78" y="1438" on="0"/>
        <pt x="78" y="1427" on="1"/>
        <pt x="78" y="1422" on="0"/>
        <pt x="76" y="1416" on="0"/>
        <pt x="74" y="1413" on="1"/>
        <pt x="268" y="145" on="1"/>
        <pt x="463" y="1413" on="1"/>
        <pt x="460" y="1416" on="0"/>
        <pt x="459" y="1422" on="0"/>
        <pt x="459" y="1427" on="1"/>
        <pt x="459" y="1438" on="0"/>
        <pt x="474" y="1454" on="0"/>
        <pt x="485" y="1454" on="1"/>
        <pt x="496" y="1454" on="0"/>
        <pt x="512" y="1438" on="0"/>
        <pt x="512" y="1427" on="1"/>
        <pt x="512" y="1421" on="0"/>
        <pt x="507" y="1412" on="0"/>
        <pt x="504" y="1407" on="1"/>
      </contour>
    </TTGlyph>
    <TTGlyph name="W" xMin="25" yMin="-20" xMax="946" yMax="1454">
      <contour>
        <pt x="725" y="20" on="1"/>
        <pt x="729" y="12" on="0"/>
        <pt x="729" y="6" on="1"/>
        <pt x="729" y="-5" on="0"/>
        <pt x="713" y="-20" on="0"/>
        <pt x="702" y="-20" on="1"/>
        <pt x="691" y="-20" on="0"/>
        <pt x="676" y="-5" on="0"/>
        <pt x="676" y="6" on="1"/>
        <pt x="676" y="9" on="0"/>
        <pt x="677" y="17" on="0"/>
        <pt x="680" y="20" on="1"/>
        <pt x="485" y="1288" on="1"/>
        <pt x="291" y="20" on="1"/>
        <pt x="295" y="12" on="0"/>
        <pt x="295" y="6" on="1"/>
        <pt x="295" y="-5" on="0"/>
        <pt x="279" y="-20" on="0"/>
        <pt x="268" y="-20" on="1"/>
        <pt x="257" y="-20" on="0"/>
        <pt x="242" y="-5" on="0"/>
        <pt x="242" y="6" on="1"/>
        <pt x="242" y="9" on="0"/>
        <pt x="243" y="17" on="0"/>
        <pt x="246" y="20" on="1"/>
        <pt x="33" y="1407" on="1"/>
        <pt x="25" y="1415" on="0"/>
        <pt x="25" y="1427" on="1"/>
        <pt x="25" y="1438" on="0"/>
        <pt x="40" y="1454" on="0"/>
        <pt x="51" y="1454" on="1"/>
        <pt x="62" y="1454" on="0"/>
        <pt x="78" y="1438" on="0"/>
        <pt x="78" y="1427" on="1"/>
        <pt x="78" y="1422" on="0"/>
        <pt x="76" y="1416" on="0"/>
        <pt x="74" y="1413" on="1"/>
        <pt x="268" y="145" on="1"/>
        <pt x="463" y="1413" on="1"/>
        <pt x="460" y="1416" on="0"/>
        <pt x="459" y="1422" on="0"/>
        <pt x="459" y="1427" on="1"/>
        <pt x="459" y="1438" on="0"/>
        <pt x="474" y="1454" on="0"/>
        <pt x="485" y="1454" on="1"/>
        <pt x="496" y="1454" on="0"/>
        <pt x="512" y="1438" on="0"/>
        <pt x="512" y="1427" on="1"/>
        <pt x="512" y="1422" on="0"/>
        <pt x="510" y="1416" on="0"/>
        <pt x="508" y="1413" on="1"/>
        <pt x="702" y="145" on="1"/>
        <pt x="897" y="1413" on="1"/>
        <pt x="894" y="1416" on="0"/>
        <pt x="893" y="1422" on="0"/>
        <pt x="893" y="1427" on="1"/>
        <pt x="893" y="1438" on="0"/>
        <pt x="909" y="1454" on="0"/>
        <pt x="920" y="1454" on="1"/>
        <pt x="931" y="1454" on="0"/>
        <pt x="946" y="1438" on="0"/>
        <pt x="946" y="1427" on="1"/>
        <pt x="946" y="1421" on="0"/>
        <pt x="941" y="1412" on="0"/>
        <pt x="938" y="1407" on="1"/>
      </contour>
    </TTGlyph>
    <TTGlyph name="X" xMin="8" yMin="-20" xMax="506" yMax="1454">
      <contour>
        <pt x="494" y="27" on="1"/>
        <pt x="500" y="24" on="0"/>
        <pt x="506" y="12" on="0"/>
        <pt x="506" y="6" on="1"/>
        <pt x="506" y="-5" on="0"/>
        <pt x="490" y="-20" on="0"/>
        <pt x="479" y="-20" on="1"/>
        <pt x="468" y="-20" on="0"/>
        <pt x="453" y="-5" on="0"/>
        <pt x="453" y="6" on="1"/>
        <pt x="453" y="14" on="1"/>
        <pt x="256" y="668" on="1"/>
        <pt x="59" y="14" on="1"/>
        <pt x="61" y="10" on="0"/>
        <pt x="61" y="6" on="1"/>
        <pt x="61" y="-5" on="0"/>
        <pt x="46" y="-20" on="0"/>
        <pt x="35" y="-20" on="1"/>
        <pt x="24" y="-20" on="0"/>
        <pt x="8" y="-5" on="0"/>
        <pt x="8" y="6" on="1"/>
        <pt x="8" y="20" on="0"/>
        <pt x="18" y="27" on="1"/>
        <pt x="233" y="741" on="1"/>
        <pt x="35" y="1405" on="1"/>
        <pt x="25" y="1415" on="0"/>
        <pt x="25" y="1427" on="1"/>
        <pt x="25" y="1438" on="0"/>
        <pt x="40" y="1454" on="0"/>
        <pt x="51" y="1454" on="1"/>
        <pt x="62" y="1454" on="0"/>
        <pt x="78" y="1438" on="0"/>
        <pt x="78" y="1427" on="1"/>
        <pt x="78" y="1424" on="0"/>
        <pt x="76" y="1419" on="0"/>
        <pt x="76" y="1417" on="1"/>
        <pt x="256" y="815" on="1"/>
        <pt x="438" y="1417" on="1"/>
        <pt x="436" y="1419" on="0"/>
        <pt x="436" y="1427" on="1"/>
        <pt x="436" y="1438" on="0"/>
        <pt x="452" y="1454" on="0"/>
        <pt x="463" y="1454" on="1"/>
        <pt x="474" y="1454" on="0"/>
        <pt x="489" y="1438" on="0"/>
        <pt x="489" y="1427" on="1"/>
        <pt x="489" y="1415" on="0"/>
        <pt x="479" y="1405" on="1"/>
        <pt x="279" y="741" on="1"/>
      </contour>
    </TTGlyph>
    <TTGlyph name="Y" xMin="8" yMin="-20" xMax="496" yMax="1454">
      <contour>
        <pt x="272" y="23" on="1"/>
        <pt x="279" y="14" on="0"/>
        <pt x="279" y="6" on="1"/>
        <pt x="279" y="-5" on="0"/>
        <pt x="263" y="-20" on="0"/>
        <pt x="252" y="-20" on="1"/>
        <pt x="241" y="-20" on="0"/>
        <pt x="225" y="-5" on="0"/>
        <pt x="225" y="6" on="1"/>
        <pt x="225" y="15" on="0"/>
        <pt x="231" y="23" on="1"/>
        <pt x="231" y="1024" on="1"/>
        <pt x="25" y="1403" on="1"/>
        <pt x="8" y="1409" on="0"/>
        <pt x="8" y="1427" on="1"/>
        <pt x="8" y="1438" on="0"/>
        <pt x="24" y="1454" on="0"/>
        <pt x="35" y="1454" on="1"/>
        <pt x="46" y="1454" on="0"/>
        <pt x="61" y="1438" on="0"/>
        <pt x="61" y="1427" on="1"/>
        <pt x="61" y="1421" on="0"/>
        <pt x="59" y="1417" on="1"/>
        <pt x="248" y="1073" on="1"/>
        <pt x="254" y="1073" on="1"/>
        <pt x="442" y="1417" on="1"/>
        <pt x="442" y="1427" on="1"/>
        <pt x="442" y="1438" on="0"/>
        <pt x="458" y="1454" on="0"/>
        <pt x="469" y="1454" on="1"/>
        <pt x="480" y="1454" on="0"/>
        <pt x="496" y="1438" on="0"/>
        <pt x="496" y="1427" on="1"/>
        <pt x="496" y="1418" on="0"/>
        <pt x="485" y="1406" on="0"/>
        <pt x="479" y="1403" on="1"/>
        <pt x="272" y="1024" on="1"/>
      </contour>
    </TTGlyph>
    <TTGlyph name="Yacute" xMin="8" yMin="-20" xMax="496" yMax="1819">
      <component glyphName="Y" x="0" y="0" flags="0x204"/>
      <component glyphName="acute" x="68" y="365" flags="0x4"/>
    </TTGlyph>
    <TTGlyph name="Z" xMin="27" yMin="-6" xMax="461" yMax="1440">
      <contour>
        <pt x="416" y="41" on="1"/>
        <pt x="425" y="47" on="0"/>
        <pt x="434" y="47" on="1"/>
        <pt x="445" y="47" on="0"/>
        <pt x="461" y="31" on="0"/>
        <pt x="461" y="20" on="1"/>
        <pt x="461" y="9" on="0"/>
        <pt x="445" y="-6" on="0"/>
        <pt x="434" y="-6" on="1"/>
        <pt x="425" y="-6" on="0"/>
        <pt x="416" y="0" on="1"/>
        <pt x="27" y="0" on="1"/>
        <pt x="27" y="41" on="1"/>
        <pt x="418" y="1393" on="1"/>
        <pt x="70" y="1393" on="1"/>
        <pt x="63" y="1386" on="0"/>
        <pt x="53" y="1386" on="1"/>
        <pt x="42" y="1386" on="0"/>
        <pt x="27" y="1402" on="0"/>
        <pt x="27" y="1413" on="1"/>
        <pt x="27" y="1424" on="0"/>
        <pt x="42" y="1440" on="0"/>
        <pt x="53" y="1440" on="1"/>
        <pt x="64" y="1440" on="0"/>
        <pt x="70" y="1434" on="1"/>
        <pt x="461" y="1434" on="1"/>
        <pt x="461" y="1393" on="1"/>
        <pt x="70" y="41" on="1"/>
      </contour>
    </TTGlyph>
    <TTGlyph name="a" xMin="55" yMin="-20" xMax="492" yMax="1044">
      <contour>
        <pt x="485" y="23" on="1"/>
        <pt x="492" y="14" on="0"/>
        <pt x="492" y="6" on="1"/>
        <pt x="492" y="-5" on="0"/>
        <pt x="476" y="-20" on="0"/>
        <pt x="465" y="-20" on="1"/>
        <pt x="454" y="-20" on="0"/>
        <pt x="438" y="-5" on="0"/>
        <pt x="438" y="6" on="1"/>
        <pt x="438" y="15" on="0"/>
        <pt x="444" y="23" on="1"/>
        <pt x="444" y="66" on="1"/>
        <pt x="417" y="27" on="0"/>
        <pt x="336" y="-20" on="0"/>
        <pt x="274" y="-20" on="1"/>
        <pt x="214" y="-20" on="0"/>
        <pt x="133" y="21" on="0"/>
        <pt x="84" y="87" on="0"/>
        <pt x="63" y="171" on="0"/>
        <pt x="63" y="215" on="1"/>
        <pt x="63" y="381" on="1"/>
        <pt x="63" y="425" on="0"/>
        <pt x="82" y="509" on="0"/>
        <pt x="137" y="575" on="0"/>
        <pt x="240" y="616" on="0"/>
        <pt x="324" y="616" on="1"/>
        <pt x="444" y="616" on="1"/>
        <pt x="444" y="809" on="1"/>
        <pt x="444" y="844" on="0"/>
        <pt x="427" y="914" on="0"/>
        <pt x="388" y="969" on="0"/>
        <pt x="322" y="1004" on="0"/>
        <pt x="274" y="1004" on="1"/>
        <pt x="228" y="1004" on="0"/>
        <pt x="164" y="973" on="0"/>
        <pt x="123" y="924" on="0"/>
        <pt x="103" y="860" on="0"/>
        <pt x="102" y="827" on="1"/>
        <pt x="109" y="820" on="0"/>
        <pt x="109" y="811" on="1"/>
        <pt x="109" y="802" on="0"/>
        <pt x="93" y="786" on="0"/>
        <pt x="82" y="786" on="1"/>
        <pt x="71" y="786" on="0"/>
        <pt x="55" y="802" on="0"/>
        <pt x="55" y="811" on="1"/>
        <pt x="55" y="816" on="0"/>
        <pt x="58" y="826" on="0"/>
        <pt x="61" y="829" on="1"/>
        <pt x="64" y="871" on="0"/>
        <pt x="88" y="948" on="0"/>
        <pt x="139" y="1008" on="0"/>
        <pt x="217" y="1044" on="0"/>
        <pt x="274" y="1044" on="1"/>
        <pt x="334" y="1044" on="0"/>
        <pt x="415" y="1003" on="0"/>
        <pt x="464" y="937" on="0"/>
        <pt x="485" y="853" on="0"/>
        <pt x="485" y="809" on="1"/>
      </contour>
      <contour>
        <pt x="104" y="215" on="1"/>
        <pt x="104" y="180" on="0"/>
        <pt x="120" y="110" on="0"/>
        <pt x="159" y="54" on="0"/>
        <pt x="224" y="20" on="0"/>
        <pt x="274" y="20" on="1"/>
        <pt x="322" y="20" on="0"/>
        <pt x="386" y="51" on="0"/>
        <pt x="425" y="102" on="0"/>
        <pt x="442" y="167" on="0"/>
        <pt x="444" y="201" on="1"/>
        <pt x="444" y="575" on="1"/>
        <pt x="324" y="575" on="1"/>
        <pt x="252" y="575" on="0"/>
        <pt x="165" y="541" on="0"/>
        <pt x="118" y="486" on="0"/>
        <pt x="104" y="416" on="0"/>
        <pt x="104" y="381" on="1"/>
      </contour>
    </TTGlyph>
    <TTGlyph name="aacute" xMin="55" yMin="-20" xMax="506" yMax="1454">
      <component glyphName="a" x="0" y="0" flags="0x204"/>
      <component glyphName="acute" x="137" y="0" flags="0x4"/>
    </TTGlyph>
    <TTGlyph name="acircumflex" xMin="15" yMin="-20" xMax="536" yMax="1454">
      <component glyphName="a" x="0" y="0" flags="0x204"/>
      <component glyphName="circumflex" x="-46" y="0" flags="0x4"/>
    </TTGlyph>
    <TTGlyph name="acute" xMin="82" yMin="1167" xMax="369" yMax="1454">
      <contour>
        <pt x="135" y="1194" on="1"/>
        <pt x="135" y="1183" on="0"/>
        <pt x="120" y="1167" on="0"/>
        <pt x="109" y="1167" on="1"/>
        <pt x="98" y="1167" on="0"/>
        <pt x="82" y="1183" on="0"/>
        <pt x="82" y="1194" on="1"/>
        <pt x="82" y="1203" on="0"/>
        <pt x="95" y="1219" on="0"/>
        <pt x="106" y="1221" on="1"/>
        <pt x="315" y="1430" on="1"/>
        <pt x="315" y="1439" on="0"/>
        <pt x="331" y="1454" on="0"/>
        <pt x="342" y="1454" on="1"/>
        <pt x="353" y="1454" on="0"/>
        <pt x="369" y="1438" on="0"/>
        <pt x="369" y="1427" on="1"/>
        <pt x="369" y="1416" on="0"/>
        <pt x="353" y="1401" on="0"/>
        <pt x="342" y="1401" on="1"/>
      </contour>
    </TTGlyph>
    <TTGlyph name="adieresis" xMin="55" yMin="-20" xMax="492" yMax="1374">
      <component glyphName="a" x="0" y="0" flags="0x204"/>
      <component glyphName="dieresis" x="18" y="0" flags="0x4"/>
    </TTGlyph>
    <TTGlyph name="ae" xMin="55" yMin="-20" xMax="872" yMax="1044">
      <contour>
        <pt x="866" y="575" on="1"/>
        <pt x="485" y="575" on="1"/>
        <pt x="485" y="215" on="1"/>
        <pt x="485" y="179" on="0"/>
        <pt x="502" y="109" on="0"/>
        <pt x="541" y="54" on="0"/>
        <pt x="607" y="20" on="0"/>
        <pt x="655" y="20" on="1"/>
        <pt x="702" y="20" on="0"/>
        <pt x="766" y="50" on="0"/>
        <pt x="805" y="99" on="0"/>
        <pt x="823" y="163" on="0"/>
        <pt x="825" y="197" on="1"/>
        <pt x="822" y="200" on="0"/>
        <pt x="819" y="210" on="0"/>
        <pt x="819" y="213" on="1"/>
        <pt x="819" y="224" on="0"/>
        <pt x="835" y="240" on="0"/>
        <pt x="846" y="240" on="1"/>
        <pt x="857" y="240" on="0"/>
        <pt x="872" y="224" on="0"/>
        <pt x="872" y="213" on="1"/>
        <pt x="872" y="210" on="0"/>
        <pt x="869" y="200" on="0"/>
        <pt x="866" y="197" on="1"/>
        <pt x="864" y="155" on="0"/>
        <pt x="841" y="77" on="0"/>
        <pt x="792" y="17" on="0"/>
        <pt x="713" y="-20" on="0"/>
        <pt x="655" y="-20" on="1"/>
        <pt x="615" y="-20" on="0"/>
        <pt x="554" y="-2" on="0"/>
        <pt x="507" y="30" on="0"/>
        <pt x="475" y="73" on="0"/>
        <pt x="465" y="98" on="1"/>
        <pt x="442" y="49" on="0"/>
        <pt x="348" y="-20" on="0"/>
        <pt x="274" y="-20" on="1"/>
        <pt x="214" y="-20" on="0"/>
        <pt x="133" y="21" on="0"/>
        <pt x="84" y="87" on="0"/>
        <pt x="63" y="171" on="0"/>
        <pt x="63" y="215" on="1"/>
        <pt x="63" y="381" on="1"/>
        <pt x="63" y="425" on="0"/>
        <pt x="82" y="509" on="0"/>
        <pt x="137" y="575" on="0"/>
        <pt x="240" y="616" on="0"/>
        <pt x="324" y="616" on="1"/>
        <pt x="444" y="616" on="1"/>
        <pt x="444" y="809" on="1"/>
        <pt x="444" y="844" on="0"/>
        <pt x="427" y="914" on="0"/>
        <pt x="388" y="969" on="0"/>
        <pt x="322" y="1004" on="0"/>
        <pt x="274" y="1004" on="1"/>
        <pt x="228" y="1004" on="0"/>
        <pt x="164" y="973" on="0"/>
        <pt x="123" y="924" on="0"/>
        <pt x="103" y="860" on="0"/>
        <pt x="102" y="827" on="1"/>
        <pt x="109" y="820" on="0"/>
        <pt x="109" y="811" on="1"/>
        <pt x="109" y="802" on="0"/>
        <pt x="93" y="786" on="0"/>
        <pt x="82" y="786" on="1"/>
        <pt x="71" y="786" on="0"/>
        <pt x="55" y="802" on="0"/>
        <pt x="55" y="811" on="1"/>
        <pt x="55" y="816" on="0"/>
        <pt x="58" y="826" on="0"/>
        <pt x="61" y="829" on="1"/>
        <pt x="64" y="871" on="0"/>
        <pt x="88" y="948" on="0"/>
        <pt x="139" y="1008" on="0"/>
        <pt x="217" y="1044" on="0"/>
        <pt x="274" y="1044" on="1"/>
        <pt x="353" y="1044" on="0"/>
        <pt x="443" y="976" on="0"/>
        <pt x="465" y="924" on="1"/>
        <pt x="475" y="950" on="0"/>
        <pt x="507" y="994" on="0"/>
        <pt x="554" y="1026" on="0"/>
        <pt x="615" y="1044" on="0"/>
        <pt x="655" y="1044" on="1"/>
        <pt x="715" y="1044" on="0"/>
        <pt x="796" y="1003" on="0"/>
        <pt x="845" y="937" on="0"/>
        <pt x="866" y="853" on="0"/>
        <pt x="866" y="809" on="1"/>
      </contour>
      <contour>
        <pt x="104" y="215" on="1"/>
        <pt x="104" y="180" on="0"/>
        <pt x="120" y="110" on="0"/>
        <pt x="159" y="54" on="0"/>
        <pt x="224" y="20" on="0"/>
        <pt x="274" y="20" on="1"/>
        <pt x="322" y="20" on="0"/>
        <pt x="386" y="51" on="0"/>
        <pt x="425" y="102" on="0"/>
        <pt x="442" y="167" on="0"/>
        <pt x="444" y="201" on="1"/>
        <pt x="444" y="575" on="1"/>
        <pt x="324" y="575" on="1"/>
        <pt x="252" y="575" on="0"/>
        <pt x="165" y="541" on="0"/>
        <pt x="118" y="486" on="0"/>
        <pt x="104" y="416" on="0"/>
        <pt x="104" y="381" on="1"/>
      </contour>
      <contour>
        <pt x="825" y="616" on="1"/>
        <pt x="825" y="809" on="1"/>
        <pt x="825" y="844" on="0"/>
        <pt x="809" y="914" on="0"/>
        <pt x="770" y="969" on="0"/>
        <pt x="704" y="1004" on="0"/>
        <pt x="655" y="1004" on="1"/>
        <pt x="609" y="1004" on="0"/>
        <pt x="545" y="973" on="0"/>
        <pt x="505" y="922" on="0"/>
        <pt x="486" y="857" on="0"/>
        <pt x="485" y="823" on="1"/>
        <pt x="485" y="809" on="1"/>
        <pt x="485" y="616" on="1"/>
      </contour>
    </TTGlyph>
    <TTGlyph name="agrave" xMin="55" yMin="-20" xMax="492" yMax="1454">
      <component glyphName="a" x="0" y="0" flags="0x204"/>
      <component glyphName="grave" x="0" y="0" flags="0x4"/>
    </TTGlyph>
    <TTGlyph name="ampersand" xMin="86" yMin="-20" xMax="614" yMax="1454">
      <contour>
        <pt x="512" y="207" on="1"/>
        <pt x="512" y="163" on="0"/>
        <pt x="490" y="81" on="0"/>
        <pt x="440" y="18" on="0"/>
        <pt x="358" y="-20" on="0"/>
        <pt x="299" y="-20" on="1"/>
        <pt x="238" y="-20" on="0"/>
        <pt x="156" y="18" on="0"/>
        <pt x="107" y="81" on="0"/>
        <pt x="86" y="163" on="0"/>
        <pt x="86" y="207" on="1"/>
        <pt x="86" y="791" on="1"/>
        <pt x="86" y="821" on="0"/>
        <pt x="98" y="884" on="0"/>
        <pt x="125" y="941" on="0"/>
        <pt x="169" y="989" on="0"/>
        <pt x="201" y="1004" on="1"/>
        <pt x="169" y="1018" on="0"/>
        <pt x="125" y="1066" on="0"/>
        <pt x="98" y="1125" on="0"/>
        <pt x="86" y="1194" on="0"/>
        <pt x="86" y="1229" on="1"/>
        <pt x="86" y="1271" on="0"/>
        <pt x="107" y="1352" on="0"/>
        <pt x="156" y="1415" on="0"/>
        <pt x="238" y="1454" on="0"/>
        <pt x="299" y="1454" on="1"/>
        <pt x="357" y="1454" on="0"/>
        <pt x="436" y="1420" on="0"/>
        <pt x="486" y="1363" on="0"/>
        <pt x="510" y="1287" on="0"/>
        <pt x="512" y="1245" on="1"/>
        <pt x="515" y="1242" on="0"/>
        <pt x="520" y="1232" on="0"/>
        <pt x="520" y="1227" on="1"/>
        <pt x="520" y="1216" on="0"/>
        <pt x="505" y="1200" on="0"/>
        <pt x="494" y="1200" on="1"/>
        <pt x="483" y="1200" on="0"/>
        <pt x="467" y="1216" on="0"/>
        <pt x="467" y="1227" on="1"/>
        <pt x="467" y="1230" on="0"/>
        <pt x="468" y="1237" on="0"/>
        <pt x="471" y="1241" on="1"/>
        <pt x="469" y="1273" on="0"/>
        <pt x="450" y="1335" on="0"/>
        <pt x="409" y="1383" on="0"/>
        <pt x="345" y="1413" on="0"/>
        <pt x="299" y="1413" on="1"/>
        <pt x="251" y="1413" on="0"/>
        <pt x="185" y="1381" on="0"/>
        <pt x="144" y="1329" on="0"/>
        <pt x="127" y="1263" on="0"/>
        <pt x="127" y="1229" on="1"/>
        <pt x="127" y="1191" on="0"/>
        <pt x="144" y="1118" on="0"/>
        <pt x="185" y="1060" on="0"/>
        <pt x="218" y="1042" on="1"/>
        <pt x="249" y="1025" on="0"/>
        <pt x="295" y="1024" on="1"/>
        <pt x="343" y="1024" on="1"/>
        <pt x="343" y="983" on="1"/>
        <pt x="294" y="983" on="1"/>
        <pt x="248" y="982" on="0"/>
        <pt x="217" y="964" on="1"/>
        <pt x="184" y="946" on="0"/>
        <pt x="144" y="890" on="0"/>
        <pt x="127" y="822" on="0"/>
        <pt x="127" y="791" on="1"/>
        <pt x="127" y="207" on="1"/>
        <pt x="127" y="171" on="0"/>
        <pt x="144" y="104" on="0"/>
        <pt x="184" y="51" on="0"/>
        <pt x="250" y="20" on="0"/>
        <pt x="299" y="20" on="1"/>
        <pt x="348" y="20" on="0"/>
        <pt x="414" y="51" on="0"/>
        <pt x="454" y="104" on="0"/>
        <pt x="471" y="171" on="0"/>
        <pt x="471" y="207" on="1"/>
        <pt x="471" y="401" on="1"/>
        <pt x="342" y="401" on="1"/>
        <pt x="336" y="395" on="0"/>
        <pt x="326" y="395" on="1"/>
        <pt x="315" y="395" on="0"/>
        <pt x="299" y="411" on="0"/>
        <pt x="299" y="422" on="1"/>
        <pt x="299" y="433" on="0"/>
        <pt x="315" y="449" on="0"/>
        <pt x="326" y="449" on="1"/>
        <pt x="335" y="449" on="0"/>
        <pt x="342" y="442" on="1"/>
        <pt x="569" y="442" on="1"/>
        <pt x="579" y="449" on="0"/>
        <pt x="588" y="449" on="1"/>
        <pt x="599" y="449" on="0"/>
        <pt x="614" y="433" on="0"/>
        <pt x="614" y="422" on="1"/>
        <pt x="614" y="411" on="0"/>
        <pt x="599" y="395" on="0"/>
        <pt x="588" y="395" on="1"/>
        <pt x="578" y="395" on="0"/>
        <pt x="569" y="401" on="1"/>
        <pt x="512" y="401" on="1"/>
      </contour>
    </TTGlyph>
    <TTGlyph name="ampersand.alt" xMin="76" yMin="-20" xMax="641" yMax="1440">
      <contour>
        <pt x="610" y="31" on="1"/>
        <pt x="618" y="28" on="0"/>
        <pt x="627" y="14" on="0"/>
        <pt x="627" y="6" on="1"/>
        <pt x="627" y="-5" on="0"/>
        <pt x="611" y="-20" on="0"/>
        <pt x="600" y="-20" on="1"/>
        <pt x="589" y="-20" on="0"/>
        <pt x="573" y="-5" on="0"/>
        <pt x="573" y="6" on="1"/>
        <pt x="573" y="14" on="0"/>
        <pt x="575" y="16" on="1"/>
        <pt x="502" y="178" on="1"/>
        <pt x="499" y="138" on="0"/>
        <pt x="473" y="66" on="0"/>
        <pt x="423" y="12" on="0"/>
        <pt x="345" y="-20" on="0"/>
        <pt x="291" y="-20" on="1"/>
        <pt x="230" y="-20" on="0"/>
        <pt x="148" y="18" on="0"/>
        <pt x="99" y="81" on="0"/>
        <pt x="78" y="163" on="0"/>
        <pt x="78" y="207" on="1"/>
        <pt x="78" y="811" on="1"/>
        <pt x="78" y="857" on="0"/>
        <pt x="102" y="947" on="0"/>
        <pt x="133" y="981" on="1"/>
        <pt x="116" y="1018" on="0"/>
        <pt x="94" y="1075" on="0"/>
        <pt x="81" y="1126" on="0"/>
        <pt x="76" y="1177" on="0"/>
        <pt x="76" y="1208" on="1"/>
        <pt x="76" y="1250" on="0"/>
        <pt x="97" y="1332" on="0"/>
        <pt x="146" y="1395" on="0"/>
        <pt x="228" y="1434" on="0"/>
        <pt x="289" y="1434" on="1"/>
        <pt x="442" y="1434" on="1"/>
        <pt x="452" y="1440" on="0"/>
        <pt x="461" y="1440" on="1"/>
        <pt x="472" y="1440" on="0"/>
        <pt x="487" y="1424" on="0"/>
        <pt x="487" y="1413" on="1"/>
        <pt x="487" y="1402" on="0"/>
        <pt x="472" y="1386" on="0"/>
        <pt x="461" y="1386" on="1"/>
        <pt x="454" y="1386" on="0"/>
        <pt x="442" y="1393" on="1"/>
        <pt x="289" y="1393" on="1"/>
        <pt x="241" y="1393" on="0"/>
        <pt x="175" y="1360" on="0"/>
        <pt x="134" y="1308" on="0"/>
        <pt x="117" y="1242" on="0"/>
        <pt x="117" y="1208" on="1"/>
        <pt x="117" y="1184" on="0"/>
        <pt x="121" y="1140" on="0"/>
        <pt x="133" y="1090" on="0"/>
        <pt x="156" y="1029" on="0"/>
        <pt x="174" y="989" on="1"/>
        <pt x="463" y="354" on="1"/>
        <pt x="463" y="1024" on="1"/>
        <pt x="598" y="1024" on="1"/>
        <pt x="604" y="1030" on="0"/>
        <pt x="614" y="1030" on="1"/>
        <pt x="625" y="1030" on="0"/>
        <pt x="641" y="1015" on="0"/>
        <pt x="641" y="1006" on="1"/>
        <pt x="641" y="995" on="0"/>
        <pt x="625" y="979" on="0"/>
        <pt x="614" y="979" on="1"/>
        <pt x="609" y="979" on="0"/>
        <pt x="599" y="982" on="0"/>
        <pt x="596" y="985" on="1"/>
        <pt x="504" y="985" on="1"/>
        <pt x="504" y="264" on="1"/>
      </contour>
      <contour>
        <pt x="463" y="264" on="1"/>
        <pt x="152" y="938" on="1"/>
        <pt x="133" y="912" on="0"/>
        <pt x="119" y="845" on="0"/>
        <pt x="119" y="811" on="1"/>
        <pt x="119" y="207" on="1"/>
        <pt x="119" y="171" on="0"/>
        <pt x="136" y="104" on="0"/>
        <pt x="176" y="51" on="0"/>
        <pt x="242" y="20" on="0"/>
        <pt x="291" y="20" on="1"/>
        <pt x="340" y="20" on="0"/>
        <pt x="406" y="51" on="0"/>
        <pt x="446" y="104" on="0"/>
        <pt x="463" y="171" on="0"/>
        <pt x="463" y="207" on="1"/>
      </contour>
    </TTGlyph>
    <TTGlyph name="aring" xMin="55" yMin="-20" xMax="492" yMax="1454">
      <component glyphName="a" x="0" y="0" flags="0x204"/>
      <component glyphName="ring" x="53" y="0" flags="0x4"/>
    </TTGlyph>
    <TTGlyph name="asciicircum" xMin="102" yMin="508" xMax="496" yMax="1454">
      <contour>
        <pt x="489" y="551" on="1"/>
        <pt x="496" y="545" on="0"/>
        <pt x="496" y="535" on="1"/>
        <pt x="496" y="524" on="0"/>
        <pt x="483" y="508" on="0"/>
        <pt x="469" y="508" on="1"/>
        <pt x="455" y="508" on="0"/>
        <pt x="442" y="524" on="0"/>
        <pt x="442" y="535" on="1"/>
        <pt x="442" y="539" on="0"/>
        <pt x="446" y="547" on="1"/>
        <pt x="305" y="1313" on="1"/>
        <pt x="152" y="549" on="1"/>
        <pt x="156" y="541" on="0"/>
        <pt x="156" y="535" on="1"/>
        <pt x="156" y="524" on="0"/>
        <pt x="140" y="508" on="0"/>
        <pt x="129" y="508" on="1"/>
        <pt x="118" y="508" on="0"/>
        <pt x="102" y="524" on="0"/>
        <pt x="102" y="535" on="1"/>
        <pt x="102" y="541" on="0"/>
        <pt x="106" y="552" on="0"/>
        <pt x="111" y="555" on="1"/>
        <pt x="283" y="1413" on="1"/>
        <pt x="281" y="1416" on="0"/>
        <pt x="281" y="1424" on="0"/>
        <pt x="281" y="1427" on="1"/>
        <pt x="281" y="1438" on="0"/>
        <pt x="296" y="1454" on="0"/>
        <pt x="307" y="1454" on="1"/>
        <pt x="318" y="1454" on="0"/>
        <pt x="334" y="1438" on="0"/>
        <pt x="334" y="1427" on="1"/>
        <pt x="334" y="1422" on="0"/>
        <pt x="332" y="1416" on="0"/>
        <pt x="330" y="1413" on="1"/>
      </contour>
    </TTGlyph>
    <TTGlyph name="asciitilde" xMin="71" yMin="619" xMax="509" yMax="793">
      <component glyphName="tilde" x="-11" y="-606" flags="0x4"/>
    </TTGlyph>
    <TTGlyph name="asterisk" xMin="59" yMin="940" xMax="610" yMax="1466">
      <contour>
        <pt x="492" y="993" on="1"/>
        <pt x="501" y="991" on="0"/>
        <pt x="514" y="976" on="0"/>
        <pt x="514" y="967" on="1"/>
        <pt x="514" y="956" on="0"/>
        <pt x="498" y="940" on="0"/>
        <pt x="487" y="940" on="1"/>
        <pt x="476" y="940" on="0"/>
        <pt x="461" y="956" on="0"/>
        <pt x="461" y="967" on="1"/>
        <pt x="332" y="1141" on="1"/>
        <pt x="207" y="971" on="1"/>
        <pt x="207" y="967" on="1"/>
        <pt x="207" y="956" on="0"/>
        <pt x="191" y="940" on="0"/>
        <pt x="180" y="940" on="1"/>
        <pt x="169" y="940" on="0"/>
        <pt x="154" y="956" on="0"/>
        <pt x="154" y="967" on="1"/>
        <pt x="154" y="976" on="0"/>
        <pt x="164" y="989" on="0"/>
        <pt x="172" y="991" on="1"/>
        <pt x="299" y="1165" on="1"/>
        <pt x="96" y="1235" on="1"/>
        <pt x="93" y="1233" on="0"/>
        <pt x="88" y="1233" on="0"/>
        <pt x="86" y="1233" on="1"/>
        <pt x="75" y="1233" on="0"/>
        <pt x="59" y="1249" on="0"/>
        <pt x="59" y="1260" on="1"/>
        <pt x="59" y="1271" on="0"/>
        <pt x="75" y="1286" on="0"/>
        <pt x="86" y="1286" on="1"/>
        <pt x="92" y="1286" on="0"/>
        <pt x="104" y="1279" on="0"/>
        <pt x="109" y="1274" on="1"/>
        <pt x="313" y="1206" on="1"/>
        <pt x="313" y="1421" on="1"/>
        <pt x="307" y="1430" on="0"/>
        <pt x="307" y="1440" on="1"/>
        <pt x="307" y="1451" on="0"/>
        <pt x="323" y="1466" on="0"/>
        <pt x="334" y="1466" on="1"/>
        <pt x="345" y="1466" on="0"/>
        <pt x="360" y="1451" on="0"/>
        <pt x="360" y="1440" on="1"/>
        <pt x="360" y="1430" on="0"/>
        <pt x="354" y="1421" on="1"/>
        <pt x="354" y="1206" on="1"/>
        <pt x="559" y="1272" on="1"/>
        <pt x="569" y="1286" on="0"/>
        <pt x="584" y="1286" on="1"/>
        <pt x="595" y="1286" on="0"/>
        <pt x="610" y="1271" on="0"/>
        <pt x="610" y="1260" on="1"/>
        <pt x="610" y="1249" on="0"/>
        <pt x="595" y="1233" on="0"/>
        <pt x="584" y="1233" on="1"/>
        <pt x="575" y="1233" on="1"/>
        <pt x="369" y="1165" on="1"/>
      </contour>
    </TTGlyph>
    <TTGlyph name="at" xMin="82" yMin="-205" xMax="868" yMax="1249">
      <contour>
        <pt x="868" y="61" on="1"/>
        <pt x="852" y="61" on="1"/>
        <pt x="774" y="61" on="0"/>
        <pt x="682" y="129" on="0"/>
        <pt x="662" y="180" on="1"/>
        <pt x="647" y="142" on="0"/>
        <pt x="600" y="96" on="0"/>
        <pt x="548" y="70" on="0"/>
        <pt x="494" y="61" on="0"/>
        <pt x="471" y="61" on="1"/>
        <pt x="410" y="61" on="0"/>
        <pt x="329" y="102" on="0"/>
        <pt x="280" y="168" on="0"/>
        <pt x="260" y="253" on="0"/>
        <pt x="260" y="297" on="1"/>
        <pt x="260" y="727" on="1"/>
        <pt x="260" y="771" on="0"/>
        <pt x="280" y="856" on="0"/>
        <pt x="329" y="922" on="0"/>
        <pt x="410" y="963" on="0"/>
        <pt x="471" y="963" on="1"/>
        <pt x="533" y="963" on="0"/>
        <pt x="613" y="915" on="0"/>
        <pt x="641" y="877" on="1"/>
        <pt x="641" y="918" on="1"/>
        <pt x="635" y="927" on="0"/>
        <pt x="635" y="936" on="1"/>
        <pt x="635" y="947" on="0"/>
        <pt x="651" y="963" on="0"/>
        <pt x="662" y="963" on="1"/>
        <pt x="673" y="963" on="0"/>
        <pt x="688" y="947" on="0"/>
        <pt x="688" y="936" on="1"/>
        <pt x="688" y="927" on="0"/>
        <pt x="682" y="918" on="1"/>
        <pt x="682" y="303" on="1"/>
        <pt x="682" y="297" on="1"/>
        <pt x="682" y="263" on="0"/>
        <pt x="696" y="198" on="0"/>
        <pt x="729" y="144" on="0"/>
        <pt x="785" y="108" on="0"/>
        <pt x="827" y="104" on="1"/>
        <pt x="827" y="817" on="1"/>
        <pt x="827" y="888" on="0"/>
        <pt x="792" y="1028" on="0"/>
        <pt x="710" y="1139" on="0"/>
        <pt x="574" y="1208" on="0"/>
        <pt x="473" y="1208" on="1"/>
        <pt x="373" y="1208" on="0"/>
        <pt x="239" y="1139" on="0"/>
        <pt x="158" y="1028" on="0"/>
        <pt x="123" y="888" on="0"/>
        <pt x="123" y="817" on="1"/>
        <pt x="123" y="227" on="1"/>
        <pt x="123" y="156" on="0"/>
        <pt x="158" y="17" on="0"/>
        <pt x="239" y="-95" on="0"/>
        <pt x="373" y="-164" on="0"/>
        <pt x="473" y="-164" on="1"/>
        <pt x="473" y="-205" on="1"/>
        <pt x="361" y="-205" on="0"/>
        <pt x="211" y="-131" on="0"/>
        <pt x="120" y="-10" on="0"/>
        <pt x="82" y="144" on="0"/>
        <pt x="82" y="225" on="1"/>
        <pt x="82" y="819" on="1"/>
        <pt x="82" y="900" on="0"/>
        <pt x="121" y="1054" on="0"/>
        <pt x="212" y="1175" on="0"/>
        <pt x="363" y="1249" on="0"/>
        <pt x="475" y="1249" on="1"/>
        <pt x="584" y="1249" on="0"/>
        <pt x="734" y="1175" on="0"/>
        <pt x="827" y="1054" on="0"/>
        <pt x="868" y="900" on="0"/>
        <pt x="868" y="819" on="1"/>
      </contour>
      <contour>
        <pt x="301" y="297" on="1"/>
        <pt x="301" y="262" on="0"/>
        <pt x="317" y="192" on="0"/>
        <pt x="356" y="136" on="0"/>
        <pt x="421" y="102" on="0"/>
        <pt x="471" y="102" on="1"/>
        <pt x="519" y="102" on="0"/>
        <pt x="584" y="135" on="0"/>
        <pt x="624" y="189" on="0"/>
        <pt x="641" y="259" on="0"/>
        <pt x="641" y="297" on="1"/>
        <pt x="641" y="727" on="1"/>
        <pt x="641" y="762" on="0"/>
        <pt x="620" y="832" on="0"/>
        <pt x="578" y="887" on="0"/>
        <pt x="514" y="922" on="0"/>
        <pt x="471" y="922" on="1"/>
        <pt x="421" y="922" on="0"/>
        <pt x="356" y="887" on="0"/>
        <pt x="317" y="832" on="0"/>
        <pt x="301" y="762" on="0"/>
        <pt x="301" y="727" on="1"/>
      </contour>
    </TTGlyph>
    <TTGlyph name="atilde" xMin="55" yMin="-20" xMax="506" yMax="1399">
      <component glyphName="a" x="0" y="0" flags="0x204"/>
      <component glyphName="tilde" x="-14" y="0" flags="0x4"/>
    </TTGlyph>
    <TTGlyph name="b" xMin="76" yMin="-20" xMax="504" yMax="1454">
      <contour>
        <pt x="504" y="215" on="1"/>
        <pt x="504" y="171" on="0"/>
        <pt x="484" y="87" on="0"/>
        <pt x="435" y="21" on="0"/>
        <pt x="354" y="-20" on="0"/>
        <pt x="293" y="-20" on="1"/>
        <pt x="231" y="-20" on="0"/>
        <pt x="151" y="27" on="0"/>
        <pt x="123" y="66" on="1"/>
        <pt x="123" y="23" on="1"/>
        <pt x="129" y="15" on="0"/>
        <pt x="129" y="6" on="1"/>
        <pt x="129" y="-5" on="0"/>
        <pt x="113" y="-20" on="0"/>
        <pt x="102" y="-20" on="1"/>
        <pt x="91" y="-20" on="0"/>
        <pt x="76" y="-5" on="0"/>
        <pt x="76" y="6" on="1"/>
        <pt x="76" y="15" on="0"/>
        <pt x="82" y="23" on="1"/>
        <pt x="82" y="1409" on="1"/>
        <pt x="76" y="1418" on="0"/>
        <pt x="76" y="1427" on="1"/>
        <pt x="76" y="1438" on="0"/>
        <pt x="91" y="1454" on="0"/>
        <pt x="102" y="1454" on="1"/>
        <pt x="113" y="1454" on="0"/>
        <pt x="129" y="1438" on="0"/>
        <pt x="129" y="1427" on="1"/>
        <pt x="129" y="1418" on="0"/>
        <pt x="123" y="1409" on="1"/>
        <pt x="123" y="949" on="1"/>
        <pt x="151" y="997" on="0"/>
        <pt x="231" y="1044" on="0"/>
        <pt x="293" y="1044" on="1"/>
        <pt x="354" y="1044" on="0"/>
        <pt x="435" y="1003" on="0"/>
        <pt x="484" y="937" on="0"/>
        <pt x="504" y="853" on="0"/>
        <pt x="504" y="809" on="1"/>
      </contour>
      <contour>
        <pt x="123" y="215" on="1"/>
        <pt x="123" y="181" on="0"/>
        <pt x="140" y="112" on="0"/>
        <pt x="180" y="56" on="0"/>
        <pt x="245" y="20" on="0"/>
        <pt x="293" y="20" on="1"/>
        <pt x="343" y="20" on="0"/>
        <pt x="408" y="54" on="0"/>
        <pt x="447" y="110" on="0"/>
        <pt x="463" y="180" on="0"/>
        <pt x="463" y="215" on="1"/>
        <pt x="463" y="809" on="1"/>
        <pt x="463" y="844" on="0"/>
        <pt x="447" y="914" on="0"/>
        <pt x="408" y="969" on="0"/>
        <pt x="343" y="1004" on="0"/>
        <pt x="293" y="1004" on="1"/>
        <pt x="250" y="1004" on="0"/>
        <pt x="186" y="969" on="0"/>
        <pt x="144" y="914" on="0"/>
        <pt x="123" y="844" on="0"/>
        <pt x="123" y="809" on="1"/>
      </contour>
    </TTGlyph>
    <TTGlyph name="backslash" xMin="47" yMin="-221" xMax="526" yMax="1454">
      <component glyphName="slash" x="573" y="0" scalex="-0.999877929688" scaley="1.0" flags="0x4"/>
    </TTGlyph>
    <TTGlyph name="bar" xMin="96" yMin="-172" xMax="150" yMax="1604">
      <contour>
        <pt x="143" y="-127" on="1"/>
        <pt x="150" y="-138" on="0"/>
        <pt x="150" y="-145" on="1"/>
        <pt x="150" y="-156" on="0"/>
        <pt x="134" y="-172" on="0"/>
        <pt x="123" y="-172" on="1"/>
        <pt x="112" y="-172" on="0"/>
        <pt x="96" y="-156" on="0"/>
        <pt x="96" y="-145" on="1"/>
        <pt x="96" y="-136" on="0"/>
        <pt x="102" y="-127" on="1"/>
        <pt x="102" y="1559" on="1"/>
        <pt x="96" y="1568" on="0"/>
        <pt x="96" y="1577" on="1"/>
        <pt x="96" y="1588" on="0"/>
        <pt x="112" y="1604" on="0"/>
        <pt x="123" y="1604" on="1"/>
        <pt x="134" y="1604" on="0"/>
        <pt x="150" y="1588" on="0"/>
        <pt x="150" y="1577" on="1"/>
        <pt x="150" y="1569" on="0"/>
        <pt x="143" y="1559" on="1"/>
      </contour>
    </TTGlyph>
    <TTGlyph name="braceleft" xMin="2" yMin="-170" xMax="430" yMax="1604">
      <contour>
        <pt x="231" y="80" on="1"/>
        <pt x="231" y="45" on="0"/>
        <pt x="247" y="-25" on="0"/>
        <pt x="283" y="-82" on="0"/>
        <pt x="342" y="-120" on="0"/>
        <pt x="385" y="-123" on="1"/>
        <pt x="391" y="-117" on="0"/>
        <pt x="403" y="-117" on="1"/>
        <pt x="414" y="-117" on="0"/>
        <pt x="430" y="-132" on="0"/>
        <pt x="430" y="-143" on="1"/>
        <pt x="430" y="-154" on="0"/>
        <pt x="414" y="-170" on="0"/>
        <pt x="403" y="-170" on="1"/>
        <pt x="393" y="-170" on="0"/>
        <pt x="385" y="-162" on="1"/>
        <pt x="331" y="-159" on="0"/>
        <pt x="256" y="-115" on="0"/>
        <pt x="210" y="-47" on="0"/>
        <pt x="190" y="37" on="0"/>
        <pt x="190" y="80" on="1"/>
        <pt x="190" y="504" on="1"/>
        <pt x="190" y="539" on="0"/>
        <pt x="172" y="608" on="0"/>
        <pt x="129" y="662" on="0"/>
        <pt x="56" y="696" on="0"/>
        <pt x="2" y="696" on="1"/>
        <pt x="2" y="737" on="1"/>
        <pt x="56" y="737" on="0"/>
        <pt x="129" y="771" on="0"/>
        <pt x="172" y="826" on="0"/>
        <pt x="190" y="895" on="0"/>
        <pt x="190" y="930" on="1"/>
        <pt x="190" y="1354" on="1"/>
        <pt x="190" y="1397" on="0"/>
        <pt x="210" y="1480" on="0"/>
        <pt x="256" y="1548" on="0"/>
        <pt x="331" y="1592" on="0"/>
        <pt x="385" y="1595" on="1"/>
        <pt x="388" y="1598" on="0"/>
        <pt x="397" y="1604" on="0"/>
        <pt x="403" y="1604" on="1"/>
        <pt x="414" y="1604" on="0"/>
        <pt x="430" y="1588" on="0"/>
        <pt x="430" y="1577" on="1"/>
        <pt x="430" y="1566" on="0"/>
        <pt x="414" y="1550" on="0"/>
        <pt x="403" y="1550" on="1"/>
        <pt x="391" y="1550" on="0"/>
        <pt x="385" y="1556" on="1"/>
        <pt x="342" y="1553" on="0"/>
        <pt x="283" y="1516" on="0"/>
        <pt x="247" y="1459" on="0"/>
        <pt x="231" y="1389" on="0"/>
        <pt x="231" y="1354" on="1"/>
        <pt x="231" y="930" on="1"/>
        <pt x="231" y="896" on="0"/>
        <pt x="219" y="832" on="0"/>
        <pt x="191" y="776" on="0"/>
        <pt x="146" y="731" on="0"/>
        <pt x="113" y="717" on="1"/>
        <pt x="146" y="703" on="0"/>
        <pt x="191" y="658" on="0"/>
        <pt x="219" y="602" on="0"/>
        <pt x="231" y="538" on="0"/>
        <pt x="231" y="504" on="1"/>
      </contour>
    </TTGlyph>
    <TTGlyph name="braceright" xMin="20" yMin="-170" xMax="448" yMax="1604">
      <contour>
        <pt x="219" y="504" on="1"/>
        <pt x="219" y="538" on="0"/>
        <pt x="231" y="602" on="0"/>
        <pt x="259" y="658" on="0"/>
        <pt x="304" y="703" on="0"/>
        <pt x="337" y="717" on="1"/>
        <pt x="304" y="731" on="0"/>
        <pt x="259" y="776" on="0"/>
        <pt x="231" y="832" on="0"/>
        <pt x="219" y="896" on="0"/>
        <pt x="219" y="930" on="1"/>
        <pt x="219" y="1354" on="1"/>
        <pt x="219" y="1389" on="0"/>
        <pt x="203" y="1459" on="0"/>
        <pt x="167" y="1516" on="0"/>
        <pt x="108" y="1553" on="0"/>
        <pt x="65" y="1556" on="1"/>
        <pt x="59" y="1550" on="0"/>
        <pt x="47" y="1550" on="1"/>
        <pt x="36" y="1550" on="0"/>
        <pt x="20" y="1566" on="0"/>
        <pt x="20" y="1577" on="1"/>
        <pt x="20" y="1588" on="0"/>
        <pt x="36" y="1604" on="0"/>
        <pt x="47" y="1604" on="1"/>
        <pt x="53" y="1604" on="0"/>
        <pt x="62" y="1598" on="0"/>
        <pt x="65" y="1595" on="1"/>
        <pt x="119" y="1592" on="0"/>
        <pt x="194" y="1548" on="0"/>
        <pt x="240" y="1480" on="0"/>
        <pt x="260" y="1397" on="0"/>
        <pt x="260" y="1354" on="1"/>
        <pt x="260" y="930" on="1"/>
        <pt x="260" y="895" on="0"/>
        <pt x="278" y="826" on="0"/>
        <pt x="321" y="771" on="0"/>
        <pt x="394" y="737" on="0"/>
        <pt x="448" y="737" on="1"/>
        <pt x="448" y="696" on="1"/>
        <pt x="394" y="696" on="0"/>
        <pt x="321" y="662" on="0"/>
        <pt x="278" y="608" on="0"/>
        <pt x="260" y="539" on="0"/>
        <pt x="260" y="504" on="1"/>
        <pt x="260" y="80" on="1"/>
        <pt x="260" y="37" on="0"/>
        <pt x="240" y="-47" on="0"/>
        <pt x="194" y="-115" on="0"/>
        <pt x="119" y="-159" on="0"/>
        <pt x="65" y="-162" on="1"/>
        <pt x="57" y="-170" on="0"/>
        <pt x="47" y="-170" on="1"/>
        <pt x="36" y="-170" on="0"/>
        <pt x="20" y="-154" on="0"/>
        <pt x="20" y="-143" on="1"/>
        <pt x="20" y="-132" on="0"/>
        <pt x="36" y="-117" on="0"/>
        <pt x="47" y="-117" on="1"/>
        <pt x="59" y="-117" on="0"/>
        <pt x="65" y="-123" on="1"/>
        <pt x="108" y="-120" on="0"/>
        <pt x="167" y="-82" on="0"/>
        <pt x="203" y="-25" on="0"/>
        <pt x="219" y="45" on="0"/>
        <pt x="219" y="80" on="1"/>
      </contour>
    </TTGlyph>
    <TTGlyph name="bracketleft" xMin="102" yMin="-170" xMax="348" yMax="1604">
      <contour>
        <pt x="303" y="-123" on="1"/>
        <pt x="312" y="-117" on="0"/>
        <pt x="322" y="-117" on="1"/>
        <pt x="333" y="-117" on="0"/>
        <pt x="348" y="-132" on="0"/>
        <pt x="348" y="-143" on="1"/>
        <pt x="348" y="-154" on="0"/>
        <pt x="333" y="-170" on="0"/>
        <pt x="322" y="-170" on="1"/>
        <pt x="312" y="-170" on="0"/>
        <pt x="303" y="-164" on="1"/>
        <pt x="102" y="-164" on="1"/>
        <pt x="102" y="1597" on="1"/>
        <pt x="303" y="1597" on="1"/>
        <pt x="311" y="1604" on="0"/>
        <pt x="322" y="1604" on="1"/>
        <pt x="333" y="1604" on="0"/>
        <pt x="348" y="1588" on="0"/>
        <pt x="348" y="1577" on="1"/>
        <pt x="348" y="1566" on="0"/>
        <pt x="333" y="1550" on="0"/>
        <pt x="322" y="1550" on="1"/>
        <pt x="312" y="1550" on="0"/>
        <pt x="303" y="1556" on="1"/>
        <pt x="145" y="1556" on="1"/>
        <pt x="145" y="-123" on="1"/>
      </contour>
    </TTGlyph>
    <TTGlyph name="bracketright" xMin="23" yMin="-170" xMax="269" yMax="1604">
      <contour>
        <pt x="226" y="-123" on="1"/>
        <pt x="226" y="1556" on="1"/>
        <pt x="68" y="1556" on="1"/>
        <pt x="59" y="1550" on="0"/>
        <pt x="49" y="1550" on="1"/>
        <pt x="38" y="1550" on="0"/>
        <pt x="23" y="1566" on="0"/>
        <pt x="23" y="1577" on="1"/>
        <pt x="23" y="1588" on="0"/>
        <pt x="38" y="1604" on="0"/>
        <pt x="49" y="1604" on="1"/>
        <pt x="60" y="1604" on="0"/>
        <pt x="68" y="1597" on="1"/>
        <pt x="269" y="1597" on="1"/>
        <pt x="269" y="-164" on="1"/>
        <pt x="68" y="-164" on="1"/>
        <pt x="59" y="-170" on="0"/>
        <pt x="49" y="-170" on="1"/>
        <pt x="38" y="-170" on="0"/>
        <pt x="23" y="-154" on="0"/>
        <pt x="23" y="-143" on="1"/>
        <pt x="23" y="-132" on="0"/>
        <pt x="38" y="-117" on="0"/>
        <pt x="49" y="-117" on="1"/>
        <pt x="59" y="-117" on="0"/>
        <pt x="68" y="-123" on="1"/>
      </contour>
    </TTGlyph>
    <TTGlyph name="breve" xMin="82" yMin="1198" xMax="516" yMax="1454">
      <contour>
        <pt x="516" y="1427" on="1"/>
        <pt x="516" y="1417" on="0"/>
        <pt x="508" y="1409" on="1"/>
        <pt x="506" y="1368" on="0"/>
        <pt x="481" y="1292" on="0"/>
        <pt x="432" y="1233" on="0"/>
        <pt x="354" y="1198" on="0"/>
        <pt x="299" y="1198" on="1"/>
        <pt x="243" y="1198" on="0"/>
        <pt x="165" y="1233" on="0"/>
        <pt x="116" y="1292" on="0"/>
        <pt x="91" y="1368" on="0"/>
        <pt x="88" y="1409" on="1"/>
        <pt x="82" y="1415" on="0"/>
        <pt x="82" y="1427" on="1"/>
        <pt x="82" y="1438" on="0"/>
        <pt x="98" y="1454" on="0"/>
        <pt x="109" y="1454" on="1"/>
        <pt x="120" y="1454" on="0"/>
        <pt x="135" y="1438" on="0"/>
        <pt x="135" y="1427" on="1"/>
        <pt x="135" y="1417" on="0"/>
        <pt x="129" y="1411" on="1"/>
        <pt x="131" y="1378" on="0"/>
        <pt x="151" y="1316" on="0"/>
        <pt x="192" y="1268" on="0"/>
        <pt x="254" y="1239" on="0"/>
        <pt x="299" y="1239" on="1"/>
        <pt x="344" y="1239" on="0"/>
        <pt x="407" y="1268" on="0"/>
        <pt x="446" y="1316" on="0"/>
        <pt x="465" y="1378" on="0"/>
        <pt x="467" y="1411" on="1"/>
        <pt x="463" y="1419" on="0"/>
        <pt x="463" y="1427" on="1"/>
        <pt x="463" y="1438" on="0"/>
        <pt x="478" y="1454" on="0"/>
        <pt x="489" y="1454" on="1"/>
        <pt x="500" y="1454" on="0"/>
        <pt x="516" y="1438" on="0"/>
      </contour>
    </TTGlyph>
    <TTGlyph name="brokenbar" xMin="102" yMin="-172" xMax="156" yMax="1604">
      <contour>
        <pt x="150" y="924" on="1"/>
        <pt x="156" y="918" on="0"/>
        <pt x="156" y="907" on="1"/>
        <pt x="156" y="896" on="0"/>
        <pt x="140" y="881" on="0"/>
        <pt x="129" y="881" on="1"/>
        <pt x="118" y="881" on="0"/>
        <pt x="102" y="896" on="0"/>
        <pt x="102" y="907" on="1"/>
        <pt x="102" y="918" on="0"/>
        <pt x="109" y="924" on="1"/>
        <pt x="109" y="1559" on="1"/>
        <pt x="102" y="1567" on="0"/>
        <pt x="102" y="1577" on="1"/>
        <pt x="102" y="1588" on="0"/>
        <pt x="118" y="1604" on="0"/>
        <pt x="129" y="1604" on="1"/>
        <pt x="140" y="1604" on="0"/>
        <pt x="156" y="1588" on="0"/>
        <pt x="156" y="1577" on="1"/>
        <pt x="156" y="1568" on="0"/>
        <pt x="150" y="1559" on="1"/>
      </contour>
      <contour>
        <pt x="150" y="-127" on="1"/>
        <pt x="156" y="-136" on="0"/>
        <pt x="156" y="-145" on="1"/>
        <pt x="156" y="-156" on="0"/>
        <pt x="140" y="-172" on="0"/>
        <pt x="129" y="-172" on="1"/>
        <pt x="118" y="-172" on="0"/>
        <pt x="102" y="-156" on="0"/>
        <pt x="102" y="-145" on="1"/>
        <pt x="102" y="-135" on="0"/>
        <pt x="109" y="-127" on="1"/>
        <pt x="109" y="487" on="1"/>
        <pt x="102" y="497" on="0"/>
        <pt x="102" y="506" on="1"/>
        <pt x="102" y="517" on="0"/>
        <pt x="118" y="532" on="0"/>
        <pt x="129" y="532" on="1"/>
        <pt x="140" y="532" on="0"/>
        <pt x="156" y="517" on="0"/>
        <pt x="156" y="506" on="1"/>
        <pt x="156" y="497" on="0"/>
        <pt x="150" y="487" on="1"/>
      </contour>
    </TTGlyph>
    <TTGlyph name="bullet" xMin="72" yMin="795" xMax="164" yMax="887">
      <component glyphName="period" x="21" y="815" flags="0x4"/>
    </TTGlyph>
    <TTGlyph name="c" xMin="72" yMin="-20" xMax="502" yMax="1044">
      <contour>
        <pt x="113" y="215" on="1"/>
        <pt x="113" y="179" on="0"/>
        <pt x="130" y="109" on="0"/>
        <pt x="169" y="54" on="0"/>
        <pt x="235" y="20" on="0"/>
        <pt x="283" y="20" on="1"/>
        <pt x="329" y="20" on="0"/>
        <pt x="393" y="49" on="0"/>
        <pt x="434" y="98" on="0"/>
        <pt x="453" y="161" on="0"/>
        <pt x="455" y="195" on="1"/>
        <pt x="452" y="198" on="0"/>
        <pt x="449" y="208" on="0"/>
        <pt x="449" y="213" on="1"/>
        <pt x="449" y="222" on="0"/>
        <pt x="464" y="238" on="0"/>
        <pt x="475" y="238" on="1"/>
        <pt x="486" y="238" on="0"/>
        <pt x="502" y="222" on="0"/>
        <pt x="502" y="213" on="1"/>
        <pt x="502" y="208" on="0"/>
        <pt x="499" y="198" on="0"/>
        <pt x="496" y="195" on="1"/>
        <pt x="493" y="153" on="0"/>
        <pt x="469" y="76" on="0"/>
        <pt x="418" y="16" on="0"/>
        <pt x="340" y="-20" on="0"/>
        <pt x="283" y="-20" on="1"/>
        <pt x="223" y="-20" on="0"/>
        <pt x="142" y="21" on="0"/>
        <pt x="93" y="87" on="0"/>
        <pt x="72" y="171" on="0"/>
        <pt x="72" y="215" on="1"/>
        <pt x="72" y="809" on="1"/>
        <pt x="72" y="853" on="0"/>
        <pt x="93" y="937" on="0"/>
        <pt x="142" y="1003" on="0"/>
        <pt x="223" y="1044" on="0"/>
        <pt x="283" y="1044" on="1"/>
        <pt x="340" y="1044" on="0"/>
        <pt x="418" y="1008" on="0"/>
        <pt x="469" y="948" on="0"/>
        <pt x="493" y="871" on="0"/>
        <pt x="496" y="829" on="1"/>
        <pt x="499" y="826" on="0"/>
        <pt x="502" y="816" on="0"/>
        <pt x="502" y="811" on="1"/>
        <pt x="502" y="802" on="0"/>
        <pt x="486" y="786" on="0"/>
        <pt x="475" y="786" on="1"/>
        <pt x="464" y="786" on="0"/>
        <pt x="449" y="802" on="0"/>
        <pt x="449" y="811" on="1"/>
        <pt x="449" y="821" on="0"/>
        <pt x="455" y="827" on="1"/>
        <pt x="453" y="860" on="0"/>
        <pt x="434" y="924" on="0"/>
        <pt x="393" y="973" on="0"/>
        <pt x="329" y="1004" on="0"/>
        <pt x="283" y="1004" on="1"/>
        <pt x="235" y="1004" on="0"/>
        <pt x="169" y="969" on="0"/>
        <pt x="130" y="914" on="0"/>
        <pt x="113" y="844" on="0"/>
        <pt x="113" y="809" on="1"/>
      </contour>
    </TTGlyph>
    <TTGlyph name="caron" xMin="82" yMin="1167" xMax="602" yMax="1454">
      <contour>
        <pt x="369" y="1192" on="1"/>
        <pt x="367" y="1181" on="0"/>
        <pt x="351" y="1167" on="0"/>
        <pt x="342" y="1167" on="1"/>
        <pt x="331" y="1167" on="0"/>
        <pt x="315" y="1181" on="0"/>
        <pt x="315" y="1192" on="1"/>
        <pt x="106" y="1401" on="1"/>
        <pt x="95" y="1401" on="0"/>
        <pt x="82" y="1416" on="0"/>
        <pt x="82" y="1427" on="1"/>
        <pt x="82" y="1438" on="0"/>
        <pt x="98" y="1454" on="0"/>
        <pt x="109" y="1454" on="1"/>
        <pt x="120" y="1454" on="0"/>
        <pt x="135" y="1438" on="0"/>
        <pt x="135" y="1427" on="1"/>
        <pt x="342" y="1221" on="1"/>
        <pt x="549" y="1427" on="1"/>
        <pt x="549" y="1438" on="0"/>
        <pt x="564" y="1454" on="0"/>
        <pt x="575" y="1454" on="1"/>
        <pt x="586" y="1454" on="0"/>
        <pt x="602" y="1438" on="0"/>
        <pt x="602" y="1427" on="1"/>
        <pt x="602" y="1416" on="0"/>
        <pt x="587" y="1401" on="0"/>
        <pt x="578" y="1401" on="1"/>
      </contour>
    </TTGlyph>
    <TTGlyph name="ccedilla" xMin="72" yMin="-391" xMax="502" yMax="1044">
      <contour>
        <pt x="438" y="-254" on="1"/>
        <pt x="438" y="-291" on="0"/>
        <pt x="413" y="-341" on="0"/>
        <pt x="372" y="-372" on="0"/>
        <pt x="321" y="-385" on="0"/>
        <pt x="295" y="-385" on="1"/>
        <pt x="176" y="-385" on="1"/>
        <pt x="170" y="-391" on="0"/>
        <pt x="160" y="-391" on="1"/>
        <pt x="149" y="-391" on="0"/>
        <pt x="133" y="-376" on="0"/>
        <pt x="133" y="-365" on="1"/>
        <pt x="133" y="-354" on="0"/>
        <pt x="149" y="-338" on="0"/>
        <pt x="160" y="-338" on="1"/>
        <pt x="170" y="-338" on="0"/>
        <pt x="176" y="-344" on="1"/>
        <pt x="295" y="-344" on="1"/>
        <pt x="313" y="-344" on="0"/>
        <pt x="350" y="-336" on="0"/>
        <pt x="379" y="-315" on="0"/>
        <pt x="397" y="-280" on="0"/>
        <pt x="397" y="-254" on="1"/>
        <pt x="397" y="-221" on="1"/>
        <pt x="397" y="-195" on="0"/>
        <pt x="379" y="-161" on="0"/>
        <pt x="350" y="-140" on="0"/>
        <pt x="313" y="-131" on="0"/>
        <pt x="295" y="-131" on="1"/>
        <pt x="237" y="-131" on="1"/>
        <pt x="237" y="-16" on="1"/>
        <pt x="206" y="-11" on="0"/>
        <pt x="182" y="0" on="1"/>
        <pt x="142" y="21" on="0"/>
        <pt x="93" y="87" on="0"/>
        <pt x="72" y="171" on="0"/>
        <pt x="72" y="215" on="1"/>
        <pt x="72" y="809" on="1"/>
        <pt x="72" y="853" on="0"/>
        <pt x="93" y="937" on="0"/>
        <pt x="142" y="1003" on="0"/>
        <pt x="223" y="1044" on="0"/>
        <pt x="283" y="1044" on="1"/>
        <pt x="340" y="1044" on="0"/>
        <pt x="418" y="1008" on="0"/>
        <pt x="469" y="948" on="0"/>
        <pt x="493" y="871" on="0"/>
        <pt x="496" y="829" on="1"/>
        <pt x="499" y="826" on="0"/>
        <pt x="502" y="816" on="0"/>
        <pt x="502" y="811" on="1"/>
        <pt x="502" y="802" on="0"/>
        <pt x="486" y="786" on="0"/>
        <pt x="475" y="786" on="1"/>
        <pt x="464" y="786" on="0"/>
        <pt x="449" y="802" on="0"/>
        <pt x="449" y="811" on="1"/>
        <pt x="449" y="821" on="0"/>
        <pt x="455" y="827" on="1"/>
        <pt x="453" y="860" on="0"/>
        <pt x="434" y="924" on="0"/>
        <pt x="393" y="973" on="0"/>
        <pt x="329" y="1004" on="0"/>
        <pt x="283" y="1004" on="1"/>
        <pt x="235" y="1004" on="0"/>
        <pt x="169" y="969" on="0"/>
        <pt x="130" y="914" on="0"/>
        <pt x="113" y="844" on="0"/>
        <pt x="113" y="809" on="1"/>
        <pt x="113" y="215" on="1"/>
        <pt x="113" y="179" on="0"/>
        <pt x="130" y="109" on="0"/>
        <pt x="169" y="54" on="0"/>
        <pt x="235" y="20" on="0"/>
        <pt x="283" y="20" on="1"/>
        <pt x="329" y="20" on="0"/>
        <pt x="393" y="49" on="0"/>
        <pt x="434" y="98" on="0"/>
        <pt x="453" y="161" on="0"/>
        <pt x="455" y="195" on="1"/>
        <pt x="452" y="198" on="0"/>
        <pt x="449" y="208" on="0"/>
        <pt x="449" y="213" on="1"/>
        <pt x="449" y="222" on="0"/>
        <pt x="464" y="238" on="0"/>
        <pt x="475" y="238" on="1"/>
        <pt x="486" y="238" on="0"/>
        <pt x="502" y="222" on="0"/>
        <pt x="502" y="213" on="1"/>
        <pt x="502" y="208" on="0"/>
        <pt x="499" y="198" on="0"/>
        <pt x="496" y="195" on="1"/>
        <pt x="493" y="153" on="0"/>
        <pt x="469" y="76" on="0"/>
        <pt x="418" y="16" on="0"/>
        <pt x="340" y="-20" on="0"/>
        <pt x="283" y="-20" on="1"/>
        <pt x="278" y="-20" on="1"/>
        <pt x="278" y="-90" on="1"/>
        <pt x="295" y="-90" on="1"/>
        <pt x="321" y="-90" on="0"/>
        <pt x="372" y="-103" on="0"/>
        <pt x="413" y="-134" on="0"/>
        <pt x="438" y="-184" on="0"/>
        <pt x="438" y="-221" on="1"/>
      </contour>
    </TTGlyph>
    <TTGlyph name="cedilla" xMin="82" yMin="-391" xMax="387" yMax="0">
      <contour>
        <pt x="387" y="-254" on="1"/>
        <pt x="387" y="-291" on="0"/>
        <pt x="362" y="-341" on="0"/>
        <pt x="321" y="-372" on="0"/>
        <pt x="270" y="-385" on="0"/>
        <pt x="244" y="-385" on="1"/>
        <pt x="125" y="-385" on="1"/>
        <pt x="119" y="-391" on="0"/>
        <pt x="109" y="-391" on="1"/>
        <pt x="98" y="-391" on="0"/>
        <pt x="82" y="-376" on="0"/>
        <pt x="82" y="-365" on="1"/>
        <pt x="82" y="-354" on="0"/>
        <pt x="98" y="-338" on="0"/>
        <pt x="109" y="-338" on="1"/>
        <pt x="119" y="-338" on="0"/>
        <pt x="125" y="-344" on="1"/>
        <pt x="244" y="-344" on="1"/>
        <pt x="262" y="-344" on="0"/>
        <pt x="299" y="-336" on="0"/>
        <pt x="328" y="-315" on="0"/>
        <pt x="346" y="-280" on="0"/>
        <pt x="346" y="-254" on="1"/>
        <pt x="346" y="-221" on="1"/>
        <pt x="346" y="-195" on="0"/>
        <pt x="328" y="-161" on="0"/>
        <pt x="299" y="-140" on="0"/>
        <pt x="262" y="-131" on="0"/>
        <pt x="244" y="-131" on="1"/>
        <pt x="186" y="-131" on="1"/>
        <pt x="186" y="-90" on="1"/>
        <pt x="186" y="0" on="1"/>
        <pt x="227" y="0" on="1"/>
        <pt x="227" y="-90" on="1"/>
        <pt x="244" y="-90" on="1"/>
        <pt x="270" y="-90" on="0"/>
        <pt x="321" y="-103" on="0"/>
        <pt x="362" y="-134" on="0"/>
        <pt x="387" y="-184" on="0"/>
        <pt x="387" y="-221" on="1"/>
      </contour>
    </TTGlyph>
    <TTGlyph name="cent" xMin="86" yMin="-172" xMax="516" yMax="1194">
      <contour>
        <pt x="127" y="215" on="1"/>
        <pt x="127" y="179" on="0"/>
        <pt x="144" y="109" on="0"/>
        <pt x="183" y="54" on="0"/>
        <pt x="249" y="20" on="0"/>
        <pt x="297" y="20" on="1"/>
        <pt x="343" y="20" on="0"/>
        <pt x="407" y="49" on="0"/>
        <pt x="448" y="98" on="0"/>
        <pt x="467" y="161" on="0"/>
        <pt x="469" y="195" on="1"/>
        <pt x="466" y="198" on="0"/>
        <pt x="463" y="208" on="0"/>
        <pt x="463" y="213" on="1"/>
        <pt x="463" y="222" on="0"/>
        <pt x="478" y="238" on="0"/>
        <pt x="489" y="238" on="1"/>
        <pt x="500" y="238" on="0"/>
        <pt x="516" y="222" on="0"/>
        <pt x="516" y="213" on="1"/>
        <pt x="516" y="208" on="0"/>
        <pt x="513" y="198" on="0"/>
        <pt x="510" y="195" on="1"/>
        <pt x="507" y="153" on="0"/>
        <pt x="483" y="76" on="0"/>
        <pt x="432" y="16" on="0"/>
        <pt x="393" y="-2" on="1"/>
        <pt x="362" y="-16" on="0"/>
        <pt x="319" y="-19" on="1"/>
        <pt x="319" y="-127" on="1"/>
        <pt x="326" y="-135" on="0"/>
        <pt x="326" y="-145" on="1"/>
        <pt x="326" y="-156" on="0"/>
        <pt x="310" y="-172" on="0"/>
        <pt x="299" y="-172" on="1"/>
        <pt x="288" y="-172" on="0"/>
        <pt x="272" y="-156" on="0"/>
        <pt x="272" y="-145" on="1"/>
        <pt x="272" y="-135" on="0"/>
        <pt x="279" y="-127" on="1"/>
        <pt x="279" y="-19" on="1"/>
        <pt x="231" y="-17" on="0"/>
        <pt x="196" y="0" on="1"/>
        <pt x="156" y="21" on="0"/>
        <pt x="107" y="87" on="0"/>
        <pt x="86" y="171" on="0"/>
        <pt x="86" y="215" on="1"/>
        <pt x="86" y="809" on="1"/>
        <pt x="86" y="853" on="0"/>
        <pt x="107" y="937" on="0"/>
        <pt x="156" y="1003" on="0"/>
        <pt x="196" y="1023" on="1"/>
        <pt x="231" y="1041" on="0"/>
        <pt x="279" y="1043" on="1"/>
        <pt x="279" y="1149" on="1"/>
        <pt x="272" y="1157" on="0"/>
        <pt x="272" y="1167" on="1"/>
        <pt x="272" y="1178" on="0"/>
        <pt x="288" y="1194" on="0"/>
        <pt x="299" y="1194" on="1"/>
        <pt x="310" y="1194" on="0"/>
        <pt x="326" y="1178" on="0"/>
        <pt x="326" y="1167" on="1"/>
        <pt x="326" y="1157" on="0"/>
        <pt x="319" y="1149" on="1"/>
        <pt x="319" y="1043" on="1"/>
        <pt x="362" y="1040" on="0"/>
        <pt x="393" y="1026" on="1"/>
        <pt x="432" y="1008" on="0"/>
        <pt x="483" y="948" on="0"/>
        <pt x="507" y="871" on="0"/>
        <pt x="510" y="829" on="1"/>
        <pt x="513" y="826" on="0"/>
        <pt x="516" y="816" on="0"/>
        <pt x="516" y="811" on="1"/>
        <pt x="516" y="802" on="0"/>
        <pt x="500" y="786" on="0"/>
        <pt x="489" y="786" on="1"/>
        <pt x="478" y="786" on="0"/>
        <pt x="463" y="802" on="0"/>
        <pt x="463" y="811" on="1"/>
        <pt x="463" y="821" on="0"/>
        <pt x="469" y="827" on="1"/>
        <pt x="467" y="860" on="0"/>
        <pt x="448" y="924" on="0"/>
        <pt x="407" y="973" on="0"/>
        <pt x="343" y="1004" on="0"/>
        <pt x="297" y="1004" on="1"/>
        <pt x="249" y="1004" on="0"/>
        <pt x="183" y="969" on="0"/>
        <pt x="144" y="914" on="0"/>
        <pt x="127" y="844" on="0"/>
        <pt x="127" y="809" on="1"/>
      </contour>
    </TTGlyph>
    <TTGlyph name="circumflex" xMin="61" yMin="1167" xMax="582" yMax="1454">
      <contour>
        <pt x="557" y="1221" on="1"/>
        <pt x="566" y="1219" on="0"/>
        <pt x="582" y="1203" on="0"/>
        <pt x="582" y="1194" on="1"/>
        <pt x="582" y="1183" on="0"/>
        <pt x="566" y="1167" on="0"/>
        <pt x="555" y="1167" on="1"/>
        <pt x="544" y="1167" on="0"/>
        <pt x="528" y="1183" on="0"/>
        <pt x="528" y="1194" on="1"/>
        <pt x="322" y="1401" on="1"/>
        <pt x="115" y="1194" on="1"/>
        <pt x="115" y="1183" on="0"/>
        <pt x="99" y="1167" on="0"/>
        <pt x="88" y="1167" on="1"/>
        <pt x="77" y="1167" on="0"/>
        <pt x="61" y="1183" on="0"/>
        <pt x="61" y="1194" on="1"/>
        <pt x="61" y="1203" on="0"/>
        <pt x="75" y="1219" on="0"/>
        <pt x="86" y="1221" on="1"/>
        <pt x="295" y="1430" on="1"/>
        <pt x="295" y="1439" on="0"/>
        <pt x="311" y="1454" on="0"/>
        <pt x="322" y="1454" on="1"/>
        <pt x="331" y="1454" on="0"/>
        <pt x="346" y="1439" on="0"/>
        <pt x="348" y="1430" on="1"/>
      </contour>
    </TTGlyph>
    <TTGlyph name="colon" xMin="51" yMin="-20" xMax="143" yMax="860">
      <contour>
        <pt x="131" y="-7" on="1"/>
        <pt x="119" y="-20" on="0"/>
        <pt x="96" y="-20" on="1"/>
        <pt x="74" y="-20" on="0"/>
        <pt x="51" y="6" on="0"/>
        <pt x="51" y="25" on="1"/>
        <pt x="51" y="45" on="0"/>
        <pt x="74" y="72" on="0"/>
        <pt x="96" y="72" on="1"/>
        <pt x="119" y="72" on="0"/>
        <pt x="143" y="45" on="0"/>
        <pt x="143" y="25" on="1"/>
        <pt x="143" y="6" on="0"/>
      </contour>
      <contour>
        <pt x="131" y="781" on="1"/>
        <pt x="119" y="768" on="0"/>
        <pt x="96" y="768" on="1"/>
        <pt x="74" y="768" on="0"/>
        <pt x="51" y="794" on="0"/>
        <pt x="51" y="813" on="1"/>
        <pt x="51" y="833" on="0"/>
        <pt x="74" y="860" on="0"/>
        <pt x="96" y="860" on="1"/>
        <pt x="119" y="860" on="0"/>
        <pt x="143" y="833" on="0"/>
        <pt x="143" y="813" on="1"/>
        <pt x="143" y="794" on="0"/>
      </contour>
    </TTGlyph>
    <TTGlyph name="comma" xMin="12" yMin="-152" xMax="172" yMax="72">
      <contour>
        <pt x="65" y="-125" on="1"/>
        <pt x="65" y="-136" on="0"/>
        <pt x="50" y="-152" on="0"/>
        <pt x="39" y="-152" on="1"/>
        <pt x="28" y="-152" on="0"/>
        <pt x="12" y="-136" on="0"/>
        <pt x="12" y="-125" on="1"/>
        <pt x="12" y="-105" on="0"/>
        <pt x="31" y="-98" on="1"/>
        <pt x="86" y="0" on="1"/>
        <pt x="80" y="9" on="0"/>
        <pt x="80" y="25" on="1"/>
        <pt x="80" y="45" on="0"/>
        <pt x="103" y="72" on="0"/>
        <pt x="125" y="72" on="1"/>
        <pt x="148" y="72" on="0"/>
        <pt x="172" y="45" on="0"/>
        <pt x="172" y="25" on="1"/>
        <pt x="172" y="6" on="0"/>
        <pt x="148" y="-20" on="0"/>
        <pt x="125" y="-20" on="1"/>
        <pt x="121" y="-20" on="1"/>
        <pt x="65" y="-121" on="1"/>
      </contour>
    </TTGlyph>
    <TTGlyph name="copyright" xMin="82" yMin="-23" xMax="868" yMax="1454">
      <contour>
        <pt x="868" y="408" on="1"/>
        <pt x="868" y="327" on="0"/>
        <pt x="827" y="173" on="0"/>
        <pt x="734" y="51" on="0"/>
        <pt x="584" y="-23" on="0"/>
        <pt x="475" y="-23" on="1"/>
        <pt x="363" y="-23" on="0"/>
        <pt x="212" y="51" on="0"/>
        <pt x="121" y="173" on="0"/>
        <pt x="82" y="327" on="0"/>
        <pt x="82" y="408" on="1"/>
        <pt x="82" y="1024" on="1"/>
        <pt x="82" y="1105" on="0"/>
        <pt x="121" y="1259" on="0"/>
        <pt x="212" y="1380" on="0"/>
        <pt x="363" y="1454" on="0"/>
        <pt x="475" y="1454" on="1"/>
        <pt x="584" y="1454" on="0"/>
        <pt x="734" y="1380" on="0"/>
        <pt x="827" y="1259" on="0"/>
        <pt x="868" y="1105" on="0"/>
        <pt x="868" y="1024" on="1"/>
      </contour>
      <contour>
        <pt x="827" y="1022" on="1"/>
        <pt x="827" y="1092" on="0"/>
        <pt x="792" y="1232" on="0"/>
        <pt x="710" y="1344" on="0"/>
        <pt x="574" y="1413" on="0"/>
        <pt x="473" y="1413" on="1"/>
        <pt x="373" y="1413" on="0"/>
        <pt x="239" y="1344" on="0"/>
        <pt x="158" y="1232" on="0"/>
        <pt x="123" y="1092" on="0"/>
        <pt x="123" y="1022" on="1"/>
        <pt x="123" y="410" on="1"/>
        <pt x="123" y="339" on="0"/>
        <pt x="158" y="199" on="0"/>
        <pt x="239" y="87" on="0"/>
        <pt x="373" y="18" on="0"/>
        <pt x="473" y="18" on="1"/>
        <pt x="574" y="18" on="0"/>
        <pt x="710" y="87" on="0"/>
        <pt x="792" y="199" on="0"/>
        <pt x="827" y="339" on="0"/>
        <pt x="827" y="410" on="1"/>
      </contour>
      <contour>
        <pt x="303" y="420" on="1"/>
        <pt x="303" y="384" on="0"/>
        <pt x="320" y="314" on="0"/>
        <pt x="359" y="259" on="0"/>
        <pt x="425" y="225" on="0"/>
        <pt x="473" y="225" on="1"/>
        <pt x="519" y="225" on="0"/>
        <pt x="583" y="254" on="0"/>
        <pt x="624" y="302" on="0"/>
        <pt x="643" y="365" on="0"/>
        <pt x="645" y="399" on="1"/>
        <pt x="642" y="402" on="0"/>
        <pt x="639" y="413" on="0"/>
        <pt x="639" y="418" on="1"/>
        <pt x="639" y="427" on="0"/>
        <pt x="655" y="442" on="0"/>
        <pt x="666" y="442" on="1"/>
        <pt x="677" y="442" on="0"/>
        <pt x="692" y="427" on="0"/>
        <pt x="692" y="418" on="1"/>
        <pt x="692" y="413" on="0"/>
        <pt x="689" y="402" on="0"/>
        <pt x="686" y="399" on="1"/>
        <pt x="684" y="358" on="0"/>
        <pt x="659" y="280" on="0"/>
        <pt x="609" y="220" on="0"/>
        <pt x="530" y="184" on="0"/>
        <pt x="473" y="184" on="1"/>
        <pt x="413" y="184" on="0"/>
        <pt x="332" y="225" on="0"/>
        <pt x="283" y="291" on="0"/>
        <pt x="262" y="376" on="0"/>
        <pt x="262" y="420" on="1"/>
        <pt x="262" y="1014" on="1"/>
        <pt x="262" y="1057" on="0"/>
        <pt x="283" y="1142" on="0"/>
        <pt x="332" y="1208" on="0"/>
        <pt x="413" y="1249" on="0"/>
        <pt x="473" y="1249" on="1"/>
        <pt x="530" y="1249" on="0"/>
        <pt x="609" y="1213" on="0"/>
        <pt x="659" y="1153" on="0"/>
        <pt x="684" y="1076" on="0"/>
        <pt x="686" y="1034" on="1"/>
        <pt x="689" y="1031" on="0"/>
        <pt x="692" y="1021" on="0"/>
        <pt x="692" y="1016" on="1"/>
        <pt x="692" y="1007" on="0"/>
        <pt x="677" y="991" on="0"/>
        <pt x="666" y="991" on="1"/>
        <pt x="655" y="991" on="0"/>
        <pt x="639" y="1007" on="0"/>
        <pt x="639" y="1016" on="1"/>
        <pt x="639" y="1026" on="0"/>
        <pt x="645" y="1032" on="1"/>
        <pt x="643" y="1065" on="0"/>
        <pt x="624" y="1128" on="0"/>
        <pt x="583" y="1178" on="0"/>
        <pt x="519" y="1208" on="0"/>
        <pt x="473" y="1208" on="1"/>
        <pt x="425" y="1208" on="0"/>
        <pt x="359" y="1174" on="0"/>
        <pt x="320" y="1119" on="0"/>
        <pt x="303" y="1049" on="0"/>
        <pt x="303" y="1014" on="1"/>
      </contour>
    </TTGlyph>
    <TTGlyph name="currency" xMin="70" yMin="430" xMax="633" yMax="1059">
      <contour>
        <pt x="606" y="498" on="1"/>
        <pt x="617" y="498" on="0"/>
        <pt x="633" y="482" on="0"/>
        <pt x="633" y="471" on="1"/>
        <pt x="633" y="460" on="0"/>
        <pt x="617" y="444" on="0"/>
        <pt x="606" y="444" on="1"/>
        <pt x="595" y="444" on="0"/>
        <pt x="580" y="458" on="0"/>
        <pt x="580" y="469" on="1"/>
        <pt x="483" y="563" on="1"/>
        <pt x="481" y="538" on="0"/>
        <pt x="466" y="490" on="0"/>
        <pt x="435" y="453" on="0"/>
        <pt x="386" y="430" on="0"/>
        <pt x="352" y="430" on="1"/>
        <pt x="317" y="430" on="0"/>
        <pt x="267" y="453" on="0"/>
        <pt x="235" y="490" on="0"/>
        <pt x="220" y="538" on="0"/>
        <pt x="219" y="563" on="1"/>
        <pt x="123" y="469" on="1"/>
        <pt x="121" y="458" on="0"/>
        <pt x="106" y="444" on="0"/>
        <pt x="96" y="444" on="1"/>
        <pt x="85" y="444" on="0"/>
        <pt x="70" y="460" on="0"/>
        <pt x="70" y="471" on="1"/>
        <pt x="70" y="482" on="0"/>
        <pt x="85" y="498" on="0"/>
        <pt x="96" y="498" on="1"/>
        <pt x="219" y="618" on="1"/>
        <pt x="219" y="870" on="1"/>
        <pt x="96" y="991" on="1"/>
        <pt x="85" y="991" on="0"/>
        <pt x="70" y="1007" on="0"/>
        <pt x="70" y="1018" on="1"/>
        <pt x="70" y="1029" on="0"/>
        <pt x="85" y="1044" on="0"/>
        <pt x="96" y="1044" on="1"/>
        <pt x="106" y="1044" on="0"/>
        <pt x="121" y="1029" on="0"/>
        <pt x="123" y="1020" on="1"/>
        <pt x="219" y="926" on="1"/>
        <pt x="220" y="950" on="0"/>
        <pt x="235" y="998" on="0"/>
        <pt x="267" y="1036" on="0"/>
        <pt x="317" y="1059" on="0"/>
        <pt x="352" y="1059" on="1"/>
        <pt x="386" y="1059" on="0"/>
        <pt x="435" y="1036" on="0"/>
        <pt x="466" y="998" on="0"/>
        <pt x="481" y="950" on="0"/>
        <pt x="483" y="926" on="1"/>
        <pt x="580" y="1020" on="1"/>
        <pt x="580" y="1029" on="0"/>
        <pt x="595" y="1044" on="0"/>
        <pt x="606" y="1044" on="1"/>
        <pt x="617" y="1044" on="0"/>
        <pt x="633" y="1029" on="0"/>
        <pt x="633" y="1018" on="1"/>
        <pt x="633" y="1007" on="0"/>
        <pt x="617" y="991" on="0"/>
        <pt x="606" y="991" on="1"/>
        <pt x="483" y="870" on="1"/>
        <pt x="483" y="618" on="1"/>
      </contour>
      <contour>
        <pt x="260" y="573" on="1"/>
        <pt x="260" y="555" on="0"/>
        <pt x="269" y="518" on="0"/>
        <pt x="291" y="489" on="0"/>
        <pt x="326" y="471" on="0"/>
        <pt x="352" y="471" on="1"/>
        <pt x="378" y="471" on="0"/>
        <pt x="413" y="489" on="0"/>
        <pt x="434" y="518" on="0"/>
        <pt x="442" y="555" on="0"/>
        <pt x="442" y="573" on="1"/>
        <pt x="442" y="915" on="1"/>
        <pt x="442" y="934" on="0"/>
        <pt x="434" y="971" on="0"/>
        <pt x="413" y="1000" on="0"/>
        <pt x="378" y="1018" on="0"/>
        <pt x="352" y="1018" on="1"/>
        <pt x="326" y="1018" on="0"/>
        <pt x="291" y="1000" on="0"/>
        <pt x="269" y="971" on="0"/>
        <pt x="260" y="934" on="0"/>
        <pt x="260" y="915" on="1"/>
      </contour>
    </TTGlyph>
    <TTGlyph name="d" xMin="72" yMin="-20" xMax="500" yMax="1454">
      <contour>
        <pt x="72" y="809" on="1"/>
        <pt x="72" y="853" on="0"/>
        <pt x="92" y="937" on="0"/>
        <pt x="141" y="1003" on="0"/>
        <pt x="222" y="1044" on="0"/>
        <pt x="283" y="1044" on="1"/>
        <pt x="345" y="1044" on="0"/>
        <pt x="425" y="997" on="0"/>
        <pt x="453" y="949" on="1"/>
        <pt x="453" y="1409" on="1"/>
        <pt x="447" y="1418" on="0"/>
        <pt x="447" y="1427" on="1"/>
        <pt x="447" y="1438" on="0"/>
        <pt x="463" y="1454" on="0"/>
        <pt x="474" y="1454" on="1"/>
        <pt x="485" y="1454" on="0"/>
        <pt x="500" y="1438" on="0"/>
        <pt x="500" y="1427" on="1"/>
        <pt x="500" y="1418" on="0"/>
        <pt x="494" y="1409" on="1"/>
        <pt x="494" y="23" on="1"/>
        <pt x="500" y="15" on="0"/>
        <pt x="500" y="6" on="1"/>
        <pt x="500" y="-5" on="0"/>
        <pt x="485" y="-20" on="0"/>
        <pt x="474" y="-20" on="1"/>
        <pt x="463" y="-20" on="0"/>
        <pt x="447" y="-5" on="0"/>
        <pt x="447" y="6" on="1"/>
        <pt x="447" y="15" on="0"/>
        <pt x="453" y="23" on="1"/>
        <pt x="453" y="66" on="1"/>
        <pt x="425" y="27" on="0"/>
        <pt x="345" y="-20" on="0"/>
        <pt x="283" y="-20" on="1"/>
        <pt x="222" y="-20" on="0"/>
        <pt x="141" y="21" on="0"/>
        <pt x="92" y="87" on="0"/>
        <pt x="72" y="171" on="0"/>
        <pt x="72" y="215" on="1"/>
      </contour>
      <contour>
        <pt x="453" y="809" on="1"/>
        <pt x="453" y="844" on="0"/>
        <pt x="432" y="914" on="0"/>
        <pt x="390" y="969" on="0"/>
        <pt x="326" y="1004" on="0"/>
        <pt x="283" y="1004" on="1"/>
        <pt x="233" y="1004" on="0"/>
        <pt x="168" y="969" on="0"/>
        <pt x="129" y="914" on="0"/>
        <pt x="113" y="844" on="0"/>
        <pt x="113" y="809" on="1"/>
        <pt x="113" y="215" on="1"/>
        <pt x="113" y="180" on="0"/>
        <pt x="129" y="110" on="0"/>
        <pt x="168" y="54" on="0"/>
        <pt x="233" y="20" on="0"/>
        <pt x="283" y="20" on="1"/>
        <pt x="331" y="20" on="0"/>
        <pt x="396" y="56" on="0"/>
        <pt x="436" y="112" on="0"/>
        <pt x="453" y="181" on="0"/>
        <pt x="453" y="215" on="1"/>
      </contour>
    </TTGlyph>
    <TTGlyph name="degree" xMin="76" yMin="825" xMax="340" yMax="1454">
      <contour>
        <pt x="117" y="969" on="1"/>
        <pt x="117" y="951" on="0"/>
        <pt x="125" y="914" on="0"/>
        <pt x="146" y="884" on="0"/>
        <pt x="181" y="866" on="0"/>
        <pt x="207" y="866" on="1"/>
        <pt x="233" y="866" on="0"/>
        <pt x="268" y="884" on="0"/>
        <pt x="290" y="914" on="0"/>
        <pt x="299" y="951" on="0"/>
        <pt x="299" y="969" on="1"/>
        <pt x="299" y="1311" on="1"/>
        <pt x="299" y="1329" on="0"/>
        <pt x="290" y="1366" on="0"/>
        <pt x="268" y="1395" on="0"/>
        <pt x="233" y="1413" on="0"/>
        <pt x="207" y="1413" on="1"/>
        <pt x="181" y="1413" on="0"/>
        <pt x="146" y="1395" on="0"/>
        <pt x="125" y="1366" on="0"/>
        <pt x="117" y="1329" on="0"/>
        <pt x="117" y="1311" on="1"/>
      </contour>
      <contour>
        <pt x="340" y="969" on="1"/>
        <pt x="340" y="943" on="0"/>
        <pt x="326" y="891" on="0"/>
        <pt x="294" y="850" on="0"/>
        <pt x="244" y="825" on="0"/>
        <pt x="207" y="825" on="1"/>
        <pt x="170" y="825" on="0"/>
        <pt x="120" y="850" on="0"/>
        <pt x="89" y="891" on="0"/>
        <pt x="76" y="943" on="0"/>
        <pt x="76" y="969" on="1"/>
        <pt x="76" y="1311" on="1"/>
        <pt x="76" y="1337" on="0"/>
        <pt x="89" y="1388" on="0"/>
        <pt x="120" y="1429" on="0"/>
        <pt x="170" y="1454" on="0"/>
        <pt x="207" y="1454" on="1"/>
        <pt x="244" y="1454" on="0"/>
        <pt x="294" y="1429" on="0"/>
        <pt x="326" y="1388" on="0"/>
        <pt x="340" y="1337" on="0"/>
        <pt x="340" y="1311" on="1"/>
      </contour>
    </TTGlyph>
    <TTGlyph name="dieresis" xMin="113" yMin="1227" xMax="397" yMax="1374">
      <contour>
        <pt x="160" y="1270" on="1"/>
        <pt x="166" y="1264" on="0"/>
        <pt x="166" y="1254" on="1"/>
        <pt x="166" y="1243" on="0"/>
        <pt x="150" y="1227" on="0"/>
        <pt x="139" y="1227" on="1"/>
        <pt x="128" y="1227" on="0"/>
        <pt x="113" y="1243" on="0"/>
        <pt x="113" y="1254" on="1"/>
        <pt x="113" y="1264" on="0"/>
        <pt x="119" y="1270" on="1"/>
        <pt x="119" y="1329" on="1"/>
        <pt x="113" y="1339" on="0"/>
        <pt x="113" y="1348" on="1"/>
        <pt x="113" y="1359" on="0"/>
        <pt x="128" y="1374" on="0"/>
        <pt x="139" y="1374" on="1"/>
        <pt x="150" y="1374" on="0"/>
        <pt x="166" y="1359" on="0"/>
        <pt x="166" y="1348" on="1"/>
        <pt x="166" y="1339" on="0"/>
        <pt x="160" y="1329" on="1"/>
      </contour>
      <contour>
        <pt x="391" y="1270" on="1"/>
        <pt x="397" y="1264" on="0"/>
        <pt x="397" y="1254" on="1"/>
        <pt x="397" y="1243" on="0"/>
        <pt x="382" y="1227" on="0"/>
        <pt x="371" y="1227" on="1"/>
        <pt x="360" y="1227" on="0"/>
        <pt x="344" y="1243" on="0"/>
        <pt x="344" y="1254" on="1"/>
        <pt x="344" y="1264" on="0"/>
        <pt x="350" y="1270" on="1"/>
        <pt x="350" y="1329" on="1"/>
        <pt x="344" y="1339" on="0"/>
        <pt x="344" y="1348" on="1"/>
        <pt x="344" y="1359" on="0"/>
        <pt x="360" y="1374" on="0"/>
        <pt x="371" y="1374" on="1"/>
        <pt x="382" y="1374" on="0"/>
        <pt x="397" y="1359" on="0"/>
        <pt x="397" y="1348" on="1"/>
        <pt x="397" y="1339" on="0"/>
        <pt x="391" y="1329" on="1"/>
      </contour>
    </TTGlyph>
    <TTGlyph name="divide" xMin="68" yMin="267" xMax="654" yMax="832">
      <contour>
        <pt x="395" y="280" on="1"/>
        <pt x="383" y="267" on="0"/>
        <pt x="360" y="267" on="1"/>
        <pt x="338" y="267" on="0"/>
        <pt x="315" y="293" on="0"/>
        <pt x="315" y="312" on="1"/>
        <pt x="315" y="332" on="0"/>
        <pt x="338" y="359" on="0"/>
        <pt x="360" y="359" on="1"/>
        <pt x="383" y="359" on="0"/>
        <pt x="407" y="332" on="0"/>
        <pt x="407" y="312" on="1"/>
        <pt x="407" y="293" on="0"/>
      </contour>
      <contour>
        <pt x="395" y="753" on="1"/>
        <pt x="383" y="740" on="0"/>
        <pt x="360" y="740" on="1"/>
        <pt x="338" y="740" on="0"/>
        <pt x="315" y="766" on="0"/>
        <pt x="315" y="785" on="1"/>
        <pt x="315" y="805" on="0"/>
        <pt x="338" y="832" on="0"/>
        <pt x="360" y="832" on="1"/>
        <pt x="383" y="832" on="0"/>
        <pt x="407" y="805" on="0"/>
        <pt x="407" y="785" on="1"/>
        <pt x="407" y="766" on="0"/>
      </contour>
      <contour>
        <pt x="609" y="572" on="1"/>
        <pt x="617" y="579" on="0"/>
        <pt x="627" y="579" on="1"/>
        <pt x="638" y="579" on="0"/>
        <pt x="654" y="563" on="0"/>
        <pt x="654" y="552" on="1"/>
        <pt x="654" y="541" on="0"/>
        <pt x="638" y="525" on="0"/>
        <pt x="627" y="525" on="1"/>
        <pt x="618" y="525" on="0"/>
        <pt x="609" y="531" on="1"/>
        <pt x="111" y="531" on="1"/>
        <pt x="105" y="525" on="0"/>
        <pt x="95" y="525" on="1"/>
        <pt x="84" y="525" on="0"/>
        <pt x="68" y="541" on="0"/>
        <pt x="68" y="552" on="1"/>
        <pt x="68" y="563" on="0"/>
        <pt x="84" y="579" on="0"/>
        <pt x="95" y="579" on="1"/>
        <pt x="105" y="579" on="0"/>
        <pt x="111" y="572" on="1"/>
      </contour>
    </TTGlyph>
    <TTGlyph name="dollar" xMin="70" yMin="-172" xMax="506" yMax="1604">
      <contour>
        <pt x="506" y="207" on="1"/>
        <pt x="506" y="163" on="0"/>
        <pt x="484" y="81" on="0"/>
        <pt x="434" y="18" on="0"/>
        <pt x="393" y="-1" on="1"/>
        <pt x="357" y="-17" on="0"/>
        <pt x="306" y="-20" on="1"/>
        <pt x="306" y="-127" on="1"/>
        <pt x="312" y="-136" on="0"/>
        <pt x="312" y="-145" on="1"/>
        <pt x="312" y="-156" on="0"/>
        <pt x="297" y="-172" on="0"/>
        <pt x="286" y="-172" on="1"/>
        <pt x="275" y="-172" on="0"/>
        <pt x="259" y="-156" on="0"/>
        <pt x="259" y="-145" on="1"/>
        <pt x="259" y="-136" on="0"/>
        <pt x="265" y="-127" on="1"/>
        <pt x="265" y="-19" on="1"/>
        <pt x="225" y="-16" on="0"/>
        <pt x="195" y="-3" on="1"/>
        <pt x="156" y="14" on="0"/>
        <pt x="105" y="71" on="0"/>
        <pt x="81" y="147" on="0"/>
        <pt x="78" y="188" on="1"/>
        <pt x="75" y="192" on="0"/>
        <pt x="72" y="202" on="0"/>
        <pt x="72" y="207" on="1"/>
        <pt x="72" y="218" on="0"/>
        <pt x="88" y="233" on="0"/>
        <pt x="99" y="233" on="1"/>
        <pt x="110" y="233" on="0"/>
        <pt x="125" y="218" on="0"/>
        <pt x="125" y="207" on="1"/>
        <pt x="125" y="202" on="0"/>
        <pt x="122" y="192" on="0"/>
        <pt x="119" y="188" on="1"/>
        <pt x="120" y="154" on="0"/>
        <pt x="140" y="93" on="0"/>
        <pt x="181" y="47" on="0"/>
        <pt x="245" y="20" on="0"/>
        <pt x="291" y="20" on="1"/>
        <pt x="340" y="20" on="0"/>
        <pt x="407" y="51" on="0"/>
        <pt x="447" y="104" on="0"/>
        <pt x="465" y="171" on="0"/>
        <pt x="465" y="207" on="1"/>
        <pt x="465" y="463" on="1"/>
        <pt x="465" y="515" on="0"/>
        <pt x="424" y="610" on="0"/>
        <pt x="386" y="645" on="1"/>
        <pt x="146" y="858" on="1"/>
        <pt x="121" y="880" on="0"/>
        <pt x="91" y="927" on="0"/>
        <pt x="75" y="973" on="0"/>
        <pt x="70" y="1020" on="0"/>
        <pt x="70" y="1044" on="1"/>
        <pt x="70" y="1221" on="1"/>
        <pt x="70" y="1264" on="0"/>
        <pt x="92" y="1348" on="0"/>
        <pt x="142" y="1414" on="0"/>
        <pt x="183" y="1434" on="1"/>
        <pt x="217" y="1450" on="0"/>
        <pt x="265" y="1453" on="1"/>
        <pt x="265" y="1559" on="1"/>
        <pt x="259" y="1568" on="0"/>
        <pt x="259" y="1577" on="1"/>
        <pt x="259" y="1588" on="0"/>
        <pt x="275" y="1604" on="0"/>
        <pt x="286" y="1604" on="1"/>
        <pt x="297" y="1604" on="0"/>
        <pt x="312" y="1588" on="0"/>
        <pt x="312" y="1577" on="1"/>
        <pt x="312" y="1568" on="0"/>
        <pt x="306" y="1559" on="1"/>
        <pt x="306" y="1453" on="1"/>
        <pt x="349" y="1450" on="0"/>
        <pt x="381" y="1436" on="1"/>
        <pt x="421" y="1418" on="0"/>
        <pt x="471" y="1358" on="0"/>
        <pt x="496" y="1281" on="0"/>
        <pt x="498" y="1239" on="1"/>
        <pt x="501" y="1236" on="0"/>
        <pt x="504" y="1226" on="0"/>
        <pt x="504" y="1221" on="1"/>
        <pt x="504" y="1210" on="0"/>
        <pt x="489" y="1194" on="0"/>
        <pt x="478" y="1194" on="1"/>
        <pt x="467" y="1194" on="0"/>
        <pt x="451" y="1210" on="0"/>
        <pt x="451" y="1221" on="1"/>
        <pt x="451" y="1231" on="0"/>
        <pt x="457" y="1237" on="1"/>
        <pt x="455" y="1270" on="0"/>
        <pt x="436" y="1333" on="0"/>
        <pt x="395" y="1383" on="0"/>
        <pt x="331" y="1413" on="0"/>
        <pt x="285" y="1413" on="1"/>
        <pt x="236" y="1413" on="0"/>
        <pt x="169" y="1379" on="0"/>
        <pt x="129" y="1325" on="0"/>
        <pt x="111" y="1256" on="0"/>
        <pt x="111" y="1221" on="1"/>
        <pt x="111" y="1044" on="1"/>
        <pt x="113" y="993" on="0"/>
        <pt x="140" y="914" on="0"/>
        <pt x="175" y="883" on="1"/>
        <pt x="416" y="670" on="1"/>
        <pt x="470" y="620" on="0"/>
        <pt x="506" y="514" on="0"/>
        <pt x="506" y="463" on="1"/>
      </contour>
    </TTGlyph>
    <TTGlyph name="dotaccent" xMin="94" yMin="1266" xMax="186" yMax="1358">
      <contour>
        <pt x="174" y="1279" on="1"/>
        <pt x="162" y="1266" on="0"/>
        <pt x="139" y="1266" on="1"/>
        <pt x="118" y="1266" on="0"/>
        <pt x="94" y="1292" on="0"/>
        <pt x="94" y="1311" on="1"/>
        <pt x="94" y="1331" on="0"/>
        <pt x="118" y="1358" on="0"/>
        <pt x="139" y="1358" on="1"/>
        <pt x="162" y="1358" on="0"/>
        <pt x="186" y="1331" on="0"/>
        <pt x="186" y="1311" on="1"/>
        <pt x="186" y="1292" on="0"/>
      </contour>
    </TTGlyph>
    <TTGlyph name="dotlessi" xMin="82" yMin="-20" xMax="135" yMax="1044">
      <contour>
        <pt x="129" y="23" on="1"/>
        <pt x="135" y="15" on="0"/>
        <pt x="135" y="6" on="1"/>
        <pt x="135" y="-5" on="0"/>
        <pt x="120" y="-20" on="0"/>
        <pt x="109" y="-20" on="1"/>
        <pt x="98" y="-20" on="0"/>
        <pt x="82" y="-5" on="0"/>
        <pt x="82" y="6" on="1"/>
        <pt x="82" y="15" on="0"/>
        <pt x="88" y="23" on="1"/>
        <pt x="88" y="999" on="1"/>
        <pt x="82" y="1009" on="0"/>
        <pt x="82" y="1018" on="1"/>
        <pt x="82" y="1029" on="0"/>
        <pt x="98" y="1044" on="0"/>
        <pt x="109" y="1044" on="1"/>
        <pt x="120" y="1044" on="0"/>
        <pt x="135" y="1029" on="0"/>
        <pt x="135" y="1018" on="1"/>
        <pt x="135" y="1009" on="0"/>
        <pt x="129" y="999" on="1"/>
      </contour>
    </TTGlyph>
    <TTGlyph name="e" xMin="72" yMin="-20" xMax="500" yMax="1044">
      <contour>
        <pt x="494" y="575" on="1"/>
        <pt x="113" y="575" on="1"/>
        <pt x="113" y="215" on="1"/>
        <pt x="113" y="179" on="0"/>
        <pt x="130" y="109" on="0"/>
        <pt x="169" y="54" on="0"/>
        <pt x="235" y="20" on="0"/>
        <pt x="283" y="20" on="1"/>
        <pt x="330" y="20" on="0"/>
        <pt x="394" y="50" on="0"/>
        <pt x="433" y="99" on="0"/>
        <pt x="451" y="163" on="0"/>
        <pt x="453" y="197" on="1"/>
        <pt x="450" y="200" on="0"/>
        <pt x="446" y="210" on="0"/>
        <pt x="446" y="213" on="1"/>
        <pt x="446" y="224" on="0"/>
        <pt x="462" y="240" on="0"/>
        <pt x="473" y="240" on="1"/>
        <pt x="484" y="240" on="0"/>
        <pt x="500" y="224" on="0"/>
        <pt x="500" y="213" on="1"/>
        <pt x="500" y="210" on="0"/>
        <pt x="497" y="200" on="0"/>
        <pt x="494" y="197" on="1"/>
        <pt x="491" y="155" on="0"/>
        <pt x="468" y="77" on="0"/>
        <pt x="420" y="17" on="0"/>
        <pt x="341" y="-20" on="0"/>
        <pt x="283" y="-20" on="1"/>
        <pt x="223" y="-20" on="0"/>
        <pt x="142" y="21" on="0"/>
        <pt x="93" y="87" on="0"/>
        <pt x="72" y="171" on="0"/>
        <pt x="72" y="215" on="1"/>
        <pt x="72" y="809" on="1"/>
        <pt x="72" y="853" on="0"/>
        <pt x="93" y="937" on="0"/>
        <pt x="142" y="1003" on="0"/>
        <pt x="223" y="1044" on="0"/>
        <pt x="283" y="1044" on="1"/>
        <pt x="343" y="1044" on="0"/>
        <pt x="423" y="1003" on="0"/>
        <pt x="473" y="937" on="0"/>
        <pt x="494" y="853" on="0"/>
        <pt x="494" y="809" on="1"/>
      </contour>
      <contour>
        <pt x="453" y="616" on="1"/>
        <pt x="453" y="809" on="1"/>
        <pt x="453" y="844" on="0"/>
        <pt x="437" y="914" on="0"/>
        <pt x="398" y="969" on="0"/>
        <pt x="332" y="1004" on="0"/>
        <pt x="283" y="1004" on="1"/>
        <pt x="235" y="1004" on="0"/>
        <pt x="169" y="969" on="0"/>
        <pt x="130" y="914" on="0"/>
        <pt x="113" y="844" on="0"/>
        <pt x="113" y="809" on="1"/>
        <pt x="113" y="616" on="1"/>
      </contour>
    </TTGlyph>
    <TTGlyph name="eacute" xMin="72" yMin="-20" xMax="510" yMax="1454">
      <component glyphName="e" x="0" y="0" flags="0x204"/>
      <component glyphName="acute" x="141" y="0" flags="0x4"/>
    </TTGlyph>
    <TTGlyph name="ecircumflex" xMin="24" yMin="-20" xMax="545" yMax="1454">
      <component glyphName="e" x="0" y="0" flags="0x204"/>
      <component glyphName="circumflex" x="-37" y="0" flags="0x4"/>
    </TTGlyph>
    <TTGlyph name="edieresis" xMin="72" yMin="-20" xMax="500" yMax="1374">
      <component glyphName="e" x="0" y="0" flags="0x204"/>
      <component glyphName="dieresis" x="31" y="0" flags="0x4"/>
    </TTGlyph>
    <TTGlyph name="egrave" xMin="72" yMin="-20" xMax="500" yMax="1454">
      <component glyphName="e" x="0" y="0" flags="0x204"/>
      <component glyphName="grave" x="18" y="0" flags="0x4"/>
    </TTGlyph>
    <TTGlyph name="eight" xMin="86" yMin="-20" xMax="512" yMax="1454">
      <contour>
        <pt x="512" y="207" on="1"/>
        <pt x="512" y="163" on="0"/>
        <pt x="490" y="81" on="0"/>
        <pt x="440" y="18" on="0"/>
        <pt x="358" y="-20" on="0"/>
        <pt x="299" y="-20" on="1"/>
        <pt x="238" y="-20" on="0"/>
        <pt x="156" y="18" on="0"/>
        <pt x="107" y="81" on="0"/>
        <pt x="86" y="163" on="0"/>
        <pt x="86" y="207" on="1"/>
        <pt x="86" y="811" on="1"/>
        <pt x="86" y="843" on="0"/>
        <pt x="98" y="907" on="0"/>
        <pt x="124" y="963" on="0"/>
        <pt x="166" y="1009" on="0"/>
        <pt x="197" y="1024" on="1"/>
        <pt x="166" y="1037" on="0"/>
        <pt x="124" y="1080" on="0"/>
        <pt x="98" y="1134" on="0"/>
        <pt x="86" y="1197" on="0"/>
        <pt x="86" y="1229" on="1"/>
        <pt x="86" y="1271" on="0"/>
        <pt x="107" y="1352" on="0"/>
        <pt x="156" y="1415" on="0"/>
        <pt x="238" y="1454" on="0"/>
        <pt x="299" y="1454" on="1"/>
        <pt x="360" y="1454" on="0"/>
        <pt x="441" y="1417" on="0"/>
        <pt x="491" y="1355" on="0"/>
        <pt x="512" y="1274" on="0"/>
        <pt x="512" y="1229" on="1"/>
        <pt x="512" y="1197" on="0"/>
        <pt x="500" y="1134" on="0"/>
        <pt x="474" y="1080" on="0"/>
        <pt x="430" y="1037" on="0"/>
        <pt x="399" y="1024" on="1"/>
        <pt x="429" y="1009" on="0"/>
        <pt x="472" y="963" on="0"/>
        <pt x="499" y="907" on="0"/>
        <pt x="512" y="843" on="0"/>
        <pt x="512" y="811" on="1"/>
      </contour>
      <contour>
        <pt x="127" y="207" on="1"/>
        <pt x="127" y="171" on="0"/>
        <pt x="144" y="104" on="0"/>
        <pt x="184" y="51" on="0"/>
        <pt x="250" y="20" on="0"/>
        <pt x="299" y="20" on="1"/>
        <pt x="348" y="20" on="0"/>
        <pt x="414" y="51" on="0"/>
        <pt x="454" y="104" on="0"/>
        <pt x="471" y="171" on="0"/>
        <pt x="471" y="207" on="1"/>
        <pt x="471" y="811" on="1"/>
        <pt x="471" y="846" on="0"/>
        <pt x="454" y="915" on="0"/>
        <pt x="414" y="970" on="0"/>
        <pt x="348" y="1004" on="0"/>
        <pt x="299" y="1004" on="1"/>
        <pt x="250" y="1004" on="0"/>
        <pt x="184" y="970" on="0"/>
        <pt x="144" y="915" on="0"/>
        <pt x="127" y="846" on="0"/>
        <pt x="127" y="811" on="1"/>
      </contour>
      <contour>
        <pt x="307" y="1044" on="1"/>
        <pt x="353" y="1046" on="0"/>
        <pt x="416" y="1078" on="0"/>
        <pt x="454" y="1129" on="0"/>
        <pt x="471" y="1194" on="0"/>
        <pt x="471" y="1229" on="1"/>
        <pt x="471" y="1263" on="0"/>
        <pt x="454" y="1329" on="0"/>
        <pt x="413" y="1381" on="0"/>
        <pt x="347" y="1413" on="0"/>
        <pt x="299" y="1413" on="1"/>
        <pt x="251" y="1413" on="0"/>
        <pt x="185" y="1381" on="0"/>
        <pt x="144" y="1329" on="0"/>
        <pt x="127" y="1263" on="0"/>
        <pt x="127" y="1229" on="1"/>
        <pt x="127" y="1196" on="0"/>
        <pt x="144" y="1131" on="0"/>
        <pt x="182" y="1079" on="0"/>
        <pt x="244" y="1046" on="0"/>
        <pt x="289" y="1044" on="1"/>
        <pt x="299" y="1044" on="1"/>
      </contour>
    </TTGlyph>
    <TTGlyph name="emdash" xMin="45" yMin="569" xMax="797" yMax="623">
      <contour>
        <pt x="752" y="616" on="1"/>
        <pt x="760" y="623" on="0"/>
        <pt x="770" y="623" on="1"/>
        <pt x="781" y="623" on="0"/>
        <pt x="797" y="607" on="0"/>
        <pt x="797" y="596" on="1"/>
        <pt x="797" y="585" on="0"/>
        <pt x="781" y="569" on="0"/>
        <pt x="770" y="569" on="1"/>
        <pt x="761" y="569" on="0"/>
        <pt x="752" y="575" on="1"/>
        <pt x="88" y="575" on="1"/>
        <pt x="82" y="569" on="0"/>
        <pt x="72" y="569" on="1"/>
        <pt x="61" y="569" on="0"/>
        <pt x="45" y="585" on="0"/>
        <pt x="45" y="596" on="1"/>
        <pt x="45" y="607" on="0"/>
        <pt x="61" y="623" on="0"/>
        <pt x="72" y="623" on="1"/>
        <pt x="82" y="623" on="0"/>
        <pt x="88" y="616" on="1"/>
      </contour>
    </TTGlyph>
    <TTGlyph name="endash" xMin="45" yMin="569" xMax="631" yMax="623">
      <contour>
        <pt x="586" y="616" on="1"/>
        <pt x="594" y="623" on="0"/>
        <pt x="604" y="623" on="1"/>
        <pt x="615" y="623" on="0"/>
        <pt x="631" y="607" on="0"/>
        <pt x="631" y="596" on="1"/>
        <pt x="631" y="585" on="0"/>
        <pt x="615" y="569" on="0"/>
        <pt x="604" y="569" on="1"/>
        <pt x="595" y="569" on="0"/>
        <pt x="586" y="575" on="1"/>
        <pt x="88" y="575" on="1"/>
        <pt x="82" y="569" on="0"/>
        <pt x="72" y="569" on="1"/>
        <pt x="61" y="569" on="0"/>
        <pt x="45" y="585" on="0"/>
        <pt x="45" y="596" on="1"/>
        <pt x="45" y="607" on="0"/>
        <pt x="61" y="623" on="0"/>
        <pt x="72" y="623" on="1"/>
        <pt x="82" y="623" on="0"/>
        <pt x="88" y="616" on="1"/>
      </contour>
    </TTGlyph>
    <TTGlyph name="equal" xMin="88" yMin="624" xMax="674" yMax="863">
      <contour>
        <pt x="629" y="671" on="1"/>
        <pt x="637" y="678" on="0"/>
        <pt x="647" y="678" on="1"/>
        <pt x="658" y="678" on="0"/>
        <pt x="674" y="662" on="0"/>
        <pt x="674" y="651" on="1"/>
        <pt x="674" y="640" on="0"/>
        <pt x="658" y="624" on="0"/>
        <pt x="647" y="624" on="1"/>
        <pt x="638" y="624" on="0"/>
        <pt x="629" y="630" on="1"/>
        <pt x="131" y="630" on="1"/>
        <pt x="125" y="624" on="0"/>
        <pt x="115" y="624" on="1"/>
        <pt x="104" y="624" on="0"/>
        <pt x="88" y="640" on="0"/>
        <pt x="88" y="651" on="1"/>
        <pt x="88" y="662" on="0"/>
        <pt x="104" y="678" on="0"/>
        <pt x="115" y="678" on="1"/>
        <pt x="125" y="678" on="0"/>
        <pt x="131" y="671" on="1"/>
      </contour>
      <contour>
        <pt x="629" y="856" on="1"/>
        <pt x="637" y="863" on="0"/>
        <pt x="647" y="863" on="1"/>
        <pt x="658" y="863" on="0"/>
        <pt x="674" y="847" on="0"/>
        <pt x="674" y="836" on="1"/>
        <pt x="674" y="825" on="0"/>
        <pt x="658" y="809" on="0"/>
        <pt x="647" y="809" on="1"/>
        <pt x="638" y="809" on="0"/>
        <pt x="629" y="815" on="1"/>
        <pt x="131" y="815" on="1"/>
        <pt x="125" y="809" on="0"/>
        <pt x="115" y="809" on="1"/>
        <pt x="104" y="809" on="0"/>
        <pt x="88" y="825" on="0"/>
        <pt x="88" y="836" on="1"/>
        <pt x="88" y="847" on="0"/>
        <pt x="104" y="863" on="0"/>
        <pt x="115" y="863" on="1"/>
        <pt x="125" y="863" on="0"/>
        <pt x="131" y="856" on="1"/>
      </contour>
    </TTGlyph>
    <TTGlyph name="eth" xMin="72" yMin="-20" xMax="498" yMax="1454">
      <contour>
        <pt x="494" y="215" on="1"/>
        <pt x="494" y="171" on="0"/>
        <pt x="473" y="87" on="0"/>
        <pt x="423" y="21" on="0"/>
        <pt x="343" y="-20" on="0"/>
        <pt x="283" y="-20" on="1"/>
        <pt x="223" y="-20" on="0"/>
        <pt x="142" y="21" on="0"/>
        <pt x="93" y="87" on="0"/>
        <pt x="72" y="171" on="0"/>
        <pt x="72" y="215" on="1"/>
        <pt x="72" y="809" on="1"/>
        <pt x="72" y="853" on="0"/>
        <pt x="93" y="937" on="0"/>
        <pt x="142" y="1003" on="0"/>
        <pt x="223" y="1044" on="0"/>
        <pt x="283" y="1044" on="1"/>
        <pt x="320" y="1044" on="0"/>
        <pt x="376" y="1028" on="0"/>
        <pt x="399" y="1014" on="1"/>
        <pt x="338" y="1202" on="1"/>
        <pt x="248" y="1171" on="1"/>
        <pt x="241" y="1161" on="0"/>
        <pt x="227" y="1161" on="1"/>
        <pt x="216" y="1161" on="0"/>
        <pt x="201" y="1177" on="0"/>
        <pt x="201" y="1188" on="1"/>
        <pt x="201" y="1199" on="0"/>
        <pt x="216" y="1214" on="0"/>
        <pt x="227" y="1214" on="1"/>
        <pt x="229" y="1214" on="0"/>
        <pt x="234" y="1212" on="0"/>
        <pt x="238" y="1212" on="1"/>
        <pt x="324" y="1241" on="1"/>
        <pt x="270" y="1405" on="1"/>
        <pt x="258" y="1411" on="0"/>
        <pt x="258" y="1427" on="1"/>
        <pt x="258" y="1438" on="0"/>
        <pt x="274" y="1454" on="0"/>
        <pt x="285" y="1454" on="1"/>
        <pt x="296" y="1454" on="0"/>
        <pt x="311" y="1438" on="0"/>
        <pt x="311" y="1427" on="1"/>
        <pt x="311" y="1419" on="0"/>
        <pt x="309" y="1415" on="1"/>
        <pt x="362" y="1255" on="1"/>
        <pt x="449" y="1284" on="1"/>
        <pt x="458" y="1296" on="0"/>
        <pt x="471" y="1296" on="1"/>
        <pt x="482" y="1296" on="0"/>
        <pt x="498" y="1281" on="0"/>
        <pt x="498" y="1270" on="1"/>
        <pt x="498" y="1259" on="0"/>
        <pt x="482" y="1243" on="0"/>
        <pt x="471" y="1243" on="1"/>
        <pt x="463" y="1243" on="0"/>
        <pt x="459" y="1245" on="1"/>
        <pt x="375" y="1217" on="1"/>
        <pt x="475" y="920" on="1"/>
        <pt x="494" y="865" on="0"/>
        <pt x="494" y="809" on="1"/>
      </contour>
      <contour>
        <pt x="113" y="215" on="1"/>
        <pt x="113" y="179" on="0"/>
        <pt x="130" y="109" on="0"/>
        <pt x="169" y="54" on="0"/>
        <pt x="235" y="20" on="0"/>
        <pt x="283" y="20" on="1"/>
        <pt x="332" y="20" on="0"/>
        <pt x="398" y="54" on="0"/>
        <pt x="437" y="109" on="0"/>
        <pt x="453" y="179" on="0"/>
        <pt x="453" y="215" on="1"/>
        <pt x="453" y="809" on="1"/>
        <pt x="453" y="844" on="0"/>
        <pt x="437" y="914" on="0"/>
        <pt x="398" y="969" on="0"/>
        <pt x="332" y="1004" on="0"/>
        <pt x="283" y="1004" on="1"/>
        <pt x="235" y="1004" on="0"/>
        <pt x="169" y="969" on="0"/>
        <pt x="130" y="914" on="0"/>
        <pt x="113" y="844" on="0"/>
        <pt x="113" y="809" on="1"/>
      </contour>
    </TTGlyph>
    <TTGlyph name="exclam" xMin="86" yMin="-20" xMax="178" yMax="1454">
      <contour>
        <pt x="152" y="309" on="1"/>
        <pt x="158" y="303" on="0"/>
        <pt x="158" y="293" on="1"/>
        <pt x="158" y="282" on="0"/>
        <pt x="142" y="266" on="0"/>
        <pt x="131" y="266" on="1"/>
        <pt x="120" y="266" on="0"/>
        <pt x="104" y="282" on="0"/>
        <pt x="104" y="293" on="1"/>
        <pt x="104" y="303" on="0"/>
        <pt x="111" y="309" on="1"/>
        <pt x="111" y="1409" on="1"/>
        <pt x="104" y="1417" on="0"/>
        <pt x="104" y="1427" on="1"/>
        <pt x="104" y="1438" on="0"/>
        <pt x="120" y="1454" on="0"/>
        <pt x="131" y="1454" on="1"/>
        <pt x="142" y="1454" on="0"/>
        <pt x="158" y="1438" on="0"/>
        <pt x="158" y="1427" on="1"/>
        <pt x="158" y="1418" on="0"/>
        <pt x="152" y="1409" on="1"/>
      </contour>
      <contour>
        <pt x="166" y="-7" on="1"/>
        <pt x="154" y="-20" on="0"/>
        <pt x="131" y="-20" on="1"/>
        <pt x="109" y="-20" on="0"/>
        <pt x="86" y="6" on="0"/>
        <pt x="86" y="25" on="1"/>
        <pt x="86" y="45" on="0"/>
        <pt x="109" y="72" on="0"/>
        <pt x="131" y="72" on="1"/>
        <pt x="154" y="72" on="0"/>
        <pt x="178" y="45" on="0"/>
        <pt x="178" y="25" on="1"/>
        <pt x="178" y="6" on="0"/>
      </contour>
    </TTGlyph>
    <TTGlyph name="exclamdown" xMin="82" yMin="-20" xMax="174" yMax="1454">
      <contour>
        <pt x="148" y="23" on="1"/>
        <pt x="154" y="15" on="0"/>
        <pt x="154" y="6" on="1"/>
        <pt x="154" y="-5" on="0"/>
        <pt x="138" y="-20" on="0"/>
        <pt x="127" y="-20" on="1"/>
        <pt x="116" y="-20" on="0"/>
        <pt x="100" y="-5" on="0"/>
        <pt x="100" y="6" on="1"/>
        <pt x="100" y="16" on="0"/>
        <pt x="107" y="23" on="1"/>
        <pt x="107" y="1122" on="1"/>
        <pt x="100" y="1130" on="0"/>
        <pt x="100" y="1141" on="1"/>
        <pt x="100" y="1152" on="0"/>
        <pt x="116" y="1167" on="0"/>
        <pt x="127" y="1167" on="1"/>
        <pt x="138" y="1167" on="0"/>
        <pt x="154" y="1152" on="0"/>
        <pt x="154" y="1141" on="1"/>
        <pt x="154" y="1131" on="0"/>
        <pt x="148" y="1122" on="1"/>
      </contour>
      <contour>
        <pt x="162" y="1375" on="1"/>
        <pt x="150" y="1362" on="0"/>
        <pt x="127" y="1362" on="1"/>
        <pt x="105" y="1362" on="0"/>
        <pt x="82" y="1389" on="0"/>
        <pt x="82" y="1409" on="1"/>
        <pt x="82" y="1428" on="0"/>
        <pt x="105" y="1454" on="0"/>
        <pt x="127" y="1454" on="1"/>
        <pt x="150" y="1454" on="0"/>
        <pt x="174" y="1428" on="0"/>
        <pt x="174" y="1409" on="1"/>
        <pt x="174" y="1389" on="0"/>
      </contour>
    </TTGlyph>
    <TTGlyph name="f" xMin="6" yMin="-20" xMax="387" yMax="1440">
      <contour>
        <pt x="182" y="23" on="1"/>
        <pt x="188" y="15" on="0"/>
        <pt x="188" y="6" on="1"/>
        <pt x="188" y="-5" on="0"/>
        <pt x="173" y="-20" on="0"/>
        <pt x="162" y="-20" on="1"/>
        <pt x="151" y="-20" on="0"/>
        <pt x="135" y="-5" on="0"/>
        <pt x="135" y="6" on="1"/>
        <pt x="135" y="15" on="0"/>
        <pt x="141" y="23" on="1"/>
        <pt x="141" y="983" on="1"/>
        <pt x="49" y="983" on="1"/>
        <pt x="43" y="977" on="0"/>
        <pt x="33" y="977" on="1"/>
        <pt x="22" y="977" on="0"/>
        <pt x="6" y="993" on="0"/>
        <pt x="6" y="1004" on="1"/>
        <pt x="6" y="1015" on="0"/>
        <pt x="22" y="1030" on="0"/>
        <pt x="33" y="1030" on="1"/>
        <pt x="43" y="1030" on="0"/>
        <pt x="49" y="1024" on="1"/>
        <pt x="141" y="1024" on="1"/>
        <pt x="141" y="1198" on="1"/>
        <pt x="141" y="1240" on="0"/>
        <pt x="161" y="1323" on="0"/>
        <pt x="208" y="1389" on="0"/>
        <pt x="285" y="1431" on="0"/>
        <pt x="342" y="1434" on="1"/>
        <pt x="351" y="1440" on="0"/>
        <pt x="360" y="1440" on="1"/>
        <pt x="371" y="1440" on="0"/>
        <pt x="387" y="1424" on="0"/>
        <pt x="387" y="1413" on="1"/>
        <pt x="387" y="1402" on="0"/>
        <pt x="371" y="1386" on="0"/>
        <pt x="360" y="1386" on="1"/>
        <pt x="352" y="1386" on="0"/>
        <pt x="342" y="1393" on="1"/>
        <pt x="297" y="1390" on="0"/>
        <pt x="236" y="1355" on="0"/>
        <pt x="199" y="1300" on="0"/>
        <pt x="183" y="1232" on="0"/>
        <pt x="182" y="1198" on="1"/>
        <pt x="182" y="1024" on="1"/>
        <pt x="342" y="1024" on="1"/>
        <pt x="351" y="1030" on="0"/>
        <pt x="360" y="1030" on="1"/>
        <pt x="371" y="1030" on="0"/>
        <pt x="387" y="1015" on="0"/>
        <pt x="387" y="1004" on="1"/>
        <pt x="387" y="993" on="0"/>
        <pt x="371" y="977" on="0"/>
        <pt x="360" y="977" on="1"/>
        <pt x="351" y="977" on="0"/>
        <pt x="342" y="983" on="1"/>
        <pt x="182" y="983" on="1"/>
      </contour>
    </TTGlyph>
    <TTGlyph name="five" xMin="39" yMin="-20" xMax="481" yMax="1440">
      <contour>
        <pt x="471" y="207" on="1"/>
        <pt x="471" y="163" on="0"/>
        <pt x="449" y="81" on="0"/>
        <pt x="399" y="18" on="0"/>
        <pt x="317" y="-20" on="0"/>
        <pt x="258" y="-20" on="1"/>
        <pt x="201" y="-20" on="0"/>
        <pt x="122" y="13" on="0"/>
        <pt x="73" y="68" on="0"/>
        <pt x="48" y="141" on="0"/>
        <pt x="45" y="182" on="1"/>
        <pt x="39" y="188" on="0"/>
        <pt x="39" y="201" on="1"/>
        <pt x="39" y="212" on="0"/>
        <pt x="55" y="227" on="0"/>
        <pt x="66" y="227" on="1"/>
        <pt x="77" y="227" on="0"/>
        <pt x="92" y="212" on="0"/>
        <pt x="92" y="201" on="1"/>
        <pt x="92" y="190" on="0"/>
        <pt x="86" y="184" on="1"/>
        <pt x="88" y="151" on="0"/>
        <pt x="109" y="91" on="0"/>
        <pt x="149" y="46" on="0"/>
        <pt x="213" y="20" on="0"/>
        <pt x="258" y="20" on="1"/>
        <pt x="307" y="20" on="0"/>
        <pt x="373" y="51" on="0"/>
        <pt x="413" y="104" on="0"/>
        <pt x="430" y="171" on="0"/>
        <pt x="430" y="207" on="1"/>
        <pt x="430" y="797" on="1"/>
        <pt x="430" y="833" on="0"/>
        <pt x="413" y="900" on="0"/>
        <pt x="373" y="952" on="0"/>
        <pt x="307" y="983" on="0"/>
        <pt x="258" y="983" on="1"/>
        <pt x="86" y="983" on="1"/>
        <pt x="86" y="1434" on="1"/>
        <pt x="436" y="1434" on="1"/>
        <pt x="445" y="1440" on="0"/>
        <pt x="455" y="1440" on="1"/>
        <pt x="466" y="1440" on="0"/>
        <pt x="481" y="1424" on="0"/>
        <pt x="481" y="1413" on="1"/>
        <pt x="481" y="1402" on="0"/>
        <pt x="466" y="1386" on="0"/>
        <pt x="455" y="1386" on="1"/>
        <pt x="446" y="1386" on="0"/>
        <pt x="436" y="1393" on="1"/>
        <pt x="127" y="1393" on="1"/>
        <pt x="127" y="1024" on="1"/>
        <pt x="258" y="1024" on="1"/>
        <pt x="317" y="1024" on="0"/>
        <pt x="399" y="986" on="0"/>
        <pt x="449" y="922" on="0"/>
        <pt x="471" y="840" on="0"/>
        <pt x="471" y="797" on="1"/>
      </contour>
    </TTGlyph>
    <TTGlyph name="foundryicon" xMin="104" yMin="283" xMax="2062" yMax="647">
      <contour>
        <pt x="2062" y="514" on="1"/>
        <pt x="2030" y="514" on="1"/>
        <pt x="2032" y="510" on="0"/>
        <pt x="2032" y="504" on="1"/>
        <pt x="2032" y="475" on="0"/>
        <pt x="1987" y="432" on="0"/>
        <pt x="1939" y="432" on="1"/>
        <pt x="1921" y="432" on="0"/>
        <pt x="1915" y="434" on="1"/>
        <pt x="1915" y="403" on="1"/>
        <pt x="1952" y="403" on="1"/>
        <pt x="2032" y="403" on="0"/>
        <pt x="2032" y="330" on="1"/>
        <pt x="2032" y="313" on="0"/>
        <pt x="2023" y="291" on="0"/>
        <pt x="2019" y="283" on="1"/>
        <pt x="1964" y="283" on="1"/>
        <pt x="1964" y="342" on="1"/>
        <pt x="1870" y="342" on="1"/>
        <pt x="1860" y="350" on="0"/>
        <pt x="1849" y="375" on="0"/>
        <pt x="1849" y="387" on="1"/>
        <pt x="1849" y="424" on="0"/>
        <pt x="1878" y="449" on="1"/>
        <pt x="1849" y="465" on="0"/>
        <pt x="1849" y="506" on="1"/>
        <pt x="1849" y="539" on="0"/>
        <pt x="1896" y="582" on="0"/>
        <pt x="1937" y="582" on="1"/>
        <pt x="1974" y="582" on="0"/>
        <pt x="2001" y="561" on="1"/>
        <pt x="2017" y="582" on="0"/>
        <pt x="2040" y="582" on="1"/>
        <pt x="2048" y="582" on="0"/>
        <pt x="2056" y="580" on="0"/>
        <pt x="2062" y="578" on="1"/>
      </contour>
      <contour>
        <pt x="502" y="358" on="1"/>
        <pt x="489" y="313" on="0"/>
        <pt x="442" y="283" on="0"/>
        <pt x="414" y="283" on="1"/>
        <pt x="375" y="283" on="0"/>
        <pt x="360" y="297" on="1"/>
        <pt x="360" y="350" on="1"/>
        <pt x="395" y="350" on="1"/>
        <pt x="428" y="350" on="0"/>
        <pt x="438" y="373" on="1"/>
        <pt x="410" y="373" on="1"/>
        <pt x="360" y="514" on="1"/>
        <pt x="340" y="514" on="1"/>
        <pt x="340" y="578" on="1"/>
        <pt x="418" y="578" on="1"/>
        <pt x="446" y="477" on="1"/>
        <pt x="457" y="428" on="1"/>
        <pt x="479" y="514" on="1"/>
        <pt x="461" y="514" on="1"/>
        <pt x="461" y="578" on="1"/>
        <pt x="549" y="578" on="1"/>
        <pt x="549" y="514" on="1"/>
      </contour>
      <contour>
        <pt x="324" y="383" on="1"/>
        <pt x="287" y="367" on="0"/>
        <pt x="240" y="367" on="1"/>
        <pt x="176" y="367" on="0"/>
        <pt x="104" y="438" on="0"/>
        <pt x="104" y="502" on="1"/>
        <pt x="104" y="567" on="0"/>
        <pt x="174" y="647" on="0"/>
        <pt x="244" y="647" on="1"/>
        <pt x="262" y="647" on="0"/>
        <pt x="303" y="639" on="0"/>
        <pt x="324" y="633" on="1"/>
        <pt x="324" y="551" on="1"/>
        <pt x="260" y="551" on="1"/>
        <pt x="260" y="582" on="1"/>
        <pt x="254" y="584" on="0"/>
        <pt x="242" y="584" on="1"/>
        <pt x="213" y="584" on="0"/>
        <pt x="182" y="543" on="0"/>
        <pt x="182" y="510" on="1"/>
        <pt x="182" y="434" on="0"/>
        <pt x="258" y="434" on="1"/>
        <pt x="324" y="434" on="1"/>
      </contour>
      <contour>
        <pt x="1532" y="367" on="1"/>
        <pt x="1432" y="367" on="0"/>
        <pt x="1432" y="473" on="1"/>
        <pt x="1432" y="524" on="0"/>
        <pt x="1487" y="582" on="0"/>
        <pt x="1534" y="582" on="1"/>
        <pt x="1581" y="582" on="0"/>
        <pt x="1636" y="526" on="0"/>
        <pt x="1636" y="475" on="1"/>
        <pt x="1636" y="424" on="0"/>
        <pt x="1581" y="367" on="0"/>
      </contour>
      <contour>
        <pt x="991" y="567" on="1"/>
        <pt x="1010" y="573" on="0"/>
        <pt x="1044" y="582" on="0"/>
        <pt x="1065" y="582" on="1"/>
        <pt x="1159" y="582" on="0"/>
        <pt x="1159" y="504" on="1"/>
        <pt x="1159" y="434" on="1"/>
        <pt x="1182" y="434" on="1"/>
        <pt x="1182" y="379" on="1"/>
        <pt x="1165" y="369" on="0"/>
        <pt x="1141" y="369" on="1"/>
        <pt x="1108" y="369" on="0"/>
        <pt x="1096" y="383" on="1"/>
        <pt x="1077" y="367" on="0"/>
        <pt x="1044" y="367" on="1"/>
        <pt x="1016" y="367" on="0"/>
        <pt x="975" y="399" on="0"/>
        <pt x="975" y="430" on="1"/>
        <pt x="975" y="459" on="0"/>
        <pt x="1012" y="492" on="0"/>
        <pt x="1055" y="492" on="1"/>
        <pt x="1087" y="492" on="1"/>
        <pt x="1087" y="494" on="1"/>
        <pt x="1087" y="502" on="0"/>
        <pt x="1069" y="514" on="0"/>
        <pt x="1042" y="514" on="1"/>
        <pt x="991" y="514" on="1"/>
      </contour>
      <contour>
        <pt x="944" y="434" on="1"/>
        <pt x="944" y="381" on="1"/>
        <pt x="928" y="373" on="0"/>
        <pt x="887" y="367" on="0"/>
        <pt x="868" y="367" on="1"/>
        <pt x="815" y="367" on="0"/>
        <pt x="760" y="422" on="0"/>
        <pt x="760" y="471" on="1"/>
        <pt x="760" y="520" on="0"/>
        <pt x="809" y="582" on="0"/>
        <pt x="860" y="582" on="1"/>
        <pt x="901" y="582" on="0"/>
        <pt x="950" y="532" on="0"/>
        <pt x="950" y="496" on="1"/>
        <pt x="950" y="487" on="0"/>
        <pt x="948" y="469" on="0"/>
        <pt x="946" y="459" on="1"/>
        <pt x="834" y="459" on="1"/>
        <pt x="842" y="434" on="0"/>
        <pt x="885" y="434" on="1"/>
      </contour>
      <contour>
        <pt x="1661" y="514" on="1"/>
        <pt x="1661" y="578" on="1"/>
        <pt x="1731" y="578" on="1"/>
        <pt x="1751" y="545" on="1"/>
        <pt x="1755" y="555" on="0"/>
        <pt x="1765" y="565" on="0"/>
        <pt x="1772" y="571" on="1"/>
        <pt x="1786" y="582" on="0"/>
        <pt x="1802" y="582" on="1"/>
        <pt x="1815" y="582" on="0"/>
        <pt x="1827" y="578" on="1"/>
        <pt x="1827" y="514" on="1"/>
        <pt x="1757" y="514" on="1"/>
        <pt x="1757" y="434" on="1"/>
        <pt x="1792" y="434" on="1"/>
        <pt x="1792" y="373" on="1"/>
        <pt x="1665" y="373" on="1"/>
        <pt x="1665" y="434" on="1"/>
        <pt x="1683" y="434" on="1"/>
        <pt x="1683" y="514" on="1"/>
      </contour>
      <contour>
        <pt x="578" y="514" on="1"/>
        <pt x="578" y="578" on="1"/>
        <pt x="647" y="578" on="1"/>
        <pt x="668" y="545" on="1"/>
        <pt x="672" y="555" on="0"/>
        <pt x="682" y="565" on="0"/>
        <pt x="688" y="571" on="1"/>
        <pt x="702" y="582" on="0"/>
        <pt x="719" y="582" on="1"/>
        <pt x="731" y="582" on="0"/>
        <pt x="743" y="578" on="1"/>
        <pt x="743" y="514" on="1"/>
        <pt x="674" y="514" on="1"/>
        <pt x="674" y="434" on="1"/>
        <pt x="709" y="434" on="1"/>
        <pt x="709" y="373" on="1"/>
        <pt x="582" y="373" on="1"/>
        <pt x="582" y="434" on="1"/>
        <pt x="602" y="434" on="1"/>
        <pt x="602" y="514" on="1"/>
      </contour>
      <contour>
        <pt x="1206" y="584" on="1"/>
        <pt x="1182" y="584" on="1"/>
        <pt x="1182" y="647" on="1"/>
        <pt x="1278" y="647" on="1"/>
        <pt x="1278" y="434" on="1"/>
        <pt x="1307" y="434" on="1"/>
        <pt x="1307" y="377" on="1"/>
        <pt x="1288" y="369" on="0"/>
        <pt x="1262" y="369" on="1"/>
        <pt x="1206" y="369" on="0"/>
        <pt x="1206" y="426" on="1"/>
      </contour>
      <contour>
        <pt x="1333" y="408" on="1"/>
        <pt x="1333" y="424" on="0"/>
        <pt x="1354" y="449" on="0"/>
        <pt x="1374" y="449" on="1"/>
        <pt x="1397" y="449" on="0"/>
        <pt x="1419" y="424" on="0"/>
        <pt x="1419" y="408" on="1"/>
        <pt x="1419" y="391" on="0"/>
        <pt x="1397" y="369" on="0"/>
        <pt x="1374" y="369" on="1"/>
        <pt x="1354" y="369" on="0"/>
        <pt x="1333" y="391" on="0"/>
      </contour>
      <contour>
        <pt x="1534" y="422" on="1"/>
        <pt x="1563" y="422" on="0"/>
        <pt x="1563" y="475" on="1"/>
        <pt x="1563" y="524" on="0"/>
        <pt x="1534" y="524" on="1"/>
        <pt x="1505" y="524" on="0"/>
        <pt x="1505" y="475" on="1"/>
        <pt x="1505" y="422" on="0"/>
      </contour>
      <contour>
        <pt x="1917" y="506" on="1"/>
        <pt x="1917" y="475" on="0"/>
        <pt x="1942" y="475" on="1"/>
        <pt x="1962" y="475" on="0"/>
        <pt x="1962" y="506" on="1"/>
        <pt x="1962" y="537" on="0"/>
        <pt x="1942" y="537" on="1"/>
        <pt x="1917" y="537" on="0"/>
      </contour>
      <contour>
        <pt x="1065" y="418" on="1"/>
        <pt x="1079" y="418" on="0"/>
        <pt x="1087" y="424" on="1"/>
        <pt x="1087" y="455" on="1"/>
        <pt x="1071" y="455" on="1"/>
        <pt x="1044" y="455" on="0"/>
        <pt x="1044" y="436" on="1"/>
        <pt x="1044" y="418" on="0"/>
      </contour>
      <contour>
        <pt x="858" y="528" on="1"/>
        <pt x="838" y="528" on="0"/>
        <pt x="831" y="496" on="1"/>
        <pt x="883" y="496" on="1"/>
        <pt x="883" y="528" on="0"/>
      </contour>
    </TTGlyph>
    <TTGlyph name="four" xMin="2" yMin="-20" xMax="498" yMax="1454">
      <contour>
        <pt x="395" y="23" on="1"/>
        <pt x="401" y="15" on="0"/>
        <pt x="401" y="6" on="1"/>
        <pt x="401" y="-5" on="0"/>
        <pt x="386" y="-20" on="0"/>
        <pt x="375" y="-20" on="1"/>
        <pt x="364" y="-20" on="0"/>
        <pt x="348" y="-5" on="0"/>
        <pt x="348" y="6" on="1"/>
        <pt x="348" y="15" on="0"/>
        <pt x="354" y="23" on="1"/>
        <pt x="354" y="983" on="1"/>
        <pt x="2" y="983" on="1"/>
        <pt x="2" y="1024" on="1"/>
        <pt x="348" y="1427" on="1"/>
        <pt x="348" y="1438" on="0"/>
        <pt x="364" y="1454" on="0"/>
        <pt x="375" y="1454" on="1"/>
        <pt x="386" y="1454" on="0"/>
        <pt x="401" y="1438" on="0"/>
        <pt x="401" y="1427" on="1"/>
        <pt x="401" y="1418" on="0"/>
        <pt x="395" y="1409" on="1"/>
        <pt x="395" y="1024" on="1"/>
        <pt x="453" y="1024" on="1"/>
        <pt x="462" y="1030" on="0"/>
        <pt x="471" y="1030" on="1"/>
        <pt x="482" y="1030" on="0"/>
        <pt x="498" y="1015" on="0"/>
        <pt x="498" y="1004" on="1"/>
        <pt x="498" y="993" on="0"/>
        <pt x="482" y="977" on="0"/>
        <pt x="471" y="977" on="1"/>
        <pt x="462" y="977" on="0"/>
        <pt x="453" y="983" on="1"/>
        <pt x="395" y="983" on="1"/>
      </contour>
      <contour>
        <pt x="354" y="1024" on="1"/>
        <pt x="354" y="1374" on="1"/>
        <pt x="51" y="1024" on="1"/>
      </contour>
    </TTGlyph>
    <TTGlyph name="foursuperior" xMin="25" yMin="801" xMax="299" yMax="1454">
      <contour>
        <pt x="238" y="844" on="1"/>
        <pt x="244" y="838" on="0"/>
        <pt x="244" y="827" on="1"/>
        <pt x="244" y="816" on="0"/>
        <pt x="228" y="801" on="0"/>
        <pt x="217" y="801" on="1"/>
        <pt x="206" y="801" on="0"/>
        <pt x="190" y="816" on="0"/>
        <pt x="190" y="827" on="1"/>
        <pt x="190" y="837" on="0"/>
        <pt x="197" y="844" on="1"/>
        <pt x="197" y="1192" on="1"/>
        <pt x="25" y="1192" on="1"/>
        <pt x="25" y="1233" on="1"/>
        <pt x="190" y="1425" on="1"/>
        <pt x="190" y="1427" on="1"/>
        <pt x="190" y="1438" on="0"/>
        <pt x="206" y="1454" on="0"/>
        <pt x="217" y="1454" on="1"/>
        <pt x="228" y="1454" on="0"/>
        <pt x="244" y="1438" on="0"/>
        <pt x="244" y="1427" on="1"/>
        <pt x="244" y="1418" on="0"/>
        <pt x="238" y="1409" on="1"/>
        <pt x="238" y="1233" on="1"/>
        <pt x="254" y="1233" on="1"/>
        <pt x="263" y="1239" on="0"/>
        <pt x="272" y="1239" on="1"/>
        <pt x="283" y="1239" on="0"/>
        <pt x="299" y="1223" on="0"/>
        <pt x="299" y="1212" on="1"/>
        <pt x="299" y="1201" on="0"/>
        <pt x="283" y="1186" on="0"/>
        <pt x="272" y="1186" on="1"/>
        <pt x="263" y="1186" on="0"/>
        <pt x="254" y="1192" on="1"/>
        <pt x="238" y="1192" on="1"/>
      </contour>
      <contour>
        <pt x="197" y="1233" on="1"/>
        <pt x="197" y="1374" on="1"/>
        <pt x="74" y="1233" on="1"/>
      </contour>
    </TTGlyph>
    <TTGlyph name="fraction" xMin="-2" yMin="-20" xMax="426" yMax="1454">
      <contour>
        <pt x="47" y="18" on="1"/>
        <pt x="51" y="10" on="0"/>
        <pt x="51" y="6" on="1"/>
        <pt x="51" y="-5" on="0"/>
        <pt x="36" y="-20" on="0"/>
        <pt x="25" y="-20" on="1"/>
        <pt x="14" y="-20" on="0"/>
        <pt x="-2" y="-5" on="0"/>
        <pt x="-2" y="6" on="1"/>
        <pt x="-2" y="20" on="0"/>
        <pt x="10" y="29" on="1"/>
        <pt x="375" y="1415" on="1"/>
        <pt x="373" y="1419" on="0"/>
        <pt x="373" y="1427" on="1"/>
        <pt x="373" y="1438" on="0"/>
        <pt x="388" y="1454" on="0"/>
        <pt x="399" y="1454" on="1"/>
        <pt x="410" y="1454" on="0"/>
        <pt x="426" y="1438" on="0"/>
        <pt x="426" y="1427" on="1"/>
        <pt x="426" y="1419" on="0"/>
        <pt x="418" y="1406" on="0"/>
        <pt x="410" y="1403" on="1"/>
      </contour>
    </TTGlyph>
    <TTGlyph name="g" xMin="63" yMin="-430" xMax="500" yMax="1047">
      <contour>
        <pt x="494" y="-195" on="1"/>
        <pt x="494" y="-239" on="0"/>
        <pt x="473" y="-323" on="0"/>
        <pt x="423" y="-389" on="0"/>
        <pt x="343" y="-430" on="0"/>
        <pt x="283" y="-430" on="1"/>
        <pt x="226" y="-430" on="0"/>
        <pt x="147" y="-394" on="0"/>
        <pt x="97" y="-334" on="0"/>
        <pt x="72" y="-257" on="0"/>
        <pt x="70" y="-215" on="1"/>
        <pt x="63" y="-208" on="0"/>
        <pt x="63" y="-197" on="1"/>
        <pt x="63" y="-187" on="0"/>
        <pt x="79" y="-172" on="0"/>
        <pt x="90" y="-172" on="1"/>
        <pt x="101" y="-172" on="0"/>
        <pt x="117" y="-187" on="0"/>
        <pt x="117" y="-197" on="1"/>
        <pt x="117" y="-202" on="0"/>
        <pt x="114" y="-212" on="0"/>
        <pt x="111" y="-215" on="1"/>
        <pt x="112" y="-249" on="0"/>
        <pt x="132" y="-312" on="0"/>
        <pt x="173" y="-360" on="0"/>
        <pt x="237" y="-389" on="0"/>
        <pt x="283" y="-389" on="1"/>
        <pt x="331" y="-389" on="0"/>
        <pt x="397" y="-355" on="0"/>
        <pt x="436" y="-301" on="0"/>
        <pt x="453" y="-231" on="0"/>
        <pt x="453" y="-195" on="1"/>
        <pt x="453" y="66" on="1"/>
        <pt x="425" y="27" on="0"/>
        <pt x="345" y="-20" on="0"/>
        <pt x="283" y="-20" on="1"/>
        <pt x="222" y="-20" on="0"/>
        <pt x="141" y="21" on="0"/>
        <pt x="92" y="87" on="0"/>
        <pt x="72" y="171" on="0"/>
        <pt x="72" y="215" on="1"/>
        <pt x="72" y="809" on="1"/>
        <pt x="72" y="853" on="0"/>
        <pt x="92" y="937" on="0"/>
        <pt x="141" y="1003" on="0"/>
        <pt x="222" y="1044" on="0"/>
        <pt x="283" y="1044" on="1"/>
        <pt x="345" y="1044" on="0"/>
        <pt x="425" y="997" on="0"/>
        <pt x="453" y="958" on="1"/>
        <pt x="453" y="1001" on="1"/>
        <pt x="446" y="1013" on="0"/>
        <pt x="446" y="1020" on="1"/>
        <pt x="446" y="1031" on="0"/>
        <pt x="462" y="1047" on="0"/>
        <pt x="473" y="1047" on="1"/>
        <pt x="484" y="1047" on="0"/>
        <pt x="500" y="1031" on="0"/>
        <pt x="500" y="1020" on="1"/>
        <pt x="500" y="1011" on="0"/>
        <pt x="494" y="1001" on="1"/>
      </contour>
      <contour>
        <pt x="113" y="215" on="1"/>
        <pt x="113" y="180" on="0"/>
        <pt x="129" y="110" on="0"/>
        <pt x="168" y="54" on="0"/>
        <pt x="233" y="20" on="0"/>
        <pt x="283" y="20" on="1"/>
        <pt x="331" y="20" on="0"/>
        <pt x="395" y="51" on="0"/>
        <pt x="434" y="102" on="0"/>
        <pt x="451" y="167" on="0"/>
        <pt x="453" y="201" on="1"/>
        <pt x="453" y="809" on="1"/>
        <pt x="453" y="844" on="0"/>
        <pt x="432" y="914" on="0"/>
        <pt x="390" y="969" on="0"/>
        <pt x="326" y="1004" on="0"/>
        <pt x="283" y="1004" on="1"/>
        <pt x="233" y="1004" on="0"/>
        <pt x="168" y="969" on="0"/>
        <pt x="129" y="914" on="0"/>
        <pt x="113" y="844" on="0"/>
        <pt x="113" y="809" on="1"/>
      </contour>
    </TTGlyph>
    <TTGlyph name="germandbls" xMin="76" yMin="-20" xMax="508" yMax="1454">
      <contour>
        <pt x="508" y="221" on="1"/>
        <pt x="508" y="116" on="0"/>
        <pt x="399" y="0" on="0"/>
        <pt x="293" y="0" on="1"/>
        <pt x="252" y="0" on="1"/>
        <pt x="246" y="-6" on="0"/>
        <pt x="236" y="-6" on="1"/>
        <pt x="225" y="-6" on="0"/>
        <pt x="209" y="9" on="0"/>
        <pt x="209" y="20" on="1"/>
        <pt x="209" y="31" on="0"/>
        <pt x="225" y="47" on="0"/>
        <pt x="236" y="47" on="1"/>
        <pt x="246" y="47" on="0"/>
        <pt x="252" y="41" on="1"/>
        <pt x="293" y="41" on="1"/>
        <pt x="380" y="41" on="0"/>
        <pt x="467" y="138" on="0"/>
        <pt x="467" y="223" on="1"/>
        <pt x="467" y="791" on="1"/>
        <pt x="467" y="827" on="0"/>
        <pt x="450" y="896" on="0"/>
        <pt x="409" y="950" on="0"/>
        <pt x="340" y="983" on="0"/>
        <pt x="289" y="983" on="1"/>
        <pt x="252" y="983" on="1"/>
        <pt x="246" y="977" on="0"/>
        <pt x="236" y="977" on="1"/>
        <pt x="225" y="977" on="0"/>
        <pt x="209" y="993" on="0"/>
        <pt x="209" y="1004" on="1"/>
        <pt x="209" y="1015" on="0"/>
        <pt x="225" y="1030" on="0"/>
        <pt x="236" y="1030" on="1"/>
        <pt x="246" y="1030" on="0"/>
        <pt x="252" y="1024" on="1"/>
        <pt x="307" y="1024" on="1"/>
        <pt x="356" y="1024" on="0"/>
        <pt x="418" y="1058" on="0"/>
        <pt x="454" y="1114" on="0"/>
        <pt x="467" y="1185" on="0"/>
        <pt x="467" y="1221" on="1"/>
        <pt x="467" y="1256" on="0"/>
        <pt x="450" y="1325" on="0"/>
        <pt x="410" y="1379" on="0"/>
        <pt x="344" y="1413" on="0"/>
        <pt x="295" y="1413" on="1"/>
        <pt x="246" y="1413" on="0"/>
        <pt x="180" y="1379" on="0"/>
        <pt x="140" y="1325" on="0"/>
        <pt x="123" y="1256" on="0"/>
        <pt x="123" y="1221" on="1"/>
        <pt x="123" y="23" on="1"/>
        <pt x="129" y="15" on="0"/>
        <pt x="129" y="6" on="1"/>
        <pt x="129" y="-5" on="0"/>
        <pt x="113" y="-20" on="0"/>
        <pt x="102" y="-20" on="1"/>
        <pt x="91" y="-20" on="0"/>
        <pt x="76" y="-5" on="0"/>
        <pt x="76" y="6" on="1"/>
        <pt x="76" y="15" on="0"/>
        <pt x="82" y="23" on="1"/>
        <pt x="82" y="1221" on="1"/>
        <pt x="82" y="1264" on="0"/>
        <pt x="103" y="1348" on="0"/>
        <pt x="152" y="1414" on="0"/>
        <pt x="234" y="1454" on="0"/>
        <pt x="295" y="1454" on="1"/>
        <pt x="354" y="1454" on="0"/>
        <pt x="436" y="1414" on="0"/>
        <pt x="486" y="1348" on="0"/>
        <pt x="508" y="1264" on="0"/>
        <pt x="508" y="1221" on="1"/>
        <pt x="508" y="1188" on="0"/>
        <pt x="497" y="1121" on="0"/>
        <pt x="469" y="1063" on="0"/>
        <pt x="423" y="1017" on="0"/>
        <pt x="389" y="1004" on="1"/>
        <pt x="422" y="989" on="0"/>
        <pt x="467" y="945" on="0"/>
        <pt x="496" y="890" on="0"/>
        <pt x="508" y="825" on="0"/>
        <pt x="508" y="791" on="1"/>
      </contour>
    </TTGlyph>
    <TTGlyph name="grave" xMin="82" yMin="1167" xMax="369" yMax="1454">
      <contour>
        <pt x="344" y="1221" on="1"/>
        <pt x="353" y="1219" on="0"/>
        <pt x="369" y="1203" on="0"/>
        <pt x="369" y="1194" on="1"/>
        <pt x="369" y="1183" on="0"/>
        <pt x="353" y="1167" on="0"/>
        <pt x="342" y="1167" on="1"/>
        <pt x="331" y="1167" on="0"/>
        <pt x="315" y="1183" on="0"/>
        <pt x="315" y="1194" on="1"/>
        <pt x="109" y="1401" on="1"/>
        <pt x="98" y="1401" on="0"/>
        <pt x="82" y="1416" on="0"/>
        <pt x="82" y="1427" on="1"/>
        <pt x="82" y="1438" on="0"/>
        <pt x="98" y="1454" on="0"/>
        <pt x="109" y="1454" on="1"/>
        <pt x="118" y="1454" on="0"/>
        <pt x="133" y="1439" on="0"/>
        <pt x="135" y="1430" on="1"/>
      </contour>
    </TTGlyph>
    <TTGlyph name="greater" xMin="74" yMin="406" xMax="715" yMax="1098">
      <component glyphName="less" x="764" y="0" scalex="-0.999877929688" scaley="1.0" flags="0x4"/>
    </TTGlyph>
    <TTGlyph name="guillemotleft" xMin="47" yMin="113" xMax="670" yMax="891">
      <component glyphName="guilsinglleft" x="2" y="0" flags="0x4"/>
      <component glyphName="guilsinglleft" x="207" y="0" flags="0x4"/>
    </TTGlyph>
    <TTGlyph name="guillemotright" xMin="82" yMin="113" xMax="705" yMax="891">
      <component glyphName="guilsinglleft" x="545" y="0" scalex="-0.999877929688" scaley="1.0" flags="0x4"/>
      <component glyphName="guilsinglleft" x="750" y="0" scalex="-0.999877929688" scaley="1.0" flags="0x4"/>
    </TTGlyph>
    <TTGlyph name="guilsinglleft" xMin="45" yMin="113" xMax="463" yMax="891">
      <contour>
        <pt x="438" y="166" on="1"/>
        <pt x="448" y="164" on="0"/>
        <pt x="463" y="149" on="0"/>
        <pt x="463" y="139" on="1"/>
        <pt x="463" y="128" on="0"/>
        <pt x="447" y="113" on="0"/>
        <pt x="436" y="113" on="1"/>
        <pt x="425" y="113" on="0"/>
        <pt x="410" y="128" on="0"/>
        <pt x="410" y="139" on="1"/>
        <pt x="72" y="475" on="1"/>
        <pt x="61" y="475" on="0"/>
        <pt x="45" y="491" on="0"/>
        <pt x="45" y="502" on="1"/>
        <pt x="45" y="511" on="0"/>
        <pt x="59" y="526" on="0"/>
        <pt x="70" y="528" on="1"/>
        <pt x="410" y="866" on="1"/>
        <pt x="410" y="876" on="0"/>
        <pt x="425" y="891" on="0"/>
        <pt x="436" y="891" on="1"/>
        <pt x="447" y="891" on="0"/>
        <pt x="463" y="875" on="0"/>
        <pt x="463" y="864" on="1"/>
        <pt x="463" y="853" on="0"/>
        <pt x="447" y="838" on="0"/>
        <pt x="436" y="838" on="1"/>
        <pt x="98" y="502" on="1"/>
      </contour>
    </TTGlyph>
    <TTGlyph name="guilsinglright" xMin="82" yMin="113" xMax="500" yMax="891">
      <component glyphName="guilsinglleft" x="545" y="0" scalex="-0.999877929688" scaley="1.0" flags="0x4"/>
    </TTGlyph>
    <TTGlyph name="h" xMin="76" yMin="-20" xMax="510" yMax="1454">
      <contour>
        <pt x="504" y="23" on="1"/>
        <pt x="510" y="15" on="0"/>
        <pt x="510" y="6" on="1"/>
        <pt x="510" y="-5" on="0"/>
        <pt x="494" y="-20" on="0"/>
        <pt x="483" y="-20" on="1"/>
        <pt x="472" y="-20" on="0"/>
        <pt x="457" y="-5" on="0"/>
        <pt x="457" y="6" on="1"/>
        <pt x="457" y="15" on="0"/>
        <pt x="463" y="23" on="1"/>
        <pt x="463" y="809" on="1"/>
        <pt x="463" y="844" on="0"/>
        <pt x="447" y="914" on="0"/>
        <pt x="408" y="969" on="0"/>
        <pt x="343" y="1004" on="0"/>
        <pt x="293" y="1004" on="1"/>
        <pt x="250" y="1004" on="0"/>
        <pt x="186" y="969" on="0"/>
        <pt x="144" y="914" on="0"/>
        <pt x="123" y="844" on="0"/>
        <pt x="123" y="809" on="1"/>
        <pt x="123" y="23" on="1"/>
        <pt x="129" y="15" on="0"/>
        <pt x="129" y="6" on="1"/>
        <pt x="129" y="-5" on="0"/>
        <pt x="113" y="-20" on="0"/>
        <pt x="102" y="-20" on="1"/>
        <pt x="91" y="-20" on="0"/>
        <pt x="76" y="-5" on="0"/>
        <pt x="76" y="6" on="1"/>
        <pt x="76" y="15" on="0"/>
        <pt x="82" y="23" on="1"/>
        <pt x="82" y="1409" on="1"/>
        <pt x="76" y="1418" on="0"/>
        <pt x="76" y="1427" on="1"/>
        <pt x="76" y="1438" on="0"/>
        <pt x="91" y="1454" on="0"/>
        <pt x="102" y="1454" on="1"/>
        <pt x="113" y="1454" on="0"/>
        <pt x="129" y="1438" on="0"/>
        <pt x="129" y="1427" on="1"/>
        <pt x="129" y="1418" on="0"/>
        <pt x="123" y="1409" on="1"/>
        <pt x="123" y="949" on="1"/>
        <pt x="151" y="997" on="0"/>
        <pt x="238" y="1044" on="0"/>
        <pt x="293" y="1044" on="1"/>
        <pt x="354" y="1044" on="0"/>
        <pt x="435" y="1003" on="0"/>
        <pt x="484" y="937" on="0"/>
        <pt x="504" y="853" on="0"/>
        <pt x="504" y="809" on="1"/>
      </contour>
    </TTGlyph>
</ttFont>
